<svg width="1280" height="1000" viewBox="0 0 1280 1000" fill="none" xmlns="http://www.w3.org/2000/svg">
<g clip-path="url(#clip0_226_120)">
<rect width="1280" height="1000" fill="#EDEDED"/>
<rect x="1" y="1" width="260" height="1000" fill="#3A3A3A"/>
<g clip-path="url(#clip1_226_120)">
<path d="M124.592 61.9351L113.418 42.5859C113.34 44.4639 112.833 46.2838 111.934 47.9214L111.955 47.9338L103.047 63.3599H123.769C124.264 63.3599 124.509 63.0274 124.592 62.885C124.674 62.7425 124.84 62.3635 124.592 61.9351Z" fill="#FC541F"/>
<path d="M96.4007 13.1156C96.1527 12.6872 95.7432 12.6406 95.5779 12.6406C95.4126 12.6406 95.0031 12.6872 94.7551 13.1156L66.5631 61.9349C66.3151 62.3633 66.4804 62.7423 66.5631 62.8848C66.6458 63.0272 66.8909 63.3597 67.3859 63.3597H74.9106L90.8531 35.7523L90.8769 35.7665C91.8745 34.1261 93.2483 32.7421 94.8929 31.7266C96.8824 30.4984 99.1778 29.8772 101.529 29.9247C103.43 29.9646 105.262 30.4434 106.907 31.3106L96.3997 13.1156H96.4007Z" fill="#FC541F"/>
<path d="M101.27 31.8213C95.613 31.8213 91.0107 36.4225 91.0107 42.0781C91.0107 47.7337 95.613 52.335 101.27 52.335C106.927 52.335 111.529 47.7337 111.529 42.0781C111.529 36.4225 106.927 31.8213 101.27 31.8213Z" fill="#FC541F"/>
<path d="M173.024 31.3066C172.655 30.7918 172.198 30.3339 171.651 29.934C171.104 29.5351 170.462 29.2188 169.726 28.987C169.432 28.9034 168.942 28.7714 168.258 28.5928C167.574 28.4142 166.875 28.2299 166.159 28.0409C165.444 27.8519 164.797 27.6781 164.218 27.5204C163.64 27.3627 163.308 27.2734 163.225 27.2525C162.425 27.0207 161.778 26.6797 161.284 26.2276C160.789 25.7754 160.542 25.1495 160.542 24.3506C160.542 23.7826 160.673 23.3095 160.936 22.9305C161.199 22.5515 161.53 22.2523 161.93 22.031C162.33 21.8097 162.771 21.652 163.255 21.558C163.739 21.463 164.212 21.4155 164.675 21.4155C166.043 21.4155 167.168 21.7156 168.052 22.315C168.936 22.9144 169.43 23.9403 169.535 25.3917H173.48C173.48 24.2138 173.248 23.1775 172.785 22.2837C172.323 21.3898 171.697 20.6375 170.908 20.0277C170.118 19.4179 169.204 18.96 168.162 18.6551C167.121 18.3502 166.011 18.1973 164.832 18.1973C163.822 18.1973 162.823 18.3284 161.834 18.5915C160.845 18.8555 159.961 19.2592 159.183 19.8064C158.404 20.3535 157.779 21.0422 157.305 21.8733C156.831 22.7045 156.595 23.6876 156.595 24.8237C156.595 25.4126 156.674 25.9911 156.831 26.5591C156.989 27.1271 157.257 27.6629 157.636 28.1682C158.015 28.6735 158.525 29.1304 159.167 29.5408C159.808 29.9511 160.613 30.2826 161.581 30.5344C163.138 30.9552 164.447 31.2971 165.511 31.5602C166.573 31.8234 167.504 32.1017 168.304 32.3961C168.766 32.5643 169.192 32.854 169.582 33.2643C169.97 33.6747 170.165 34.3111 170.165 35.1726C170.165 35.5934 170.08 36.0085 169.912 36.4189C169.744 36.8292 169.471 37.1921 169.091 37.5075C168.712 37.8228 168.218 38.0812 167.608 38.2807C166.997 38.4801 166.261 38.5799 165.399 38.5799C164.599 38.5799 163.857 38.4906 163.174 38.312C162.49 38.1334 161.885 37.8494 161.36 37.46C160.833 37.0705 160.423 36.5718 160.128 35.9611C159.834 35.3512 159.686 34.6151 159.686 33.7526H155.742C155.763 35.1413 156.026 36.3448 156.53 37.365C157.036 38.3852 157.708 39.2211 158.55 39.8736C159.391 40.5262 160.381 41.0097 161.516 41.325C162.653 41.6404 163.862 41.7981 165.146 41.7981C166.26 41.7981 167.355 41.667 168.427 41.4039C169.501 41.1408 170.458 40.7257 171.299 40.1576C172.14 39.5896 172.82 38.8591 173.335 37.9644C173.85 37.0705 174.109 35.9924 174.109 34.73C174.109 34.142 174.02 33.5521 173.841 32.9632C173.662 32.3743 173.389 31.8224 173.02 31.3066H173.024Z" fill="#EDEDED"/>
<path d="M152.242 21.1622C151.695 20.4679 150.917 19.8903 149.907 19.4268C148.897 18.9642 147.593 18.7324 145.994 18.7324H136.053V21.9506H145.836C146.361 21.9506 146.856 22.0038 147.319 22.1083C147.782 22.2137 148.192 22.4085 148.55 22.6925C148.907 22.9765 149.192 23.3603 149.402 23.8437C149.612 24.3282 149.718 24.938 149.718 25.6732C149.718 26.4084 149.596 26.9831 149.355 27.4562C149.113 27.9292 148.797 28.3082 148.409 28.5922C148.019 28.8762 147.593 29.0814 147.131 29.2077C146.668 29.3341 146.216 29.3968 145.774 29.3968H139.998V25.5307H136.054V41.2608H139.998V32.6159H145.994C147.593 32.6159 148.898 32.3899 149.908 31.9368C150.918 31.4846 151.696 30.9118 152.243 30.2175C152.79 29.5231 153.163 28.7717 153.363 27.9615C153.563 27.1522 153.664 26.3999 153.664 25.7055C153.664 25.0112 153.564 24.2541 153.363 23.4343C153.163 22.6136 152.79 21.8566 152.243 21.1622H152.242Z" fill="#EDEDED"/>
<path d="M193.004 32.3006H189.072H187.748H182.191L185.6 22.6146H185.694L187.823 28.7205H191.625L187.778 18.7334H183.58L174.933 41.2618H179.004L181.119 35.2984H190.113L192.227 41.2618H196.457L193.004 32.3006Z" fill="#EDEDED"/>
<path d="M136.052 52.043H137.143V58.2776H136.052V52.043Z" fill="#EDEDED"/>
<path d="M162.796 52.043H163.888V58.2776H162.796V52.043Z" fill="#EDEDED"/>
<path d="M172.224 52.043H176.713V52.9861H173.316V54.6189H176.46V55.5098H173.316V57.3344H176.774V58.2776H172.224V52.043Z" fill="#EDEDED"/>
<path d="M191.514 52.043H196.003V52.9861H192.605V54.6189H195.749V55.5098H192.605V57.3344H196.064V58.2776H191.514V52.043Z" fill="#EDEDED"/>
<path d="M157.187 52.043H158.279V57.3344H161.449V58.2776H157.187V52.043Z" fill="#EDEDED"/>
<path d="M189.066 54.0801C189.02 53.9078 188.955 53.7492 188.874 53.605C188.793 53.4609 188.688 53.3358 188.56 53.2297C188.432 53.1245 188.282 53.042 188.111 52.984C187.939 52.926 187.739 52.8961 187.512 52.8961C187.18 52.8961 186.893 52.9604 186.652 53.0883C186.411 53.2161 186.214 53.3874 186.062 53.6005C185.911 53.8144 185.799 54.0574 185.726 54.3294C185.653 54.6014 185.617 54.8797 185.617 55.1625C185.617 55.4454 185.653 55.7237 185.726 55.9957C185.799 56.2677 185.911 56.5115 186.062 56.7246C186.213 56.9385 186.41 57.109 186.652 57.2368C186.893 57.3646 187.18 57.4281 187.512 57.4281C187.756 57.4281 187.972 57.3882 188.158 57.3075C188.344 57.2268 188.505 57.1162 188.639 56.9739C188.773 56.8325 188.877 56.6666 188.953 56.478C189.029 56.2894 189.079 56.0864 189.101 55.8697H190.167C190.143 56.2251 190.063 56.5505 189.926 56.8443C189.789 57.1389 189.604 57.3927 189.371 57.6067C189.139 57.8207 188.865 57.9857 188.55 58.1026C188.236 58.2196 187.889 58.2776 187.511 58.2776C187.045 58.2776 186.627 58.1951 186.258 58.0319C185.888 57.8678 185.575 57.6439 185.319 57.361C185.063 57.0773 184.866 56.7473 184.73 56.3692C184.593 55.9912 184.525 55.5886 184.525 55.1607C184.525 54.7328 184.593 54.3385 184.73 53.9604C184.867 53.5824 185.064 53.2524 185.319 52.9686C185.576 52.6848 185.888 52.46 186.258 52.2932C186.627 52.1264 187.045 52.043 187.511 52.043C187.861 52.043 188.189 52.0883 188.498 52.1808C188.807 52.2723 189.079 52.4056 189.314 52.5806C189.55 52.7555 189.741 52.9686 189.886 53.2179C190.032 53.4681 190.122 53.7546 190.157 54.0764H189.065L189.066 54.0801Z" fill="#EDEDED"/>
<path d="M138.491 52.043H139.643L142.491 56.6353H142.508V52.043H143.547V58.2776H142.395L139.557 53.6938H139.53V58.2776H138.491V52.043Z" fill="#EDEDED"/>
<path d="M178.121 52.043H179.274L182.121 56.6353H182.138V52.043H183.177V58.2776H182.025L179.187 53.6938H179.16V58.2776H178.121V52.043Z" fill="#EDEDED"/>
<path d="M144.893 52.043H150.012V52.9804H148.001V58.2399H146.894V52.9804H144.893V52.043Z" fill="#EDEDED"/>
<path d="M151.29 52.043H155.779V52.9861H152.382V54.6189H155.526V55.5098H152.382V57.3344H155.84V58.2776H151.29V52.043Z" fill="#EDEDED"/>
<path d="M169.777 54.0801C169.73 53.9078 169.666 53.7492 169.585 53.605C169.503 53.4609 169.399 53.3358 169.27 53.2297C169.142 53.1245 168.992 53.042 168.821 52.984C168.649 52.926 168.45 52.8961 168.222 52.8961C167.891 52.8961 167.604 52.9604 167.363 53.0883C167.121 53.2161 166.925 53.3874 166.773 53.6005C166.622 53.8144 166.509 54.0574 166.436 54.3294C166.363 54.6014 166.327 54.8797 166.327 55.1625C166.327 55.4454 166.363 55.7237 166.436 55.9957C166.509 56.2677 166.622 56.5115 166.773 56.7246C166.924 56.9385 167.12 57.109 167.363 57.2368C167.604 57.3646 167.891 57.4281 168.222 57.4281C168.467 57.4281 168.682 57.3882 168.869 57.3075C169.055 57.2268 169.215 57.1162 169.349 56.9739C169.483 56.8325 169.588 56.6666 169.664 56.478C169.74 56.2894 169.754 56.2796 169.777 56.0629H168.5V55.6772V55.2915H169.812H170.386H170.877V55.8697C170.853 56.2251 170.773 56.5505 170.637 56.8443C170.5 57.1389 170.315 57.3927 170.082 57.6067C169.849 57.8207 169.575 57.9857 169.261 58.1026C168.946 58.2196 168.6 58.2776 168.221 58.2776C167.756 58.2776 167.338 58.1951 166.968 58.0319C166.599 57.8678 166.285 57.6439 166.03 57.361C165.773 57.0773 165.576 56.7473 165.441 56.3692C165.304 55.9912 165.235 55.5886 165.235 55.1607C165.235 54.7328 165.304 54.3385 165.441 53.9604C165.577 53.5824 165.774 53.2524 166.03 52.9686C166.286 52.6848 166.599 52.46 166.968 52.2932C167.338 52.1264 167.756 52.043 168.221 52.043C168.571 52.043 168.9 52.0883 169.209 52.1808C169.517 52.2723 169.789 52.4056 170.025 52.5806C170.26 52.7555 170.451 52.9686 170.597 53.2179C170.742 53.4681 170.832 53.7546 170.867 54.0764H169.776L169.777 54.0801Z" fill="#EDEDED"/>
</g>
<path d="M292.6 36.88H300C299.96 38 299.84 38.84 299.68 39.48C299.52 40.12 299.16 40.92 298.68 41.92C296.44 46.44 292.52 48.68 286.92 48.68C282.56 48.68 279.08 47.28 276.52 44.48C273.96 41.68 272.68 38.08 272.68 33.68C272.68 29.32 274 25.76 276.68 23C279.32 20.24 282.8 18.84 287.04 18.84C290.36 18.84 293.28 19.84 295.76 21.76C298.24 23.72 299.6 26.32 299.84 29.56H292.52C291.88 26.6 290 25.08 286.88 25.08C284.84 25.08 283.2 25.88 282 27.48C280.8 29.08 280.2 31.2 280.2 33.84C280.2 36.44 280.8 38.52 282 40.04C283.2 41.6 284.84 42.36 286.88 42.36C290.16 42.36 292.04 40.56 292.6 36.88ZM313.672 26.76C316.872 26.76 319.432 27.8 321.432 29.8C323.432 31.8 324.432 34.44 324.432 37.68C324.432 40.92 323.432 43.56 321.432 45.6C319.432 47.64 316.792 48.68 313.552 48.68C310.312 48.68 307.672 47.64 305.672 45.64C303.672 43.6 302.672 40.96 302.672 37.72C302.672 34.48 303.672 31.84 305.712 29.8C307.752 27.8 310.392 26.76 313.672 26.76ZM313.472 31.84C312.192 31.84 311.232 32.32 310.512 33.36C309.792 34.4 309.432 35.84 309.432 37.72C309.432 39.64 309.792 41.12 310.512 42.16C311.232 43.2 312.272 43.72 313.552 43.72C314.872 43.72 315.872 43.16 316.592 42.12C317.312 41.08 317.632 39.6 317.632 37.68C317.632 35.8 317.272 34.36 316.552 33.36C315.832 32.32 314.832 31.84 313.472 31.84ZM334.605 27.36V30.08C336.165 27.92 338.285 26.8 340.925 26.8C343.765 26.8 345.725 27.92 346.765 30.12C347.805 28.96 348.765 28.12 349.725 27.6C350.645 27.08 351.845 26.8 353.325 26.8C355.645 26.8 357.445 27.48 358.725 28.84C359.965 30.2 360.605 32.08 360.605 34.4V48H353.765V36C353.765 33.52 352.805 32.24 350.925 32.24C349.885 32.24 349.125 32.6 348.565 33.24C348.005 33.88 347.725 34.76 347.725 35.88V48H340.925V35.76C340.925 34.64 340.725 33.76 340.365 33.12C339.965 32.48 339.245 32.16 338.205 32.16C337.045 32.16 336.205 32.56 335.685 33.32C335.125 34.08 334.885 35.08 334.885 36.28V48H328.085V27.36H334.605ZM371.596 27.36V29.76C373.036 27.84 375.036 26.84 377.636 26.84C380.356 26.84 382.516 27.84 384.196 29.84C385.836 31.84 386.676 34.52 386.676 37.8C386.676 41.08 385.876 43.68 384.276 45.6C382.676 47.56 380.516 48.52 377.876 48.52C375.396 48.52 373.396 47.56 371.876 45.64V55H365.116V27.36H371.596ZM375.676 32.24C374.396 32.24 373.396 32.76 372.676 33.72C371.956 34.72 371.596 36.08 371.596 37.76C371.596 39.52 371.956 40.88 372.676 41.84C373.396 42.8 374.436 43.28 375.756 43.28C377.076 43.28 378.076 42.84 378.796 41.88C379.516 40.96 379.876 39.64 379.876 37.88C379.876 36.04 379.516 34.64 378.796 33.68C378.076 32.72 377.036 32.24 375.676 32.24ZM405.111 27.08V33.16C404.031 32.92 403.151 32.76 402.431 32.76C398.991 32.76 397.311 34.72 397.311 38.6V48H390.551V27.36H397.031L396.991 30.88C397.711 29.52 398.551 28.52 399.551 27.88C400.551 27.24 401.831 26.88 403.351 26.88C403.911 26.88 404.471 26.96 405.111 27.08ZM427.383 48H420.503C420.303 47.44 420.183 46.76 420.183 46.04C418.263 47.8 415.983 48.64 413.343 48.64C411.103 48.64 409.303 48.08 408.023 46.96C406.743 45.84 406.103 44.28 406.103 42.28C406.103 41.32 406.263 40.44 406.623 39.68C406.943 38.96 407.343 38.36 407.823 37.96C408.263 37.56 408.943 37.16 409.823 36.84C410.703 36.52 411.423 36.32 412.063 36.2C412.663 36.08 413.503 35.92 414.623 35.76C417.183 35.36 418.663 35.12 418.983 34.96C419.703 34.68 420.063 34.12 420.063 33.28C420.063 31.84 418.983 31.08 416.903 31.08C415.783 31.08 414.983 31.28 414.503 31.6C414.023 31.96 413.663 32.64 413.423 33.68H407.023C407.423 29.08 410.743 26.76 416.983 26.76C420.303 26.76 422.823 27.4 424.583 28.64C425.343 29.2 425.863 29.88 426.143 30.6C426.423 31.36 426.583 32.44 426.583 33.8V42.08C426.583 44.8 426.823 46.8 427.383 48ZM420.063 38.32C419.743 38.48 419.343 38.64 418.943 38.76C418.503 38.92 418.143 39 417.903 39.04C417.663 39.12 417.223 39.2 416.663 39.32C416.103 39.44 415.743 39.52 415.583 39.52C413.903 39.88 413.063 40.72 413.063 42.04C413.063 42.84 413.303 43.44 413.783 43.84C414.263 44.28 414.903 44.48 415.743 44.48C416.943 44.48 417.943 44.16 418.783 43.44C419.623 42.72 420.063 41.72 420.063 40.44V38.32ZM449.253 33.4H443.013C442.853 32.52 442.533 31.92 442.013 31.56C441.453 31.2 440.693 31 439.693 31C437.853 31 436.973 31.56 436.973 32.68C436.973 32.88 436.973 33.04 437.053 33.2C437.093 33.36 437.173 33.52 437.333 33.64C437.453 33.76 437.573 33.84 437.693 33.92C437.773 34 437.933 34.04 438.173 34.12C438.373 34.2 438.533 34.24 438.653 34.28C438.733 34.32 438.933 34.36 439.173 34.4C439.413 34.44 439.573 34.48 439.653 34.48C442.573 35.12 444.653 35.64 445.893 36.04C448.533 37 449.853 38.8 449.853 41.44C449.853 43.68 448.973 45.4 447.213 46.68C445.453 47.96 443.013 48.56 439.933 48.56C437.093 48.56 434.733 48 432.893 46.88C431.013 45.76 430.013 43.84 429.893 41.2H436.333C436.453 43.16 437.693 44.12 440.093 44.12C441.053 44.12 441.813 43.96 442.373 43.56C442.933 43.2 443.213 42.68 443.213 42C443.213 41.44 442.973 41.04 442.493 40.72C442.013 40.44 441.093 40.16 439.733 39.84C437.493 39.4 435.693 38.96 434.333 38.48C431.613 37.56 430.293 35.8 430.293 33.2C430.293 31.12 431.093 29.56 432.773 28.44C434.413 27.32 436.773 26.76 439.893 26.76C441.133 26.76 442.293 26.88 443.333 27.12C444.373 27.36 445.373 27.68 446.253 28.16C447.133 28.64 447.813 29.36 448.373 30.24C448.893 31.12 449.173 32.2 449.253 33.4Z" fill="#303030"/>
</g>
<rect x="0.5" y="0.5" width="1279" height="999" stroke="#3A3A3A"/>
<defs>
<clipPath id="clip0_226_120">
<rect width="1280" height="1000" fill="white"/>
</clipPath>
<clipPath id="clip1_226_120">
<rect width="130.404" height="52" fill="white" transform="translate(66 12)"/>
</clipPath>
</defs>
</svg>
