<svg width="1280" height="720" viewBox="0 0 1280 720" fill="none" xmlns="http://www.w3.org/2000/svg">
<g clip-path="url(#clip0_252_141)">
<rect width="1280" height="720" fill="#EDEDED"/>
<rect x="1" y="1" width="260" height="720" fill="#3A3A3A"/>
<g clip-path="url(#clip1_252_141)">
<path d="M124.592 61.9351L113.418 42.5859C113.34 44.4639 112.834 46.2838 111.934 47.9214L111.956 47.9338L103.048 63.3599H123.769C124.264 63.3599 124.509 63.0274 124.592 62.885C124.675 62.7425 124.84 62.3635 124.592 61.9351Z" fill="#FC541F"/>
<path d="M96.4012 13.1156C96.1532 12.6872 95.7437 12.6406 95.5784 12.6406C95.4131 12.6406 95.0036 12.6872 94.7556 13.1156L66.5636 61.9349C66.3156 62.3633 66.4809 62.7423 66.5636 62.8848C66.6462 63.0272 66.8914 63.3597 67.3864 63.3597H74.9111L90.8536 35.7523L90.8774 35.7665C91.8749 34.1261 93.2488 32.7421 94.8934 31.7266C96.8829 30.4984 99.1783 29.8772 101.53 29.9247C103.431 29.9646 105.263 30.4434 106.907 31.3106L96.4002 13.1156H96.4012Z" fill="#FC541F"/>
<path d="M101.271 31.8213C95.614 31.8213 91.0117 36.4225 91.0117 42.0781C91.0117 47.7337 95.614 52.335 101.271 52.335C106.928 52.335 111.53 47.7337 111.53 42.0781C111.53 36.4225 106.928 31.8213 101.271 31.8213Z" fill="#FC541F"/>
<path d="M173.023 31.3066C172.655 30.7918 172.198 30.3339 171.65 29.934C171.103 29.5351 170.462 29.2188 169.726 28.987C169.431 28.9034 168.942 28.7714 168.258 28.5928C167.574 28.4142 166.874 28.2299 166.159 28.0409C165.444 27.8519 164.797 27.6781 164.218 27.5204C163.639 27.3627 163.308 27.2734 163.224 27.2525C162.424 27.0207 161.777 26.6797 161.283 26.2276C160.788 25.7754 160.541 25.1495 160.541 24.3506C160.541 23.7826 160.672 23.3095 160.935 22.9305C161.199 22.5515 161.529 22.2523 161.929 22.031C162.329 21.8097 162.771 21.652 163.255 21.558C163.738 21.463 164.211 21.4155 164.675 21.4155C166.042 21.4155 167.168 21.7156 168.052 22.315C168.935 22.9144 169.429 23.9403 169.535 25.3917H173.479C173.479 24.2138 173.248 23.1775 172.785 22.2837C172.322 21.3898 171.696 20.6375 170.908 20.0277C170.118 19.4179 169.203 18.96 168.162 18.6551C167.12 18.3502 166.011 18.1973 164.832 18.1973C163.822 18.1973 162.822 18.3284 161.833 18.5915C160.844 18.8555 159.961 19.2592 159.182 19.8064C158.403 20.3535 157.778 21.0422 157.304 21.8733C156.831 22.7045 156.594 23.6876 156.594 24.8237C156.594 25.4126 156.673 25.9911 156.831 26.5591C156.989 27.1271 157.257 27.6629 157.636 28.1682C158.015 28.6735 158.524 29.1304 159.166 29.5408C159.808 29.9511 160.612 30.2826 161.58 30.5344C163.138 30.9552 164.447 31.2971 165.51 31.5602C166.572 31.8234 167.503 32.1017 168.303 32.3961C168.766 32.5643 169.192 32.854 169.581 33.2643C169.97 33.6747 170.165 34.3111 170.165 35.1726C170.165 35.5934 170.08 36.0085 169.912 36.4189C169.744 36.8292 169.47 37.1921 169.091 37.5075C168.712 37.8228 168.218 38.0812 167.608 38.2807C166.997 38.4801 166.261 38.5799 165.399 38.5799C164.599 38.5799 163.857 38.4906 163.174 38.312C162.49 38.1334 161.884 37.8494 161.359 37.46C160.833 37.0705 160.422 36.5718 160.128 35.9611C159.833 35.3512 159.686 34.6151 159.686 33.7526H155.741C155.762 35.1413 156.025 36.3448 156.53 37.365C157.035 38.3852 157.708 39.2211 158.55 39.8736C159.391 40.5262 160.381 41.0097 161.516 41.325C162.652 41.6404 163.862 41.7981 165.145 41.7981C166.26 41.7981 167.354 41.667 168.427 41.4039C169.5 41.1408 170.457 40.7257 171.299 40.1576C172.14 39.5896 172.819 38.8591 173.335 37.9644C173.85 37.0705 174.108 35.9924 174.108 34.73C174.108 34.142 174.019 33.5521 173.84 32.9632C173.662 32.3743 173.388 31.8224 173.02 31.3066H173.023Z" fill="#EDEDED"/>
<path d="M152.242 21.1622C151.695 20.4679 150.917 19.8903 149.907 19.4268C148.897 18.9642 147.593 18.7324 145.994 18.7324H136.053V21.9506H145.836C146.361 21.9506 146.856 22.0038 147.319 22.1083C147.782 22.2137 148.192 22.4085 148.55 22.6925C148.907 22.9765 149.192 23.3603 149.402 23.8437C149.612 24.3282 149.718 24.938 149.718 25.6732C149.718 26.4084 149.596 26.9831 149.355 27.4562C149.113 27.9292 148.797 28.3082 148.409 28.5922C148.019 28.8762 147.593 29.0814 147.131 29.2077C146.668 29.3341 146.216 29.3968 145.774 29.3968H139.998V25.5307H136.054V41.2608H139.998V32.6159H145.994C147.593 32.6159 148.898 32.3899 149.908 31.9368C150.918 31.4846 151.696 30.9118 152.243 30.2175C152.79 29.5231 153.163 28.7717 153.363 27.9615C153.563 27.1522 153.664 26.3999 153.664 25.7055C153.664 25.0112 153.564 24.2541 153.363 23.4343C153.163 22.6136 152.79 21.8566 152.243 21.1622H152.242Z" fill="#EDEDED"/>
<path d="M193.004 32.3006H189.072H187.748H182.191L185.6 22.6146H185.694L187.823 28.7205H191.625L187.778 18.7334H183.58L174.933 41.2618H179.004L181.119 35.2984H190.113L192.227 41.2618H196.457L193.004 32.3006Z" fill="#EDEDED"/>
<path d="M136.052 52.043H137.143V58.2776H136.052V52.043Z" fill="#EDEDED"/>
<path d="M162.796 52.043H163.888V58.2776H162.796V52.043Z" fill="#EDEDED"/>
<path d="M172.224 52.043H176.713V52.9861H173.315V54.6189H176.459V55.5098H173.315V57.3344H176.774V58.2776H172.224V52.043Z" fill="#EDEDED"/>
<path d="M191.514 52.043H196.003V52.9861H192.605V54.6189H195.749V55.5098H192.605V57.3344H196.064V58.2776H191.514V52.043Z" fill="#EDEDED"/>
<path d="M157.188 52.043H158.279V57.3344H161.45V58.2776H157.188V52.043Z" fill="#EDEDED"/>
<path d="M189.066 54.0801C189.019 53.9078 188.955 53.7492 188.874 53.605C188.792 53.4609 188.688 53.3358 188.559 53.2297C188.431 53.1245 188.281 53.042 188.11 52.984C187.938 52.926 187.739 52.8961 187.511 52.8961C187.18 52.8961 186.893 52.9604 186.652 53.0883C186.41 53.2161 186.214 53.3874 186.062 53.6005C185.911 53.8144 185.798 54.0574 185.725 54.3294C185.652 54.6014 185.616 54.8797 185.616 55.1625C185.616 55.4454 185.652 55.7237 185.725 55.9957C185.798 56.2677 185.911 56.5115 186.062 56.7246C186.213 56.9385 186.409 57.109 186.652 57.2368C186.893 57.3646 187.18 57.4281 187.511 57.4281C187.756 57.4281 187.971 57.3882 188.158 57.3075C188.344 57.2268 188.504 57.1162 188.638 56.9739C188.772 56.8325 188.877 56.6666 188.953 56.478C189.029 56.2894 189.078 56.0864 189.101 55.8697H190.166C190.142 56.2251 190.062 56.5505 189.926 56.8443C189.789 57.1389 189.604 57.3927 189.371 57.6067C189.138 57.8207 188.864 57.9857 188.55 58.1026C188.235 58.2196 187.889 58.2776 187.511 58.2776C187.045 58.2776 186.627 58.1951 186.257 58.0319C185.888 57.8678 185.574 57.6439 185.319 57.361C185.062 57.0773 184.865 56.7473 184.73 56.3692C184.593 55.9912 184.524 55.5886 184.524 55.1607C184.524 54.7328 184.593 54.3385 184.73 53.9604C184.866 53.5824 185.063 53.2524 185.319 52.9686C185.575 52.6848 185.888 52.46 186.257 52.2932C186.627 52.1264 187.045 52.043 187.511 52.043C187.86 52.043 188.189 52.0883 188.498 52.1808C188.806 52.2723 189.078 52.4056 189.314 52.5806C189.549 52.7555 189.74 52.9686 189.886 53.2179C190.031 53.4681 190.121 53.7546 190.157 54.0764H189.065L189.066 54.0801Z" fill="#EDEDED"/>
<path d="M138.49 52.043H139.643L142.49 56.6353H142.507V52.043H143.547V58.2776H142.394L139.556 53.6938H139.53V58.2776H138.49V52.043Z" fill="#EDEDED"/>
<path d="M178.121 52.043H179.274L182.121 56.6353H182.138V52.043H183.177V58.2776H182.025L179.187 53.6938H179.16V58.2776H178.121V52.043Z" fill="#EDEDED"/>
<path d="M144.893 52.043H150.012V52.9804H148.001V58.2399H146.894V52.9804H144.893V52.043Z" fill="#EDEDED"/>
<path d="M151.29 52.043H155.779V52.9861H152.382V54.6189H155.526V55.5098H152.382V57.3344H155.84V58.2776H151.29V52.043Z" fill="#EDEDED"/>
<path d="M169.777 54.0801C169.73 53.9078 169.666 53.7492 169.585 53.605C169.503 53.4609 169.399 53.3358 169.27 53.2297C169.142 53.1245 168.992 53.042 168.821 52.984C168.649 52.926 168.45 52.8961 168.222 52.8961C167.891 52.8961 167.604 52.9604 167.363 53.0883C167.121 53.2161 166.925 53.3874 166.773 53.6005C166.622 53.8144 166.509 54.0574 166.436 54.3294C166.363 54.6014 166.327 54.8797 166.327 55.1625C166.327 55.4454 166.363 55.7237 166.436 55.9957C166.509 56.2677 166.622 56.5115 166.773 56.7246C166.924 56.9385 167.12 57.109 167.363 57.2368C167.604 57.3646 167.891 57.4281 168.222 57.4281C168.467 57.4281 168.682 57.3882 168.869 57.3075C169.055 57.2268 169.215 57.1162 169.349 56.9739C169.483 56.8325 169.588 56.6666 169.664 56.478C169.74 56.2894 169.754 56.2796 169.777 56.0629H168.5V55.6772V55.2915H169.812H170.386H170.877V55.8697C170.853 56.2251 170.773 56.5505 170.637 56.8443C170.5 57.1389 170.315 57.3927 170.082 57.6067C169.849 57.8207 169.575 57.9857 169.261 58.1026C168.946 58.2196 168.6 58.2776 168.221 58.2776C167.756 58.2776 167.338 58.1951 166.968 58.0319C166.599 57.8678 166.285 57.6439 166.03 57.361C165.773 57.0773 165.576 56.7473 165.441 56.3692C165.304 55.9912 165.235 55.5886 165.235 55.1607C165.235 54.7328 165.304 54.3385 165.441 53.9604C165.577 53.5824 165.774 53.2524 166.03 52.9686C166.286 52.6848 166.599 52.46 166.968 52.2932C167.338 52.1264 167.756 52.043 168.221 52.043C168.571 52.043 168.9 52.0883 169.209 52.1808C169.517 52.2723 169.789 52.4056 170.025 52.5806C170.26 52.7555 170.451 52.9686 170.597 53.2179C170.742 53.4681 170.832 53.7546 170.867 54.0764H169.776L169.777 54.0801Z" fill="#EDEDED"/>
</g>
<path d="M292.842 43.88H300.242C300.202 45 300.082 45.84 299.922 46.48C299.762 47.12 299.402 47.92 298.922 48.92C296.682 53.44 292.762 55.68 287.162 55.68C282.802 55.68 279.322 54.28 276.762 51.48C274.202 48.68 272.922 45.08 272.922 40.68C272.922 36.32 274.242 32.76 276.922 30C279.562 27.24 283.042 25.84 287.282 25.84C290.602 25.84 293.522 26.84 296.002 28.76C298.482 30.72 299.842 33.32 300.082 36.56H292.762C292.122 33.6 290.242 32.08 287.122 32.08C285.082 32.08 283.442 32.88 282.242 34.48C281.042 36.08 280.442 38.2 280.442 40.84C280.442 43.44 281.042 45.52 282.242 47.04C283.442 48.6 285.082 49.36 287.122 49.36C290.402 49.36 292.282 47.56 292.842 43.88ZM313.914 33.76C317.114 33.76 319.674 34.8 321.674 36.8C323.674 38.8 324.674 41.44 324.674 44.68C324.674 47.92 323.674 50.56 321.674 52.6C319.674 54.64 317.034 55.68 313.794 55.68C310.554 55.68 307.914 54.64 305.914 52.64C303.914 50.6 302.914 47.96 302.914 44.72C302.914 41.48 303.914 38.84 305.954 36.8C307.994 34.8 310.634 33.76 313.914 33.76ZM313.714 38.84C312.434 38.84 311.474 39.32 310.754 40.36C310.034 41.4 309.674 42.84 309.674 44.72C309.674 46.64 310.034 48.12 310.754 49.16C311.474 50.2 312.514 50.72 313.794 50.72C315.114 50.72 316.114 50.16 316.834 49.12C317.554 48.08 317.874 46.6 317.874 44.68C317.874 42.8 317.514 41.36 316.794 40.36C316.074 39.32 315.074 38.84 313.714 38.84ZM334.847 34.36V37.08C336.527 34.92 338.767 33.8 341.527 33.8C343.847 33.8 345.647 34.48 347.007 35.76C348.327 37.04 349.007 38.92 349.007 41.4V55H342.127V43.28C342.127 42.04 341.887 41.08 341.487 40.36C341.047 39.68 340.207 39.32 339.007 39.32C337.767 39.32 336.807 39.68 336.127 40.4C335.447 41.12 335.127 42.16 335.127 43.48V55H328.327V34.36H334.847ZM366.042 34.36L366.002 38.8H361.762V47.32C361.762 48.4 361.922 49.16 362.162 49.56C362.442 49.96 363.122 50.2 364.202 50.2C365.002 50.2 365.602 50.16 366.002 50.12V55.12C364.442 55.24 363.162 55.32 362.162 55.32C359.402 55.32 357.522 54.8 356.522 53.84C355.482 52.84 355.002 51 355.002 48.32V38.76H351.602V34.36H355.002V28.04H361.802V34.36H366.042ZM383.869 34.08V40.16C382.789 39.92 381.909 39.76 381.189 39.76C377.749 39.76 376.069 41.72 376.069 45.6V55H369.309V34.36H375.789L375.749 37.88C376.469 36.52 377.309 35.52 378.309 34.88C379.309 34.24 380.589 33.88 382.109 33.88C382.669 33.88 383.229 33.96 383.869 34.08ZM406.14 55H399.26C399.06 54.44 398.94 53.76 398.94 53.04C397.02 54.8 394.74 55.64 392.1 55.64C389.86 55.64 388.06 55.08 386.78 53.96C385.5 52.84 384.86 51.28 384.86 49.28C384.86 48.32 385.02 47.44 385.38 46.68C385.7 45.96 386.1 45.36 386.58 44.96C387.02 44.56 387.7 44.16 388.58 43.84C389.46 43.52 390.18 43.32 390.82 43.2C391.42 43.08 392.26 42.92 393.38 42.76C395.94 42.36 397.42 42.12 397.74 41.96C398.46 41.68 398.82 41.12 398.82 40.28C398.82 38.84 397.74 38.08 395.66 38.08C394.54 38.08 393.74 38.28 393.26 38.6C392.78 38.96 392.42 39.64 392.18 40.68H385.78C386.18 36.08 389.5 33.76 395.74 33.76C399.06 33.76 401.58 34.4 403.34 35.64C404.1 36.2 404.62 36.88 404.9 37.6C405.18 38.36 405.34 39.44 405.34 40.8V49.08C405.34 51.8 405.58 53.8 406.14 55ZM398.82 45.32C398.5 45.48 398.1 45.64 397.7 45.76C397.26 45.92 396.9 46 396.66 46.04C396.42 46.12 395.98 46.2 395.42 46.32C394.86 46.44 394.5 46.52 394.34 46.52C392.66 46.88 391.82 47.72 391.82 49.04C391.82 49.84 392.06 50.44 392.54 50.84C393.02 51.28 393.66 51.48 394.5 51.48C395.7 51.48 396.7 51.16 397.54 50.44C398.38 49.72 398.82 48.72 398.82 47.44V45.32ZM422.331 34.36L422.291 38.8H418.051V47.32C418.051 48.4 418.211 49.16 418.451 49.56C418.731 49.96 419.411 50.2 420.491 50.2C421.291 50.2 421.891 50.16 422.291 50.12V55.12C420.731 55.24 419.451 55.32 418.451 55.32C415.691 55.32 413.811 54.8 412.811 53.84C411.771 52.84 411.291 51 411.291 48.32V38.76H407.891V34.36H411.291V28.04H418.091V34.36H422.331ZM435.398 33.76C438.598 33.76 441.158 34.8 443.158 36.8C445.158 38.8 446.158 41.44 446.158 44.68C446.158 47.92 445.158 50.56 443.158 52.6C441.158 54.64 438.518 55.68 435.278 55.68C432.038 55.68 429.398 54.64 427.398 52.64C425.398 50.6 424.398 47.96 424.398 44.72C424.398 41.48 425.398 38.84 427.438 36.8C429.478 34.8 432.118 33.76 435.398 33.76ZM435.198 38.84C433.918 38.84 432.958 39.32 432.238 40.36C431.518 41.4 431.158 42.84 431.158 44.72C431.158 46.64 431.518 48.12 432.238 49.16C432.958 50.2 433.998 50.72 435.278 50.72C436.598 50.72 437.598 50.16 438.318 49.12C439.038 48.08 439.358 46.6 439.358 44.68C439.358 42.8 438.998 41.36 438.278 40.36C437.558 39.32 436.558 38.84 435.198 38.84ZM468.011 40.4H461.771C461.611 39.52 461.291 38.92 460.771 38.56C460.211 38.2 459.451 38 458.451 38C456.611 38 455.731 38.56 455.731 39.68C455.731 39.88 455.731 40.04 455.811 40.2C455.851 40.36 455.931 40.52 456.091 40.64C456.211 40.76 456.331 40.84 456.451 40.92C456.531 41 456.691 41.04 456.931 41.12C457.131 41.2 457.291 41.24 457.411 41.28C457.491 41.32 457.691 41.36 457.931 41.4C458.171 41.44 458.331 41.48 458.411 41.48C461.331 42.12 463.411 42.64 464.651 43.04C467.291 44 468.611 45.8 468.611 48.44C468.611 50.68 467.731 52.4 465.971 53.68C464.211 54.96 461.771 55.56 458.691 55.56C455.851 55.56 453.491 55 451.651 53.88C449.771 52.76 448.771 50.84 448.651 48.2H455.091C455.211 50.16 456.451 51.12 458.851 51.12C459.811 51.12 460.571 50.96 461.131 50.56C461.691 50.2 461.971 49.68 461.971 49C461.971 48.44 461.731 48.04 461.251 47.72C460.771 47.44 459.851 47.16 458.491 46.84C456.251 46.4 454.451 45.96 453.091 45.48C450.371 44.56 449.051 42.8 449.051 40.2C449.051 38.12 449.851 36.56 451.531 35.44C453.171 34.32 455.531 33.76 458.651 33.76C459.891 33.76 461.051 33.88 462.091 34.12C463.131 34.36 464.131 34.68 465.011 35.16C465.891 35.64 466.571 36.36 467.131 37.24C467.651 38.12 467.931 39.2 468.011 40.4Z" fill="#303030"/>
</g>
<rect x="0.5" y="0.5" width="1279" height="719" stroke="#3A3A3A"/>
<defs>
<clipPath id="clip0_252_141">
<rect width="1280" height="720" fill="white"/>
</clipPath>
<clipPath id="clip1_252_141">
<rect width="130.404" height="52" fill="white" transform="translate(66 12)"/>
</clipPath>
</defs>
</svg>
