<svg width="1280" height="720" viewBox="0 0 1280 720" fill="none" xmlns="http://www.w3.org/2000/svg">
<g clip-path="url(#clip0_243_74)">
<rect width="1280" height="720" fill="#EDEDED"/>
<rect x="1" y="1" width="260" height="720" fill="#3A3A3A"/>
<g clip-path="url(#clip1_243_74)">
<path d="M124.592 61.9351L113.418 42.5859C113.34 44.4639 112.834 46.2838 111.934 47.9214L111.956 47.9338L103.048 63.3599H123.769C124.264 63.3599 124.509 63.0274 124.592 62.885C124.675 62.7425 124.84 62.3635 124.592 61.9351Z" fill="#FC541F"/>
<path d="M96.4012 13.1156C96.1532 12.6872 95.7437 12.6406 95.5784 12.6406C95.4131 12.6406 95.0036 12.6872 94.7556 13.1156L66.5636 61.9349C66.3156 62.3633 66.4809 62.7423 66.5636 62.8848C66.6462 63.0272 66.8914 63.3597 67.3864 63.3597H74.9111L90.8536 35.7523L90.8774 35.7665C91.8749 34.1261 93.2488 32.7421 94.8934 31.7266C96.8829 30.4984 99.1783 29.8772 101.53 29.9247C103.431 29.9646 105.263 30.4434 106.907 31.3106L96.4002 13.1156H96.4012Z" fill="#FC541F"/>
<path d="M101.271 31.8213C95.614 31.8213 91.0117 36.4225 91.0117 42.0781C91.0117 47.7337 95.614 52.335 101.271 52.335C106.928 52.335 111.53 47.7337 111.53 42.0781C111.53 36.4225 106.928 31.8213 101.271 31.8213Z" fill="#FC541F"/>
<path d="M173.023 31.3066C172.655 30.7918 172.198 30.3339 171.65 29.934C171.103 29.5351 170.462 29.2188 169.726 28.987C169.431 28.9034 168.942 28.7714 168.258 28.5928C167.574 28.4142 166.874 28.2299 166.159 28.0409C165.444 27.8519 164.797 27.6781 164.218 27.5204C163.639 27.3627 163.308 27.2734 163.224 27.2525C162.424 27.0207 161.777 26.6797 161.283 26.2276C160.788 25.7754 160.541 25.1495 160.541 24.3506C160.541 23.7826 160.672 23.3095 160.935 22.9305C161.199 22.5515 161.529 22.2523 161.929 22.031C162.329 21.8097 162.771 21.652 163.255 21.558C163.738 21.463 164.211 21.4155 164.675 21.4155C166.042 21.4155 167.168 21.7156 168.052 22.315C168.935 22.9144 169.429 23.9403 169.535 25.3917H173.479C173.479 24.2138 173.248 23.1775 172.785 22.2837C172.322 21.3898 171.696 20.6375 170.908 20.0277C170.118 19.4179 169.203 18.96 168.162 18.6551C167.12 18.3502 166.011 18.1973 164.832 18.1973C163.822 18.1973 162.822 18.3284 161.833 18.5915C160.844 18.8555 159.961 19.2592 159.182 19.8064C158.403 20.3535 157.778 21.0422 157.304 21.8733C156.831 22.7045 156.594 23.6876 156.594 24.8237C156.594 25.4126 156.673 25.9911 156.831 26.5591C156.989 27.1271 157.257 27.6629 157.636 28.1682C158.015 28.6735 158.524 29.1304 159.166 29.5408C159.808 29.9511 160.612 30.2826 161.58 30.5344C163.138 30.9552 164.447 31.2971 165.51 31.5602C166.572 31.8234 167.503 32.1017 168.303 32.3961C168.766 32.5643 169.192 32.854 169.581 33.2643C169.97 33.6747 170.165 34.3111 170.165 35.1726C170.165 35.5934 170.08 36.0085 169.912 36.4189C169.744 36.8292 169.47 37.1921 169.091 37.5075C168.712 37.8228 168.218 38.0812 167.608 38.2807C166.997 38.4801 166.261 38.5799 165.399 38.5799C164.599 38.5799 163.857 38.4906 163.174 38.312C162.49 38.1334 161.884 37.8494 161.359 37.46C160.833 37.0705 160.422 36.5718 160.128 35.9611C159.833 35.3512 159.686 34.6151 159.686 33.7526H155.741C155.762 35.1413 156.025 36.3448 156.53 37.365C157.035 38.3852 157.708 39.2211 158.55 39.8736C159.391 40.5262 160.381 41.0097 161.516 41.325C162.652 41.6404 163.862 41.7981 165.145 41.7981C166.26 41.7981 167.354 41.667 168.427 41.4039C169.5 41.1408 170.457 40.7257 171.299 40.1576C172.14 39.5896 172.819 38.8591 173.335 37.9644C173.85 37.0705 174.108 35.9924 174.108 34.73C174.108 34.142 174.019 33.5521 173.84 32.9632C173.662 32.3743 173.388 31.8224 173.02 31.3066H173.023Z" fill="#EDEDED"/>
<path d="M152.242 21.1622C151.695 20.4679 150.917 19.8903 149.907 19.4268C148.897 18.9642 147.593 18.7324 145.994 18.7324H136.053V21.9506H145.836C146.361 21.9506 146.856 22.0038 147.319 22.1083C147.782 22.2137 148.192 22.4085 148.55 22.6925C148.907 22.9765 149.192 23.3603 149.402 23.8437C149.612 24.3282 149.718 24.938 149.718 25.6732C149.718 26.4084 149.596 26.9831 149.355 27.4562C149.113 27.9292 148.797 28.3082 148.409 28.5922C148.019 28.8762 147.593 29.0814 147.131 29.2077C146.668 29.3341 146.216 29.3968 145.774 29.3968H139.998V25.5307H136.054V41.2608H139.998V32.6159H145.994C147.593 32.6159 148.898 32.3899 149.908 31.9368C150.918 31.4846 151.696 30.9118 152.243 30.2175C152.79 29.5231 153.163 28.7717 153.363 27.9615C153.563 27.1522 153.664 26.3999 153.664 25.7055C153.664 25.0112 153.564 24.2541 153.363 23.4343C153.163 22.6136 152.79 21.8566 152.243 21.1622H152.242Z" fill="#EDEDED"/>
<path d="M193.004 32.3006H189.072H187.748H182.191L185.6 22.6146H185.694L187.823 28.7205H191.625L187.778 18.7334H183.58L174.933 41.2618H179.004L181.119 35.2984H190.113L192.227 41.2618H196.457L193.004 32.3006Z" fill="#EDEDED"/>
<path d="M136.052 52.043H137.143V58.2776H136.052V52.043Z" fill="#EDEDED"/>
<path d="M162.796 52.043H163.888V58.2776H162.796V52.043Z" fill="#EDEDED"/>
<path d="M172.224 52.043H176.713V52.9861H173.315V54.6189H176.459V55.5098H173.315V57.3344H176.774V58.2776H172.224V52.043Z" fill="#EDEDED"/>
<path d="M191.514 52.043H196.003V52.9861H192.605V54.6189H195.749V55.5098H192.605V57.3344H196.064V58.2776H191.514V52.043Z" fill="#EDEDED"/>
<path d="M157.188 52.043H158.279V57.3344H161.45V58.2776H157.188V52.043Z" fill="#EDEDED"/>
<path d="M189.066 54.0801C189.019 53.9078 188.955 53.7492 188.874 53.605C188.792 53.4609 188.688 53.3358 188.559 53.2297C188.431 53.1245 188.281 53.042 188.11 52.984C187.938 52.926 187.739 52.8961 187.511 52.8961C187.18 52.8961 186.893 52.9604 186.652 53.0883C186.41 53.2161 186.214 53.3874 186.062 53.6005C185.911 53.8144 185.798 54.0574 185.725 54.3294C185.652 54.6014 185.616 54.8797 185.616 55.1625C185.616 55.4454 185.652 55.7237 185.725 55.9957C185.798 56.2677 185.911 56.5115 186.062 56.7246C186.213 56.9385 186.409 57.109 186.652 57.2368C186.893 57.3646 187.18 57.4281 187.511 57.4281C187.756 57.4281 187.971 57.3882 188.158 57.3075C188.344 57.2268 188.504 57.1162 188.638 56.9739C188.772 56.8325 188.877 56.6666 188.953 56.478C189.029 56.2894 189.078 56.0864 189.101 55.8697H190.166C190.142 56.2251 190.062 56.5505 189.926 56.8443C189.789 57.1389 189.604 57.3927 189.371 57.6067C189.138 57.8207 188.864 57.9857 188.55 58.1026C188.235 58.2196 187.889 58.2776 187.511 58.2776C187.045 58.2776 186.627 58.1951 186.257 58.0319C185.888 57.8678 185.574 57.6439 185.319 57.361C185.062 57.0773 184.865 56.7473 184.73 56.3692C184.593 55.9912 184.524 55.5886 184.524 55.1607C184.524 54.7328 184.593 54.3385 184.73 53.9604C184.866 53.5824 185.063 53.2524 185.319 52.9686C185.575 52.6848 185.888 52.46 186.257 52.2932C186.627 52.1264 187.045 52.043 187.511 52.043C187.86 52.043 188.189 52.0883 188.498 52.1808C188.806 52.2723 189.078 52.4056 189.314 52.5806C189.549 52.7555 189.74 52.9686 189.886 53.2179C190.031 53.4681 190.121 53.7546 190.157 54.0764H189.065L189.066 54.0801Z" fill="#EDEDED"/>
<path d="M138.49 52.043H139.643L142.49 56.6353H142.507V52.043H143.547V58.2776H142.394L139.556 53.6938H139.53V58.2776H138.49V52.043Z" fill="#EDEDED"/>
<path d="M178.121 52.043H179.274L182.121 56.6353H182.138V52.043H183.177V58.2776H182.025L179.187 53.6938H179.16V58.2776H178.121V52.043Z" fill="#EDEDED"/>
<path d="M144.893 52.043H150.012V52.9804H148.001V58.2399H146.894V52.9804H144.893V52.043Z" fill="#EDEDED"/>
<path d="M151.29 52.043H155.779V52.9861H152.382V54.6189H155.526V55.5098H152.382V57.3344H155.84V58.2776H151.29V52.043Z" fill="#EDEDED"/>
<path d="M169.777 54.0801C169.73 53.9078 169.666 53.7492 169.585 53.605C169.503 53.4609 169.399 53.3358 169.27 53.2297C169.142 53.1245 168.992 53.042 168.821 52.984C168.649 52.926 168.45 52.8961 168.222 52.8961C167.891 52.8961 167.604 52.9604 167.363 53.0883C167.121 53.2161 166.925 53.3874 166.773 53.6005C166.622 53.8144 166.509 54.0574 166.436 54.3294C166.363 54.6014 166.327 54.8797 166.327 55.1625C166.327 55.4454 166.363 55.7237 166.436 55.9957C166.509 56.2677 166.622 56.5115 166.773 56.7246C166.924 56.9385 167.12 57.109 167.363 57.2368C167.604 57.3646 167.891 57.4281 168.222 57.4281C168.467 57.4281 168.682 57.3882 168.869 57.3075C169.055 57.2268 169.215 57.1162 169.349 56.9739C169.483 56.8325 169.588 56.6666 169.664 56.478C169.74 56.2894 169.754 56.2796 169.777 56.0629H168.5V55.6772V55.2915H169.812H170.386H170.877V55.8697C170.853 56.2251 170.773 56.5505 170.637 56.8443C170.5 57.1389 170.315 57.3927 170.082 57.6067C169.849 57.8207 169.575 57.9857 169.261 58.1026C168.946 58.2196 168.6 58.2776 168.221 58.2776C167.756 58.2776 167.338 58.1951 166.968 58.0319C166.599 57.8678 166.285 57.6439 166.03 57.361C165.773 57.0773 165.576 56.7473 165.441 56.3692C165.304 55.9912 165.235 55.5886 165.235 55.1607C165.235 54.7328 165.304 54.3385 165.441 53.9604C165.577 53.5824 165.774 53.2524 166.03 52.9686C166.286 52.6848 166.599 52.46 166.968 52.2932C167.338 52.1264 167.756 52.043 168.221 52.043C168.571 52.043 168.9 52.0883 169.209 52.1808C169.517 52.2723 169.789 52.4056 170.025 52.5806C170.26 52.7555 170.451 52.9686 170.597 53.2179C170.742 53.4681 170.832 53.7546 170.867 54.0764H169.776L169.777 54.0801Z" fill="#EDEDED"/>
</g>
<path d="M291.803 42.88H299.203C299.163 44 299.043 44.84 298.883 45.48C298.723 46.12 298.363 46.92 297.883 47.92C295.643 52.44 291.723 54.68 286.123 54.68C281.763 54.68 278.283 53.28 275.723 50.48C273.163 47.68 271.883 44.08 271.883 39.68C271.883 35.32 273.203 31.76 275.883 29C278.523 26.24 282.003 24.84 286.243 24.84C289.563 24.84 292.483 25.84 294.963 27.76C297.443 29.72 298.803 32.32 299.043 35.56H291.723C291.083 32.6 289.203 31.08 286.083 31.08C284.043 31.08 282.403 31.88 281.203 33.48C280.003 35.08 279.403 37.2 279.403 39.84C279.403 42.44 280.003 44.52 281.203 46.04C282.403 47.6 284.043 48.36 286.083 48.36C289.363 48.36 291.243 46.56 291.803 42.88ZM312.875 32.76C316.075 32.76 318.635 33.8 320.635 35.8C322.635 37.8 323.635 40.44 323.635 43.68C323.635 46.92 322.635 49.56 320.635 51.6C318.635 53.64 315.995 54.68 312.755 54.68C309.515 54.68 306.875 53.64 304.875 51.64C302.875 49.6 301.875 46.96 301.875 43.72C301.875 40.48 302.875 37.84 304.915 35.8C306.955 33.8 309.595 32.76 312.875 32.76ZM312.675 37.84C311.395 37.84 310.435 38.32 309.715 39.36C308.995 40.4 308.635 41.84 308.635 43.72C308.635 45.64 308.995 47.12 309.715 48.16C310.435 49.2 311.475 49.72 312.755 49.72C314.075 49.72 315.075 49.16 315.795 48.12C316.515 47.08 316.835 45.6 316.835 43.68C316.835 41.8 316.475 40.36 315.755 39.36C315.035 38.32 314.035 37.84 312.675 37.84ZM333.808 33.36V36.08C335.488 33.92 337.728 32.8 340.488 32.8C342.808 32.8 344.608 33.48 345.968 34.76C347.288 36.04 347.968 37.92 347.968 40.4V54H341.088V42.28C341.088 41.04 340.848 40.08 340.448 39.36C340.008 38.68 339.168 38.32 337.968 38.32C336.728 38.32 335.768 38.68 335.088 39.4C334.408 40.12 334.088 41.16 334.088 42.48V54H327.288V33.36H333.808ZM365.003 33.36L364.963 37.8H360.723V46.32C360.723 47.4 360.883 48.16 361.123 48.56C361.403 48.96 362.083 49.2 363.163 49.2C363.963 49.2 364.563 49.16 364.963 49.12V54.12C363.403 54.24 362.123 54.32 361.123 54.32C358.363 54.32 356.483 53.8 355.483 52.84C354.443 51.84 353.963 50 353.963 47.32V37.76H350.563V33.36H353.963V27.04H360.763V33.36H365.003ZM388.07 54H381.19C380.99 53.44 380.87 52.76 380.87 52.04C378.95 53.8 376.67 54.64 374.03 54.64C371.79 54.64 369.99 54.08 368.71 52.96C367.43 51.84 366.79 50.28 366.79 48.28C366.79 47.32 366.95 46.44 367.31 45.68C367.63 44.96 368.03 44.36 368.51 43.96C368.95 43.56 369.63 43.16 370.51 42.84C371.39 42.52 372.11 42.32 372.75 42.2C373.35 42.08 374.19 41.92 375.31 41.76C377.87 41.36 379.35 41.12 379.67 40.96C380.39 40.68 380.75 40.12 380.75 39.28C380.75 37.84 379.67 37.08 377.59 37.08C376.47 37.08 375.67 37.28 375.19 37.6C374.71 37.96 374.35 38.64 374.11 39.68H367.71C368.11 35.08 371.43 32.76 377.67 32.76C380.99 32.76 383.51 33.4 385.27 34.64C386.03 35.2 386.55 35.88 386.83 36.6C387.11 37.36 387.27 38.44 387.27 39.8V48.08C387.27 50.8 387.51 52.8 388.07 54ZM380.75 44.32C380.43 44.48 380.03 44.64 379.63 44.76C379.19 44.92 378.83 45 378.59 45.04C378.35 45.12 377.91 45.2 377.35 45.32C376.79 45.44 376.43 45.52 376.27 45.52C374.59 45.88 373.75 46.72 373.75 48.04C373.75 48.84 373.99 49.44 374.47 49.84C374.95 50.28 375.59 50.48 376.43 50.48C377.63 50.48 378.63 50.16 379.47 49.44C380.31 48.72 380.75 47.72 380.75 46.44V44.32ZM409.941 39.4H403.701C403.541 38.52 403.221 37.92 402.701 37.56C402.141 37.2 401.381 37 400.381 37C398.541 37 397.661 37.56 397.661 38.68C397.661 38.88 397.661 39.04 397.741 39.2C397.781 39.36 397.861 39.52 398.021 39.64C398.141 39.76 398.261 39.84 398.381 39.92C398.461 40 398.621 40.04 398.861 40.12C399.061 40.2 399.221 40.24 399.341 40.28C399.421 40.32 399.621 40.36 399.861 40.4C400.101 40.44 400.261 40.48 400.341 40.48C403.261 41.12 405.341 41.64 406.581 42.04C409.221 43 410.541 44.8 410.541 47.44C410.541 49.68 409.661 51.4 407.901 52.68C406.141 53.96 403.701 54.56 400.621 54.56C397.781 54.56 395.421 54 393.581 52.88C391.701 51.76 390.701 49.84 390.581 47.2H397.021C397.141 49.16 398.381 50.12 400.781 50.12C401.741 50.12 402.501 49.96 403.061 49.56C403.621 49.2 403.901 48.68 403.901 48C403.901 47.44 403.661 47.04 403.181 46.72C402.701 46.44 401.781 46.16 400.421 45.84C398.181 45.4 396.381 44.96 395.021 44.48C392.301 43.56 390.981 41.8 390.981 39.2C390.981 37.12 391.781 35.56 393.461 34.44C395.101 33.32 397.461 32.76 400.581 32.76C401.821 32.76 402.981 32.88 404.021 33.12C405.061 33.36 406.061 33.68 406.941 34.16C407.821 34.64 408.501 35.36 409.061 36.24C409.581 37.12 409.861 38.2 409.941 39.4ZM446.625 54H439.745C439.545 53.44 439.425 52.76 439.425 52.04C437.505 53.8 435.225 54.64 432.585 54.64C430.345 54.64 428.545 54.08 427.265 52.96C425.985 51.84 425.345 50.28 425.345 48.28C425.345 47.32 425.505 46.44 425.865 45.68C426.185 44.96 426.585 44.36 427.065 43.96C427.505 43.56 428.185 43.16 429.065 42.84C429.945 42.52 430.665 42.32 431.305 42.2C431.905 42.08 432.745 41.92 433.865 41.76C436.425 41.36 437.905 41.12 438.225 40.96C438.945 40.68 439.305 40.12 439.305 39.28C439.305 37.84 438.225 37.08 436.145 37.08C435.025 37.08 434.225 37.28 433.745 37.6C433.265 37.96 432.905 38.64 432.665 39.68H426.265C426.665 35.08 429.985 32.76 436.225 32.76C439.545 32.76 442.065 33.4 443.825 34.64C444.585 35.2 445.105 35.88 445.385 36.6C445.665 37.36 445.825 38.44 445.825 39.8V48.08C445.825 50.8 446.065 52.8 446.625 54ZM439.305 44.32C438.985 44.48 438.585 44.64 438.185 44.76C437.745 44.92 437.385 45 437.145 45.04C436.905 45.12 436.465 45.2 435.905 45.32C435.345 45.44 434.985 45.52 434.825 45.52C433.145 45.88 432.305 46.72 432.305 48.04C432.305 48.84 432.545 49.44 433.025 49.84C433.505 50.28 434.145 50.48 434.985 50.48C436.185 50.48 437.185 50.16 438.025 49.44C438.865 48.72 439.305 47.72 439.305 46.44V44.32ZM463.113 54V25.52H477.953C480.753 25.52 483.073 26.24 484.873 27.64C486.673 29.04 487.593 31.08 487.593 33.76C487.593 37.08 486.113 39.4 483.193 40.72C485.073 41.36 486.273 42.6 486.793 44.4C487.113 45.6 487.433 47.6 487.673 50.44C487.673 50.52 487.673 50.72 487.713 51C487.713 51.28 487.753 51.48 487.753 51.56C487.753 51.68 487.793 51.84 487.833 52.08C487.833 52.32 487.873 52.48 487.913 52.6C487.953 52.72 487.993 52.88 488.073 53.04C488.113 53.24 488.193 53.4 488.273 53.56C488.353 53.72 488.473 53.84 488.593 54H481.033C480.793 53.52 480.633 52.92 480.553 52.28C480.433 51.64 480.353 50.84 480.313 49.88C480.233 48.96 480.193 48.36 480.193 48.04C479.993 46.36 479.513 45.16 478.793 44.44C478.033 43.76 476.793 43.4 475.113 43.4H470.553V54H463.113ZM470.553 38.12H475.793C477.193 38.12 478.273 37.88 479.073 37.4C479.873 36.92 480.273 36 480.273 34.6C480.273 32.4 478.753 31.28 475.713 31.28H470.553V38.12ZM512.82 45.32H497.46C497.46 46.84 497.9 48.04 498.74 48.88C499.58 49.72 500.74 50.12 502.18 50.12C503.86 50.12 505.18 49.32 506.06 47.72H512.42C511.74 49.96 510.5 51.64 508.7 52.84C506.9 54.04 504.7 54.64 502.1 54.64C498.82 54.64 496.1 53.68 493.98 51.76C491.86 49.84 490.82 47.2 490.82 43.92C490.82 40.68 491.82 38.04 493.9 35.96C495.94 33.88 498.58 32.84 501.86 32.84C505.22 32.84 507.9 33.92 509.86 36.04C511.82 38.16 512.82 41.04 512.82 44.72V45.32ZM506.14 41.44C506.02 40.24 505.58 39.24 504.86 38.52C504.14 37.8 503.14 37.4 501.9 37.4C499.42 37.4 497.94 38.76 497.54 41.44H506.14ZM530.073 45.88L536.553 45.92C536.193 48.68 535.113 50.8 533.313 52.32C531.513 53.8 529.113 54.56 526.113 54.56C522.913 54.56 520.313 53.56 518.313 51.6C516.313 49.64 515.313 47.08 515.313 43.88C515.313 40.56 516.313 37.88 518.313 35.84C520.313 33.84 522.953 32.8 526.233 32.8C529.113 32.8 531.513 33.56 533.353 35C535.193 36.48 536.233 38.44 536.393 40.88H529.833C529.673 39.88 529.313 39.12 528.673 38.56C528.033 38 527.273 37.72 526.313 37.72C524.993 37.72 523.953 38.28 523.233 39.32C522.513 40.4 522.153 41.88 522.153 43.8C522.153 45.64 522.513 47.04 523.233 48C523.953 49 524.953 49.48 526.313 49.48C528.393 49.48 529.633 48.28 530.073 45.88ZM560.984 45.32H545.624C545.624 46.84 546.064 48.04 546.904 48.88C547.744 49.72 548.904 50.12 550.344 50.12C552.024 50.12 553.344 49.32 554.224 47.72H560.584C559.904 49.96 558.664 51.64 556.864 52.84C555.064 54.04 552.864 54.64 550.264 54.64C546.984 54.64 544.264 53.68 542.144 51.76C540.024 49.84 538.984 47.2 538.984 43.92C538.984 40.68 539.984 38.04 542.064 35.96C544.104 33.88 546.744 32.84 550.024 32.84C553.384 32.84 556.064 33.92 558.024 36.04C559.984 38.16 560.984 41.04 560.984 44.72V45.32ZM554.304 41.44C554.184 40.24 553.744 39.24 553.024 38.52C552.304 37.8 551.304 37.4 550.064 37.4C547.584 37.4 546.104 38.76 545.704 41.44H554.304ZM571.117 25.52L571.077 35.76C572.837 33.84 574.877 32.88 577.157 32.88C579.797 32.88 581.957 33.88 583.637 35.96C585.157 37.84 585.917 40.36 585.917 43.52C585.917 46.84 585.077 49.52 583.397 51.52C581.717 53.52 579.477 54.56 576.717 54.6C575.357 54.6 574.237 54.36 573.397 53.88C572.557 53.4 571.717 52.64 570.837 51.56V54H564.357V25.52H571.117ZM574.997 38.08C573.757 38.08 572.757 38.56 572.037 39.56C571.277 40.52 570.917 41.84 570.917 43.52C570.917 45.28 571.277 46.64 571.997 47.64C572.717 48.64 573.757 49.16 575.077 49.16C576.317 49.16 577.317 48.64 578.037 47.64C578.757 46.6 579.117 45.24 579.117 43.52C579.117 41.84 578.717 40.52 577.997 39.56C577.237 38.56 576.237 38.08 574.997 38.08ZM610.633 45.32H595.273C595.273 46.84 595.713 48.04 596.553 48.88C597.393 49.72 598.553 50.12 599.993 50.12C601.673 50.12 602.993 49.32 603.873 47.72H610.233C609.553 49.96 608.313 51.64 606.513 52.84C604.713 54.04 602.513 54.64 599.913 54.64C596.633 54.64 593.913 53.68 591.793 51.76C589.673 49.84 588.632 47.2 588.632 43.92C588.632 40.68 589.633 38.04 591.713 35.96C593.753 33.88 596.393 32.84 599.673 32.84C603.033 32.84 605.713 33.92 607.673 36.04C609.633 38.16 610.633 41.04 610.633 44.72V45.32ZM603.953 41.44C603.833 40.24 603.393 39.24 602.673 38.52C601.953 37.8 600.953 37.4 599.713 37.4C597.233 37.4 595.753 38.76 595.353 41.44H603.953ZM628.846 33.08V39.16C627.766 38.92 626.886 38.76 626.166 38.76C622.726 38.76 621.046 40.72 621.046 44.6V54H614.286V33.36H620.766L620.726 36.88C621.446 35.52 622.286 34.52 623.286 33.88C624.286 33.24 625.566 32.88 627.086 32.88C627.646 32.88 628.206 32.96 628.846 33.08Z" fill="#303030"/>
</g>
<rect x="0.5" y="0.5" width="1279" height="719" stroke="#3A3A3A"/>
<defs>
<clipPath id="clip0_243_74">
<rect width="1280" height="720" fill="white"/>
</clipPath>
<clipPath id="clip1_243_74">
<rect width="130.404" height="52" fill="white" transform="translate(66 12)"/>
</clipPath>
</defs>
</svg>
