<svg width="1280" height="1000" viewBox="0 0 1280 1000" fill="none" xmlns="http://www.w3.org/2000/svg">
<g clip-path="url(#clip0_236_141)">
<rect width="1280" height="1000" fill="#EDEDED"/>
<rect x="1" y="1" width="260" height="1000" fill="#3A3A3A"/>
<g clip-path="url(#clip1_236_141)">
<path d="M124.592 61.9351L113.418 42.5859C113.34 44.4639 112.834 46.2838 111.934 47.9214L111.956 47.9338L103.048 63.3599H123.769C124.264 63.3599 124.509 63.0274 124.592 62.885C124.675 62.7425 124.84 62.3635 124.592 61.9351Z" fill="#FC541F"/>
<path d="M96.4012 13.1156C96.1532 12.6872 95.7437 12.6406 95.5784 12.6406C95.4131 12.6406 95.0036 12.6872 94.7556 13.1156L66.5636 61.9349C66.3156 62.3633 66.4809 62.7423 66.5636 62.8848C66.6462 63.0272 66.8914 63.3597 67.3864 63.3597H74.9111L90.8536 35.7523L90.8774 35.7665C91.8749 34.1261 93.2488 32.7421 94.8934 31.7266C96.8829 30.4984 99.1783 29.8772 101.53 29.9247C103.431 29.9646 105.263 30.4434 106.907 31.3106L96.4002 13.1156H96.4012Z" fill="#FC541F"/>
<path d="M101.271 31.8213C95.614 31.8213 91.0117 36.4225 91.0117 42.0781C91.0117 47.7337 95.614 52.335 101.271 52.335C106.928 52.335 111.53 47.7337 111.53 42.0781C111.53 36.4225 106.928 31.8213 101.271 31.8213Z" fill="#FC541F"/>
<path d="M173.023 31.3066C172.655 30.7918 172.198 30.3339 171.65 29.934C171.103 29.5351 170.462 29.2188 169.726 28.987C169.431 28.9034 168.942 28.7714 168.258 28.5928C167.574 28.4142 166.874 28.2299 166.159 28.0409C165.444 27.8519 164.797 27.6781 164.218 27.5204C163.639 27.3627 163.308 27.2734 163.224 27.2525C162.424 27.0207 161.777 26.6797 161.283 26.2276C160.788 25.7754 160.541 25.1495 160.541 24.3506C160.541 23.7826 160.672 23.3095 160.935 22.9305C161.199 22.5515 161.529 22.2523 161.929 22.031C162.329 21.8097 162.771 21.652 163.255 21.558C163.738 21.463 164.211 21.4155 164.675 21.4155C166.042 21.4155 167.168 21.7156 168.052 22.315C168.935 22.9144 169.429 23.9403 169.535 25.3917H173.479C173.479 24.2138 173.248 23.1775 172.785 22.2837C172.322 21.3898 171.696 20.6375 170.908 20.0277C170.118 19.4179 169.203 18.96 168.162 18.6551C167.12 18.3502 166.011 18.1973 164.832 18.1973C163.822 18.1973 162.822 18.3284 161.833 18.5915C160.844 18.8555 159.961 19.2592 159.182 19.8064C158.403 20.3535 157.778 21.0422 157.304 21.8733C156.831 22.7045 156.594 23.6876 156.594 24.8237C156.594 25.4126 156.673 25.9911 156.831 26.5591C156.989 27.1271 157.257 27.6629 157.636 28.1682C158.015 28.6735 158.524 29.1304 159.166 29.5408C159.808 29.9511 160.612 30.2826 161.58 30.5344C163.138 30.9552 164.447 31.2971 165.51 31.5602C166.572 31.8234 167.503 32.1017 168.303 32.3961C168.766 32.5643 169.192 32.854 169.581 33.2643C169.97 33.6747 170.165 34.3111 170.165 35.1726C170.165 35.5934 170.08 36.0085 169.912 36.4189C169.744 36.8292 169.47 37.1921 169.091 37.5075C168.712 37.8228 168.218 38.0812 167.608 38.2807C166.997 38.4801 166.261 38.5799 165.399 38.5799C164.599 38.5799 163.857 38.4906 163.174 38.312C162.49 38.1334 161.884 37.8494 161.359 37.46C160.833 37.0705 160.422 36.5718 160.128 35.9611C159.833 35.3512 159.686 34.6151 159.686 33.7526H155.741C155.762 35.1413 156.025 36.3448 156.53 37.365C157.035 38.3852 157.708 39.2211 158.55 39.8736C159.391 40.5262 160.381 41.0097 161.516 41.325C162.652 41.6404 163.862 41.7981 165.145 41.7981C166.26 41.7981 167.354 41.667 168.427 41.4039C169.5 41.1408 170.457 40.7257 171.299 40.1576C172.14 39.5896 172.819 38.8591 173.335 37.9644C173.85 37.0705 174.108 35.9924 174.108 34.73C174.108 34.142 174.019 33.5521 173.84 32.9632C173.662 32.3743 173.388 31.8224 173.02 31.3066H173.023Z" fill="#EDEDED"/>
<path d="M152.242 21.1622C151.695 20.4679 150.917 19.8903 149.907 19.4268C148.897 18.9642 147.593 18.7324 145.994 18.7324H136.053V21.9506H145.836C146.361 21.9506 146.856 22.0038 147.319 22.1083C147.782 22.2137 148.192 22.4085 148.55 22.6925C148.907 22.9765 149.192 23.3603 149.402 23.8437C149.612 24.3282 149.718 24.938 149.718 25.6732C149.718 26.4084 149.596 26.9831 149.355 27.4562C149.113 27.9292 148.797 28.3082 148.409 28.5922C148.019 28.8762 147.593 29.0814 147.131 29.2077C146.668 29.3341 146.216 29.3968 145.774 29.3968H139.998V25.5307H136.054V41.2608H139.998V32.6159H145.994C147.593 32.6159 148.898 32.3899 149.908 31.9368C150.918 31.4846 151.696 30.9118 152.243 30.2175C152.79 29.5231 153.163 28.7717 153.363 27.9615C153.563 27.1522 153.664 26.3999 153.664 25.7055C153.664 25.0112 153.564 24.2541 153.363 23.4343C153.163 22.6136 152.79 21.8566 152.243 21.1622H152.242Z" fill="#EDEDED"/>
<path d="M193.004 32.3006H189.072H187.748H182.191L185.6 22.6146H185.694L187.823 28.7205H191.625L187.778 18.7334H183.58L174.933 41.2618H179.004L181.119 35.2984H190.113L192.227 41.2618H196.457L193.004 32.3006Z" fill="#EDEDED"/>
<path d="M136.052 52.043H137.143V58.2776H136.052V52.043Z" fill="#EDEDED"/>
<path d="M162.796 52.043H163.888V58.2776H162.796V52.043Z" fill="#EDEDED"/>
<path d="M172.224 52.043H176.713V52.9861H173.315V54.6189H176.459V55.5098H173.315V57.3344H176.774V58.2776H172.224V52.043Z" fill="#EDEDED"/>
<path d="M191.514 52.043H196.003V52.9861H192.605V54.6189H195.749V55.5098H192.605V57.3344H196.064V58.2776H191.514V52.043Z" fill="#EDEDED"/>
<path d="M157.188 52.043H158.279V57.3344H161.45V58.2776H157.188V52.043Z" fill="#EDEDED"/>
<path d="M189.066 54.0801C189.019 53.9078 188.955 53.7492 188.874 53.605C188.792 53.4609 188.688 53.3358 188.559 53.2297C188.431 53.1245 188.281 53.042 188.11 52.984C187.938 52.926 187.739 52.8961 187.511 52.8961C187.18 52.8961 186.893 52.9604 186.652 53.0883C186.41 53.2161 186.214 53.3874 186.062 53.6005C185.911 53.8144 185.798 54.0574 185.725 54.3294C185.652 54.6014 185.616 54.8797 185.616 55.1625C185.616 55.4454 185.652 55.7237 185.725 55.9957C185.798 56.2677 185.911 56.5115 186.062 56.7246C186.213 56.9385 186.409 57.109 186.652 57.2368C186.893 57.3646 187.18 57.4281 187.511 57.4281C187.756 57.4281 187.971 57.3882 188.158 57.3075C188.344 57.2268 188.504 57.1162 188.638 56.9739C188.772 56.8325 188.877 56.6666 188.953 56.478C189.029 56.2894 189.078 56.0864 189.101 55.8697H190.166C190.142 56.2251 190.062 56.5505 189.926 56.8443C189.789 57.1389 189.604 57.3927 189.371 57.6067C189.138 57.8207 188.864 57.9857 188.55 58.1026C188.235 58.2196 187.889 58.2776 187.511 58.2776C187.045 58.2776 186.627 58.1951 186.257 58.0319C185.888 57.8678 185.574 57.6439 185.319 57.361C185.062 57.0773 184.865 56.7473 184.73 56.3692C184.593 55.9912 184.524 55.5886 184.524 55.1607C184.524 54.7328 184.593 54.3385 184.73 53.9604C184.866 53.5824 185.063 53.2524 185.319 52.9686C185.575 52.6848 185.888 52.46 186.257 52.2932C186.627 52.1264 187.045 52.043 187.511 52.043C187.86 52.043 188.189 52.0883 188.498 52.1808C188.806 52.2723 189.078 52.4056 189.314 52.5806C189.549 52.7555 189.74 52.9686 189.886 53.2179C190.031 53.4681 190.121 53.7546 190.157 54.0764H189.065L189.066 54.0801Z" fill="#EDEDED"/>
<path d="M138.49 52.043H139.643L142.49 56.6353H142.507V52.043H143.547V58.2776H142.394L139.556 53.6938H139.53V58.2776H138.49V52.043Z" fill="#EDEDED"/>
<path d="M178.121 52.043H179.274L182.121 56.6353H182.138V52.043H183.177V58.2776H182.025L179.187 53.6938H179.16V58.2776H178.121V52.043Z" fill="#EDEDED"/>
<path d="M144.893 52.043H150.012V52.9804H148.001V58.2399H146.894V52.9804H144.893V52.043Z" fill="#EDEDED"/>
<path d="M151.29 52.043H155.779V52.9861H152.382V54.6189H155.526V55.5098H152.382V57.3344H155.84V58.2776H151.29V52.043Z" fill="#EDEDED"/>
<path d="M169.777 54.0801C169.73 53.9078 169.666 53.7492 169.585 53.605C169.503 53.4609 169.399 53.3358 169.27 53.2297C169.142 53.1245 168.992 53.042 168.821 52.984C168.649 52.926 168.45 52.8961 168.222 52.8961C167.891 52.8961 167.604 52.9604 167.363 53.0883C167.121 53.2161 166.925 53.3874 166.773 53.6005C166.622 53.8144 166.509 54.0574 166.436 54.3294C166.363 54.6014 166.327 54.8797 166.327 55.1625C166.327 55.4454 166.363 55.7237 166.436 55.9957C166.509 56.2677 166.622 56.5115 166.773 56.7246C166.924 56.9385 167.12 57.109 167.363 57.2368C167.604 57.3646 167.891 57.4281 168.222 57.4281C168.467 57.4281 168.682 57.3882 168.869 57.3075C169.055 57.2268 169.215 57.1162 169.349 56.9739C169.483 56.8325 169.588 56.6666 169.664 56.478C169.74 56.2894 169.754 56.2796 169.777 56.0629H168.5V55.6772V55.2915H169.812H170.386H170.877V55.8697C170.853 56.2251 170.773 56.5505 170.637 56.8443C170.5 57.1389 170.315 57.3927 170.082 57.6067C169.849 57.8207 169.575 57.9857 169.261 58.1026C168.946 58.2196 168.6 58.2776 168.221 58.2776C167.756 58.2776 167.338 58.1951 166.968 58.0319C166.599 57.8678 166.285 57.6439 166.03 57.361C165.773 57.0773 165.576 56.7473 165.441 56.3692C165.304 55.9912 165.235 55.5886 165.235 55.1607C165.235 54.7328 165.304 54.3385 165.441 53.9604C165.577 53.5824 165.774 53.2524 166.03 52.9686C166.286 52.6848 166.599 52.46 166.968 52.2932C167.338 52.1264 167.756 52.043 168.221 52.043C168.571 52.043 168.9 52.0883 169.209 52.1808C169.517 52.2723 169.789 52.4056 170.025 52.5806C170.26 52.7555 170.451 52.9686 170.597 53.2179C170.742 53.4681 170.832 53.7546 170.867 54.0764H169.776L169.777 54.0801Z" fill="#EDEDED"/>
</g>
<path d="M291.741 42.88H299.141C299.101 44 298.981 44.84 298.821 45.48C298.661 46.12 298.301 46.92 297.821 47.92C295.581 52.44 291.661 54.68 286.061 54.68C281.701 54.68 278.221 53.28 275.661 50.48C273.101 47.68 271.821 44.08 271.821 39.68C271.821 35.32 273.141 31.76 275.821 29C278.461 26.24 281.941 24.84 286.181 24.84C289.501 24.84 292.421 25.84 294.901 27.76C297.381 29.72 298.741 32.32 298.981 35.56H291.661C291.021 32.6 289.141 31.08 286.021 31.08C283.981 31.08 282.341 31.88 281.141 33.48C279.941 35.08 279.341 37.2 279.341 39.84C279.341 42.44 279.941 44.52 281.141 46.04C282.341 47.6 283.981 48.36 286.021 48.36C289.301 48.36 291.181 46.56 291.741 42.88ZM312.812 32.76C316.012 32.76 318.572 33.8 320.572 35.8C322.572 37.8 323.572 40.44 323.572 43.68C323.572 46.92 322.572 49.56 320.572 51.6C318.572 53.64 315.932 54.68 312.692 54.68C309.452 54.68 306.812 53.64 304.812 51.64C302.812 49.6 301.812 46.96 301.812 43.72C301.812 40.48 302.812 37.84 304.852 35.8C306.892 33.8 309.532 32.76 312.812 32.76ZM312.612 37.84C311.332 37.84 310.372 38.32 309.652 39.36C308.932 40.4 308.572 41.84 308.572 43.72C308.572 45.64 308.932 47.12 309.652 48.16C310.372 49.2 311.412 49.72 312.692 49.72C314.012 49.72 315.012 49.16 315.732 48.12C316.452 47.08 316.772 45.6 316.772 43.68C316.772 41.8 316.412 40.36 315.692 39.36C314.972 38.32 313.972 37.84 312.612 37.84ZM333.745 33.36V36.08C335.425 33.92 337.665 32.8 340.425 32.8C342.745 32.8 344.545 33.48 345.905 34.76C347.225 36.04 347.905 37.92 347.905 40.4V54H341.025V42.28C341.025 41.04 340.785 40.08 340.385 39.36C339.945 38.68 339.105 38.32 337.905 38.32C336.665 38.32 335.705 38.68 335.025 39.4C334.345 40.12 334.025 41.16 334.025 42.48V54H327.225V33.36H333.745ZM364.941 33.36L364.901 37.8H360.661V46.32C360.661 47.4 360.821 48.16 361.061 48.56C361.341 48.96 362.021 49.2 363.101 49.2C363.901 49.2 364.501 49.16 364.901 49.12V54.12C363.341 54.24 362.061 54.32 361.061 54.32C358.301 54.32 356.421 53.8 355.421 52.84C354.381 51.84 353.901 50 353.901 47.32V37.76H350.501V33.36H353.901V27.04H360.701V33.36H364.941ZM388.008 54H381.128C380.928 53.44 380.808 52.76 380.808 52.04C378.888 53.8 376.608 54.64 373.968 54.64C371.728 54.64 369.928 54.08 368.648 52.96C367.368 51.84 366.728 50.28 366.728 48.28C366.728 47.32 366.888 46.44 367.248 45.68C367.568 44.96 367.968 44.36 368.448 43.96C368.888 43.56 369.568 43.16 370.448 42.84C371.328 42.52 372.048 42.32 372.688 42.2C373.288 42.08 374.128 41.92 375.248 41.76C377.808 41.36 379.288 41.12 379.608 40.96C380.328 40.68 380.688 40.12 380.688 39.28C380.688 37.84 379.608 37.08 377.528 37.08C376.408 37.08 375.608 37.28 375.128 37.6C374.648 37.96 374.288 38.64 374.048 39.68H367.648C368.048 35.08 371.368 32.76 377.608 32.76C380.928 32.76 383.448 33.4 385.208 34.64C385.968 35.2 386.488 35.88 386.768 36.6C387.048 37.36 387.208 38.44 387.208 39.8V48.08C387.208 50.8 387.448 52.8 388.008 54ZM380.688 44.32C380.368 44.48 379.968 44.64 379.568 44.76C379.128 44.92 378.768 45 378.528 45.04C378.288 45.12 377.848 45.2 377.288 45.32C376.728 45.44 376.368 45.52 376.208 45.52C374.528 45.88 373.688 46.72 373.688 48.04C373.688 48.84 373.928 49.44 374.408 49.84C374.888 50.28 375.528 50.48 376.368 50.48C377.568 50.48 378.568 50.16 379.408 49.44C380.248 48.72 380.688 47.72 380.688 46.44V44.32ZM409.878 39.4H403.638C403.478 38.52 403.158 37.92 402.638 37.56C402.078 37.2 401.318 37 400.318 37C398.478 37 397.598 37.56 397.598 38.68C397.598 38.88 397.598 39.04 397.678 39.2C397.718 39.36 397.798 39.52 397.958 39.64C398.078 39.76 398.198 39.84 398.318 39.92C398.398 40 398.558 40.04 398.798 40.12C398.998 40.2 399.158 40.24 399.278 40.28C399.358 40.32 399.558 40.36 399.798 40.4C400.038 40.44 400.198 40.48 400.278 40.48C403.198 41.12 405.278 41.64 406.518 42.04C409.158 43 410.478 44.8 410.478 47.44C410.478 49.68 409.598 51.4 407.838 52.68C406.078 53.96 403.638 54.56 400.558 54.56C397.718 54.56 395.358 54 393.518 52.88C391.638 51.76 390.638 49.84 390.518 47.2H396.958C397.078 49.16 398.318 50.12 400.718 50.12C401.678 50.12 402.438 49.96 402.998 49.56C403.558 49.2 403.838 48.68 403.838 48C403.838 47.44 403.598 47.04 403.118 46.72C402.638 46.44 401.718 46.16 400.358 45.84C398.118 45.4 396.318 44.96 394.958 44.48C392.238 43.56 390.918 41.8 390.918 39.2C390.918 37.12 391.718 35.56 393.398 34.44C395.038 33.32 397.398 32.76 400.518 32.76C401.758 32.76 402.918 32.88 403.958 33.12C404.998 33.36 405.998 33.68 406.878 34.16C407.758 34.64 408.438 35.36 408.998 36.24C409.518 37.12 409.798 38.2 409.878 39.4ZM446.562 54H439.682C439.482 53.44 439.362 52.76 439.362 52.04C437.442 53.8 435.162 54.64 432.522 54.64C430.282 54.64 428.482 54.08 427.202 52.96C425.922 51.84 425.282 50.28 425.282 48.28C425.282 47.32 425.442 46.44 425.802 45.68C426.122 44.96 426.522 44.36 427.002 43.96C427.442 43.56 428.122 43.16 429.002 42.84C429.882 42.52 430.602 42.32 431.242 42.2C431.842 42.08 432.682 41.92 433.802 41.76C436.362 41.36 437.842 41.12 438.162 40.96C438.882 40.68 439.242 40.12 439.242 39.28C439.242 37.84 438.162 37.08 436.082 37.08C434.962 37.08 434.162 37.28 433.682 37.6C433.202 37.96 432.842 38.64 432.602 39.68H426.202C426.602 35.08 429.922 32.76 436.162 32.76C439.482 32.76 442.002 33.4 443.762 34.64C444.522 35.2 445.042 35.88 445.322 36.6C445.602 37.36 445.762 38.44 445.762 39.8V48.08C445.762 50.8 446.002 52.8 446.562 54ZM439.242 44.32C438.922 44.48 438.522 44.64 438.122 44.76C437.682 44.92 437.322 45 437.082 45.04C436.842 45.12 436.402 45.2 435.842 45.32C435.282 45.44 434.922 45.52 434.762 45.52C433.082 45.88 432.242 46.72 432.242 48.04C432.242 48.84 432.482 49.44 432.962 49.84C433.442 50.28 434.082 50.48 434.922 50.48C436.122 50.48 437.122 50.16 437.962 49.44C438.802 48.72 439.242 47.72 439.242 46.44V44.32ZM463.13 54V25.56H475.65C479.13 25.56 481.89 26.32 483.89 27.84C485.89 29.36 486.89 31.8 486.89 35.16C486.89 38.24 485.97 40.56 484.17 42.12C482.33 43.72 479.89 44.48 476.85 44.48H470.57V54H463.13ZM470.57 38.76H474.77C475.53 38.76 476.17 38.72 476.65 38.64C477.13 38.56 477.61 38.44 478.13 38.24C478.65 38 479.05 37.64 479.29 37.16C479.53 36.68 479.69 36.04 479.69 35.24C479.69 33.92 479.29 33 478.57 32.44C477.81 31.88 476.73 31.64 475.37 31.64H470.57V38.76ZM510.273 54H503.393C503.193 53.44 503.073 52.76 503.073 52.04C501.153 53.8 498.873 54.64 496.233 54.64C493.993 54.64 492.193 54.08 490.913 52.96C489.633 51.84 488.993 50.28 488.993 48.28C488.993 47.32 489.153 46.44 489.513 45.68C489.833 44.96 490.233 44.36 490.713 43.96C491.153 43.56 491.833 43.16 492.713 42.84C493.593 42.52 494.313 42.32 494.953 42.2C495.553 42.08 496.393 41.92 497.513 41.76C500.073 41.36 501.553 41.12 501.873 40.96C502.593 40.68 502.953 40.12 502.953 39.28C502.953 37.84 501.873 37.08 499.793 37.08C498.673 37.08 497.873 37.28 497.393 37.6C496.913 37.96 496.553 38.64 496.313 39.68H489.913C490.313 35.08 493.633 32.76 499.873 32.76C503.193 32.76 505.713 33.4 507.473 34.64C508.233 35.2 508.753 35.88 509.033 36.6C509.313 37.36 509.473 38.44 509.473 39.8V48.08C509.473 50.8 509.713 52.8 510.273 54ZM502.953 44.32C502.633 44.48 502.233 44.64 501.833 44.76C501.393 44.92 501.033 45 500.793 45.04C500.553 45.12 500.113 45.2 499.553 45.32C498.993 45.44 498.633 45.52 498.473 45.52C496.793 45.88 495.953 46.72 495.953 48.04C495.953 48.84 496.193 49.44 496.673 49.84C497.153 50.28 497.793 50.48 498.633 50.48C499.833 50.48 500.833 50.16 501.673 49.44C502.513 48.72 502.953 47.72 502.953 46.44V44.32ZM527.504 33.36H534.024V51.28C534.024 54.8 533.144 57.36 531.424 58.96C529.664 60.56 527.064 61.32 523.584 61.32C517.424 61.32 514.024 59.12 513.464 54.68H520.264C520.624 56.2 521.744 56.96 523.664 56.96C525.184 56.96 526.184 56.6 526.704 55.8C527.184 55.04 527.464 53.88 527.464 52.32V50.04C525.984 52 523.984 52.96 521.504 52.96C518.784 52.96 516.664 52.08 515.104 50.28C513.544 48.48 512.784 46.04 512.784 42.96C512.784 39.92 513.584 37.44 515.184 35.6C516.784 33.76 518.944 32.8 521.664 32.8C523.024 32.8 524.104 33.04 524.984 33.52C525.824 34 526.664 34.84 527.504 35.96V33.36ZM523.464 37.92C522.184 37.92 521.224 38.4 520.504 39.28C519.784 40.16 519.424 41.4 519.424 42.92C519.424 44.52 519.784 45.8 520.504 46.72C521.224 47.64 522.224 48.08 523.504 48.08C524.784 48.08 525.784 47.64 526.504 46.76C527.224 45.88 527.584 44.6 527.584 42.92C527.584 41.4 527.184 40.16 526.464 39.28C525.744 38.4 524.744 37.92 523.464 37.92ZM558.437 54H551.557C551.357 53.44 551.237 52.76 551.237 52.04C549.317 53.8 547.037 54.64 544.397 54.64C542.157 54.64 540.357 54.08 539.077 52.96C537.797 51.84 537.157 50.28 537.157 48.28C537.157 47.32 537.317 46.44 537.677 45.68C537.997 44.96 538.397 44.36 538.877 43.96C539.317 43.56 539.997 43.16 540.877 42.84C541.757 42.52 542.477 42.32 543.117 42.2C543.717 42.08 544.557 41.92 545.677 41.76C548.237 41.36 549.717 41.12 550.037 40.96C550.757 40.68 551.117 40.12 551.117 39.28C551.117 37.84 550.037 37.08 547.957 37.08C546.837 37.08 546.037 37.28 545.557 37.6C545.077 37.96 544.717 38.64 544.477 39.68H538.077C538.477 35.08 541.797 32.76 548.037 32.76C551.357 32.76 553.877 33.4 555.637 34.64C556.397 35.2 556.917 35.88 557.197 36.6C557.477 37.36 557.637 38.44 557.637 39.8V48.08C557.637 50.8 557.877 52.8 558.437 54ZM551.117 44.32C550.797 44.48 550.397 44.64 549.997 44.76C549.557 44.92 549.197 45 548.957 45.04C548.717 45.12 548.277 45.2 547.717 45.32C547.157 45.44 546.797 45.52 546.637 45.52C544.957 45.88 544.117 46.72 544.117 48.04C544.117 48.84 544.357 49.44 544.837 49.84C545.317 50.28 545.957 50.48 546.797 50.48C547.997 50.48 548.997 50.16 549.837 49.44C550.677 48.72 551.117 47.72 551.117 46.44V44.32ZM576.908 33.08V39.16C575.828 38.92 574.948 38.76 574.228 38.76C570.788 38.76 569.108 40.72 569.108 44.6V54H562.348V33.36H568.828L568.788 36.88C569.508 35.52 570.348 34.52 571.348 33.88C572.348 33.24 573.628 32.88 575.148 32.88C575.708 32.88 576.268 32.96 576.908 33.08Z" fill="#303030"/>
</g>
<rect x="0.5" y="0.5" width="1279" height="999" stroke="#3A3A3A"/>
<defs>
<clipPath id="clip0_236_141">
<rect width="1280" height="1000" fill="white"/>
</clipPath>
<clipPath id="clip1_236_141">
<rect width="130.404" height="52" fill="white" transform="translate(66 12)"/>
</clipPath>
</defs>
</svg>
