<svg width="1280" height="1000" viewBox="0 0 1280 1000" fill="none" xmlns="http://www.w3.org/2000/svg">
<g clip-path="url(#clip0_266_547)">
<rect width="1280" height="1000" fill="#EDEDED"/>
<rect x="1" y="1" width="260" height="1000" fill="#3A3A3A"/>
<g clip-path="url(#clip1_266_547)">
<path d="M124.592 61.9351L113.418 42.5859C113.34 44.4639 112.834 46.2838 111.934 47.9214L111.956 47.9338L103.048 63.3599H123.769C124.264 63.3599 124.509 63.0274 124.592 62.885C124.675 62.7425 124.84 62.3635 124.592 61.9351Z" fill="#FC541F"/>
<path d="M96.4012 13.1156C96.1532 12.6872 95.7437 12.6406 95.5784 12.6406C95.4131 12.6406 95.0036 12.6872 94.7556 13.1156L66.5636 61.9349C66.3156 62.3633 66.4809 62.7423 66.5636 62.8848C66.6462 63.0272 66.8914 63.3597 67.3864 63.3597H74.9111L90.8536 35.7523L90.8774 35.7665C91.8749 34.1261 93.2488 32.7421 94.8934 31.7266C96.8829 30.4984 99.1783 29.8772 101.53 29.9247C103.431 29.9646 105.263 30.4434 106.907 31.3106L96.4002 13.1156H96.4012Z" fill="#FC541F"/>
<path d="M101.271 31.8213C95.614 31.8213 91.0117 36.4225 91.0117 42.0781C91.0117 47.7337 95.614 52.335 101.271 52.335C106.928 52.335 111.53 47.7337 111.53 42.0781C111.53 36.4225 106.928 31.8213 101.271 31.8213Z" fill="#FC541F"/>
<path d="M173.023 31.3066C172.655 30.7918 172.198 30.3339 171.65 29.934C171.103 29.5351 170.462 29.2188 169.726 28.987C169.431 28.9034 168.942 28.7714 168.258 28.5928C167.574 28.4142 166.874 28.2299 166.159 28.0409C165.444 27.8519 164.797 27.6781 164.218 27.5204C163.639 27.3627 163.308 27.2734 163.224 27.2525C162.424 27.0207 161.777 26.6797 161.283 26.2276C160.788 25.7754 160.541 25.1495 160.541 24.3506C160.541 23.7826 160.672 23.3095 160.935 22.9305C161.199 22.5515 161.529 22.2523 161.929 22.031C162.329 21.8097 162.771 21.652 163.255 21.558C163.738 21.463 164.211 21.4155 164.675 21.4155C166.042 21.4155 167.168 21.7156 168.052 22.315C168.935 22.9144 169.429 23.9403 169.535 25.3917H173.479C173.479 24.2138 173.248 23.1775 172.785 22.2837C172.322 21.3898 171.696 20.6375 170.908 20.0277C170.118 19.4179 169.203 18.96 168.162 18.6551C167.12 18.3502 166.011 18.1973 164.832 18.1973C163.822 18.1973 162.822 18.3284 161.833 18.5915C160.844 18.8555 159.961 19.2592 159.182 19.8064C158.403 20.3535 157.778 21.0422 157.304 21.8733C156.831 22.7045 156.594 23.6876 156.594 24.8237C156.594 25.4126 156.673 25.9911 156.831 26.5591C156.989 27.1271 157.257 27.6629 157.636 28.1682C158.015 28.6735 158.524 29.1304 159.166 29.5408C159.808 29.9511 160.612 30.2826 161.58 30.5344C163.138 30.9552 164.447 31.2971 165.51 31.5602C166.572 31.8234 167.503 32.1017 168.303 32.3961C168.766 32.5643 169.192 32.854 169.581 33.2643C169.97 33.6747 170.165 34.3111 170.165 35.1726C170.165 35.5934 170.08 36.0085 169.912 36.4189C169.744 36.8292 169.47 37.1921 169.091 37.5075C168.712 37.8228 168.218 38.0812 167.608 38.2807C166.997 38.4801 166.261 38.5799 165.399 38.5799C164.599 38.5799 163.857 38.4906 163.174 38.312C162.49 38.1334 161.884 37.8494 161.359 37.46C160.833 37.0705 160.422 36.5718 160.128 35.9611C159.833 35.3512 159.686 34.6151 159.686 33.7526H155.741C155.762 35.1413 156.025 36.3448 156.53 37.365C157.035 38.3852 157.708 39.2211 158.55 39.8736C159.391 40.5262 160.381 41.0097 161.516 41.325C162.652 41.6404 163.862 41.7981 165.145 41.7981C166.26 41.7981 167.354 41.667 168.427 41.4039C169.5 41.1408 170.457 40.7257 171.299 40.1576C172.14 39.5896 172.819 38.8591 173.335 37.9644C173.85 37.0705 174.108 35.9924 174.108 34.73C174.108 34.142 174.019 33.5521 173.84 32.9632C173.662 32.3743 173.388 31.8224 173.02 31.3066H173.023Z" fill="#EDEDED"/>
<path d="M152.242 21.1622C151.695 20.4679 150.917 19.8903 149.907 19.4268C148.897 18.9642 147.593 18.7324 145.994 18.7324H136.053V21.9506H145.836C146.361 21.9506 146.856 22.0038 147.319 22.1083C147.782 22.2137 148.192 22.4085 148.55 22.6925C148.907 22.9765 149.192 23.3603 149.402 23.8437C149.612 24.3282 149.718 24.938 149.718 25.6732C149.718 26.4084 149.596 26.9831 149.355 27.4562C149.113 27.9292 148.797 28.3082 148.409 28.5922C148.019 28.8762 147.593 29.0814 147.131 29.2077C146.668 29.3341 146.216 29.3968 145.774 29.3968H139.998V25.5307H136.054V41.2608H139.998V32.6159H145.994C147.593 32.6159 148.898 32.3899 149.908 31.9368C150.918 31.4846 151.696 30.9118 152.243 30.2175C152.79 29.5231 153.163 28.7717 153.363 27.9615C153.563 27.1522 153.664 26.3999 153.664 25.7055C153.664 25.0112 153.564 24.2541 153.363 23.4343C153.163 22.6136 152.79 21.8566 152.243 21.1622H152.242Z" fill="#EDEDED"/>
<path d="M193.004 32.3006H189.072H187.748H182.191L185.6 22.6146H185.694L187.823 28.7205H191.625L187.778 18.7334H183.58L174.933 41.2618H179.004L181.119 35.2984H190.113L192.227 41.2618H196.457L193.004 32.3006Z" fill="#EDEDED"/>
<path d="M136.052 52.043H137.143V58.2776H136.052V52.043Z" fill="#EDEDED"/>
<path d="M162.796 52.043H163.888V58.2776H162.796V52.043Z" fill="#EDEDED"/>
<path d="M172.224 52.043H176.713V52.9861H173.315V54.6189H176.459V55.5098H173.315V57.3344H176.774V58.2776H172.224V52.043Z" fill="#EDEDED"/>
<path d="M191.514 52.043H196.003V52.9861H192.605V54.6189H195.749V55.5098H192.605V57.3344H196.064V58.2776H191.514V52.043Z" fill="#EDEDED"/>
<path d="M157.188 52.043H158.279V57.3344H161.45V58.2776H157.188V52.043Z" fill="#EDEDED"/>
<path d="M189.066 54.0801C189.019 53.9078 188.955 53.7492 188.874 53.605C188.792 53.4609 188.688 53.3358 188.559 53.2297C188.431 53.1245 188.281 53.042 188.11 52.984C187.938 52.926 187.739 52.8961 187.511 52.8961C187.18 52.8961 186.893 52.9604 186.652 53.0883C186.41 53.2161 186.214 53.3874 186.062 53.6005C185.911 53.8144 185.798 54.0574 185.725 54.3294C185.652 54.6014 185.616 54.8797 185.616 55.1625C185.616 55.4454 185.652 55.7237 185.725 55.9957C185.798 56.2677 185.911 56.5115 186.062 56.7246C186.213 56.9385 186.409 57.109 186.652 57.2368C186.893 57.3646 187.18 57.4281 187.511 57.4281C187.756 57.4281 187.971 57.3882 188.158 57.3075C188.344 57.2268 188.504 57.1162 188.638 56.9739C188.772 56.8325 188.877 56.6666 188.953 56.478C189.029 56.2894 189.078 56.0864 189.101 55.8697H190.166C190.142 56.2251 190.062 56.5505 189.926 56.8443C189.789 57.1389 189.604 57.3927 189.371 57.6067C189.138 57.8207 188.864 57.9857 188.55 58.1026C188.235 58.2196 187.889 58.2776 187.511 58.2776C187.045 58.2776 186.627 58.1951 186.257 58.0319C185.888 57.8678 185.574 57.6439 185.319 57.361C185.062 57.0773 184.865 56.7473 184.73 56.3692C184.593 55.9912 184.524 55.5886 184.524 55.1607C184.524 54.7328 184.593 54.3385 184.73 53.9604C184.866 53.5824 185.063 53.2524 185.319 52.9686C185.575 52.6848 185.888 52.46 186.257 52.2932C186.627 52.1264 187.045 52.043 187.511 52.043C187.86 52.043 188.189 52.0883 188.498 52.1808C188.806 52.2723 189.078 52.4056 189.314 52.5806C189.549 52.7555 189.74 52.9686 189.886 53.2179C190.031 53.4681 190.121 53.7546 190.157 54.0764H189.065L189.066 54.0801Z" fill="#EDEDED"/>
<path d="M138.49 52.043H139.643L142.49 56.6353H142.507V52.043H143.547V58.2776H142.394L139.556 53.6938H139.53V58.2776H138.49V52.043Z" fill="#EDEDED"/>
<path d="M178.121 52.043H179.274L182.121 56.6353H182.138V52.043H183.177V58.2776H182.025L179.187 53.6938H179.16V58.2776H178.121V52.043Z" fill="#EDEDED"/>
<path d="M144.893 52.043H150.012V52.9804H148.001V58.2399H146.894V52.9804H144.893V52.043Z" fill="#EDEDED"/>
<path d="M151.29 52.043H155.779V52.9861H152.382V54.6189H155.526V55.5098H152.382V57.3344H155.84V58.2776H151.29V52.043Z" fill="#EDEDED"/>
<path d="M169.777 54.0801C169.73 53.9078 169.666 53.7492 169.585 53.605C169.503 53.4609 169.399 53.3358 169.27 53.2297C169.142 53.1245 168.992 53.042 168.821 52.984C168.649 52.926 168.45 52.8961 168.222 52.8961C167.891 52.8961 167.604 52.9604 167.363 53.0883C167.121 53.2161 166.925 53.3874 166.773 53.6005C166.622 53.8144 166.509 54.0574 166.436 54.3294C166.363 54.6014 166.327 54.8797 166.327 55.1625C166.327 55.4454 166.363 55.7237 166.436 55.9957C166.509 56.2677 166.622 56.5115 166.773 56.7246C166.924 56.9385 167.12 57.109 167.363 57.2368C167.604 57.3646 167.891 57.4281 168.222 57.4281C168.467 57.4281 168.682 57.3882 168.869 57.3075C169.055 57.2268 169.215 57.1162 169.349 56.9739C169.483 56.8325 169.588 56.6666 169.664 56.478C169.74 56.2894 169.754 56.2796 169.777 56.0629H168.5V55.6772V55.2915H169.812H170.386H170.877V55.8697C170.853 56.2251 170.773 56.5505 170.637 56.8443C170.5 57.1389 170.315 57.3927 170.082 57.6067C169.849 57.8207 169.575 57.9857 169.261 58.1026C168.946 58.2196 168.6 58.2776 168.221 58.2776C167.756 58.2776 167.338 58.1951 166.968 58.0319C166.599 57.8678 166.285 57.6439 166.03 57.361C165.773 57.0773 165.576 56.7473 165.441 56.3692C165.304 55.9912 165.235 55.5886 165.235 55.1607C165.235 54.7328 165.304 54.3385 165.441 53.9604C165.577 53.5824 165.774 53.2524 166.03 52.9686C166.286 52.6848 166.599 52.46 166.968 52.2932C167.338 52.1264 167.756 52.043 168.221 52.043C168.571 52.043 168.9 52.0883 169.209 52.1808C169.517 52.2723 169.789 52.4056 170.025 52.5806C170.26 52.7555 170.451 52.9686 170.597 53.2179C170.742 53.4681 170.832 53.7546 170.867 54.0764H169.776L169.777 54.0801Z" fill="#EDEDED"/>
</g>
<path d="M288.842 37.88H296.242C296.202 39 296.082 39.84 295.922 40.48C295.762 41.12 295.402 41.92 294.922 42.92C292.682 47.44 288.762 49.68 283.162 49.68C278.802 49.68 275.322 48.28 272.762 45.48C270.202 42.68 268.922 39.08 268.922 34.68C268.922 30.32 270.242 26.76 272.922 24C275.562 21.24 279.042 19.84 283.282 19.84C286.602 19.84 289.522 20.84 292.002 22.76C294.482 24.72 295.842 27.32 296.082 30.56H288.762C288.122 27.6 286.242 26.08 283.122 26.08C281.082 26.08 279.442 26.88 278.242 28.48C277.042 30.08 276.442 32.2 276.442 34.84C276.442 37.44 277.042 39.52 278.242 41.04C279.442 42.6 281.082 43.36 283.122 43.36C286.402 43.36 288.282 41.56 288.842 37.88ZM309.914 27.76C313.114 27.76 315.674 28.8 317.674 30.8C319.674 32.8 320.674 35.44 320.674 38.68C320.674 41.92 319.674 44.56 317.674 46.6C315.674 48.64 313.034 49.68 309.794 49.68C306.554 49.68 303.914 48.64 301.914 46.64C299.914 44.6 298.914 41.96 298.914 38.72C298.914 35.48 299.914 32.84 301.954 30.8C303.994 28.8 306.634 27.76 309.914 27.76ZM309.714 32.84C308.434 32.84 307.474 33.32 306.754 34.36C306.034 35.4 305.674 36.84 305.674 38.72C305.674 40.64 306.034 42.12 306.754 43.16C307.474 44.2 308.514 44.72 309.794 44.72C311.114 44.72 312.114 44.16 312.834 43.12C313.554 42.08 313.874 40.6 313.874 38.68C313.874 36.8 313.514 35.36 312.794 34.36C312.074 33.32 311.074 32.84 309.714 32.84ZM330.847 28.36V31.08C332.527 28.92 334.767 27.8 337.527 27.8C339.847 27.8 341.647 28.48 343.007 29.76C344.327 31.04 345.007 32.92 345.007 35.4V49H338.127V37.28C338.127 36.04 337.887 35.08 337.487 34.36C337.047 33.68 336.207 33.32 335.007 33.32C333.767 33.32 332.807 33.68 332.127 34.4C331.447 35.12 331.127 36.16 331.127 37.48V49H324.327V28.36H330.847ZM362.042 28.36L362.002 32.8H357.762V41.32C357.762 42.4 357.922 43.16 358.162 43.56C358.442 43.96 359.122 44.2 360.202 44.2C361.002 44.2 361.602 44.16 362.002 44.12V49.12C360.442 49.24 359.162 49.32 358.162 49.32C355.402 49.32 353.522 48.8 352.522 47.84C351.482 46.84 351.002 45 351.002 42.32V32.76H347.602V28.36H351.002V22.04H357.802V28.36H362.042ZM385.109 49H378.229C378.029 48.44 377.909 47.76 377.909 47.04C375.989 48.8 373.709 49.64 371.069 49.64C368.829 49.64 367.029 49.08 365.749 47.96C364.469 46.84 363.829 45.28 363.829 43.28C363.829 42.32 363.989 41.44 364.349 40.68C364.669 39.96 365.069 39.36 365.549 38.96C365.989 38.56 366.669 38.16 367.549 37.84C368.429 37.52 369.149 37.32 369.789 37.2C370.389 37.08 371.229 36.92 372.349 36.76C374.909 36.36 376.389 36.12 376.709 35.96C377.429 35.68 377.789 35.12 377.789 34.28C377.789 32.84 376.709 32.08 374.629 32.08C373.509 32.08 372.709 32.28 372.229 32.6C371.749 32.96 371.389 33.64 371.149 34.68H364.749C365.149 30.08 368.469 27.76 374.709 27.76C378.029 27.76 380.549 28.4 382.309 29.64C383.069 30.2 383.589 30.88 383.869 31.6C384.149 32.36 384.309 33.44 384.309 34.8V43.08C384.309 45.8 384.549 47.8 385.109 49ZM377.789 39.32C377.469 39.48 377.069 39.64 376.669 39.76C376.229 39.92 375.869 40 375.629 40.04C375.389 40.12 374.949 40.2 374.389 40.32C373.829 40.44 373.469 40.52 373.309 40.52C371.629 40.88 370.789 41.72 370.789 43.04C370.789 43.84 371.029 44.44 371.509 44.84C371.989 45.28 372.629 45.48 373.469 45.48C374.669 45.48 375.669 45.16 376.509 44.44C377.349 43.72 377.789 42.72 377.789 41.44V39.32ZM395.5 20.52L395.46 30.76C397.22 28.84 399.26 27.88 401.54 27.88C404.18 27.88 406.34 28.88 408.02 30.96C409.54 32.84 410.3 35.36 410.3 38.52C410.3 41.84 409.46 44.52 407.78 46.52C406.1 48.52 403.86 49.56 401.1 49.6C399.74 49.6 398.62 49.36 397.78 48.88C396.94 48.4 396.1 47.64 395.22 46.56V49H388.74V20.52H395.5ZM399.38 33.08C398.14 33.08 397.14 33.56 396.42 34.56C395.66 35.52 395.3 36.84 395.3 38.52C395.3 40.28 395.66 41.64 396.38 42.64C397.1 43.64 398.14 44.16 399.46 44.16C400.7 44.16 401.7 43.64 402.42 42.64C403.14 41.6 403.5 40.24 403.5 38.52C403.5 36.84 403.1 35.52 402.38 34.56C401.62 33.56 400.62 33.08 399.38 33.08ZM421.015 20.52V25.64H414.215V20.52H421.015ZM421.015 28.36V49H414.215V28.36H421.015ZM432.851 20.52V49H426.051V20.52H432.851ZM444.687 20.52V25.64H437.887V20.52H444.687ZM444.687 28.36V49H437.887V28.36H444.687ZM470.123 20.52L470.083 49H463.603V46.56C462.203 48.56 460.243 49.52 457.683 49.52C454.963 49.52 452.723 48.52 451.043 46.52C449.363 44.52 448.523 41.88 448.523 38.56C448.523 35.36 449.363 32.76 450.963 30.8C452.563 28.84 454.723 27.84 457.363 27.84C459.883 27.84 461.883 28.84 463.363 30.76V20.52H470.123ZM459.443 33.08C458.163 33.08 457.163 33.56 456.443 34.52C455.723 35.48 455.363 36.84 455.363 38.6C455.363 40.36 455.723 41.72 456.443 42.68C457.163 43.64 458.163 44.12 459.443 44.12C460.763 44.12 461.763 43.64 462.483 42.68C463.203 41.72 463.563 40.4 463.563 38.64C463.563 36.92 463.203 35.56 462.483 34.56C461.763 33.6 460.723 33.08 459.443 33.08ZM494.718 49H487.838C487.638 48.44 487.518 47.76 487.518 47.04C485.598 48.8 483.318 49.64 480.678 49.64C478.438 49.64 476.638 49.08 475.358 47.96C474.078 46.84 473.438 45.28 473.438 43.28C473.438 42.32 473.598 41.44 473.958 40.68C474.278 39.96 474.678 39.36 475.158 38.96C475.598 38.56 476.278 38.16 477.158 37.84C478.038 37.52 478.758 37.32 479.398 37.2C479.998 37.08 480.838 36.92 481.958 36.76C484.518 36.36 485.998 36.12 486.318 35.96C487.038 35.68 487.398 35.12 487.398 34.28C487.398 32.84 486.318 32.08 484.238 32.08C483.118 32.08 482.318 32.28 481.838 32.6C481.358 32.96 480.998 33.64 480.758 34.68H474.358C474.758 30.08 478.078 27.76 484.318 27.76C487.638 27.76 490.158 28.4 491.918 29.64C492.678 30.2 493.198 30.88 493.478 31.6C493.758 32.36 493.918 33.44 493.918 34.8V43.08C493.918 45.8 494.158 47.8 494.718 49ZM487.398 39.32C487.078 39.48 486.678 39.64 486.278 39.76C485.838 39.92 485.478 40 485.238 40.04C484.998 40.12 484.558 40.2 483.998 40.32C483.438 40.44 483.078 40.52 482.918 40.52C481.238 40.88 480.398 41.72 480.398 43.04C480.398 43.84 480.638 44.44 481.118 44.84C481.598 45.28 482.238 45.48 483.078 45.48C484.278 45.48 485.278 45.16 486.118 44.44C486.958 43.72 487.398 42.72 487.398 41.44V39.32ZM519.029 20.52L518.989 49H512.509V46.56C511.109 48.56 509.149 49.52 506.589 49.52C503.869 49.52 501.629 48.52 499.949 46.52C498.269 44.52 497.429 41.88 497.429 38.56C497.429 35.36 498.269 32.76 499.869 30.8C501.469 28.84 503.629 27.84 506.269 27.84C508.789 27.84 510.789 28.84 512.269 30.76V20.52H519.029ZM508.349 33.08C507.069 33.08 506.069 33.56 505.349 34.52C504.629 35.48 504.269 36.84 504.269 38.6C504.269 40.36 504.629 41.72 505.349 42.68C506.069 43.64 507.069 44.12 508.349 44.12C509.669 44.12 510.669 43.64 511.389 42.68C512.109 41.72 512.469 40.4 512.469 38.64C512.469 36.92 512.109 35.56 511.389 34.56C510.669 33.6 509.629 33.08 508.349 33.08ZM544.625 40.32H529.265C529.265 41.84 529.705 43.04 530.545 43.88C531.385 44.72 532.545 45.12 533.985 45.12C535.665 45.12 536.985 44.32 537.865 42.72H544.225C543.545 44.96 542.305 46.64 540.505 47.84C538.705 49.04 536.505 49.64 533.905 49.64C530.625 49.64 527.905 48.68 525.785 46.76C523.665 44.84 522.625 42.2 522.625 38.92C522.625 35.68 523.625 33.04 525.705 30.96C527.745 28.88 530.385 27.84 533.665 27.84C537.025 27.84 539.705 28.92 541.665 31.04C543.625 33.16 544.625 36.04 544.625 39.72V40.32ZM537.945 36.44C537.825 35.24 537.385 34.24 536.665 33.52C535.945 32.8 534.945 32.4 533.705 32.4C531.225 32.4 529.745 33.76 529.345 36.44H537.945Z" fill="#303030"/>
</g>
<rect x="0.5" y="0.5" width="1279" height="999" stroke="#3A3A3A"/>
<defs>
<clipPath id="clip0_266_547">
<rect width="1280" height="1000" fill="white"/>
</clipPath>
<clipPath id="clip1_266_547">
<rect width="130.404" height="52" fill="white" transform="translate(66 12)"/>
</clipPath>
</defs>
</svg>
