<svg width="1280" height="1000" viewBox="0 0 1280 1000" fill="none" xmlns="http://www.w3.org/2000/svg">
<g clip-path="url(#clip0_256_56)">
<rect width="1280" height="1000" fill="#EDEDED"/>
<rect x="1" y="1" width="260" height="1000" fill="#3A3A3A"/>
<g clip-path="url(#clip1_256_56)">
<path d="M124.592 61.9351L113.418 42.5859C113.34 44.4639 112.834 46.2838 111.934 47.9214L111.956 47.9338L103.048 63.3599H123.769C124.264 63.3599 124.509 63.0274 124.592 62.885C124.675 62.7425 124.84 62.3635 124.592 61.9351Z" fill="#FC541F"/>
<path d="M96.4012 13.1156C96.1532 12.6872 95.7437 12.6406 95.5784 12.6406C95.4131 12.6406 95.0036 12.6872 94.7556 13.1156L66.5636 61.9349C66.3156 62.3633 66.4809 62.7423 66.5636 62.8848C66.6462 63.0272 66.8914 63.3597 67.3864 63.3597H74.9111L90.8536 35.7523L90.8774 35.7665C91.8749 34.1261 93.2488 32.7421 94.8934 31.7266C96.8829 30.4984 99.1783 29.8772 101.53 29.9247C103.431 29.9646 105.263 30.4434 106.907 31.3106L96.4002 13.1156H96.4012Z" fill="#FC541F"/>
<path d="M101.271 31.8213C95.614 31.8213 91.0117 36.4225 91.0117 42.0781C91.0117 47.7337 95.614 52.335 101.271 52.335C106.928 52.335 111.53 47.7337 111.53 42.0781C111.53 36.4225 106.928 31.8213 101.271 31.8213Z" fill="#FC541F"/>
<path d="M173.023 31.3066C172.655 30.7918 172.198 30.3339 171.65 29.934C171.103 29.5351 170.462 29.2188 169.726 28.987C169.431 28.9034 168.942 28.7714 168.258 28.5928C167.574 28.4142 166.874 28.2299 166.159 28.0409C165.444 27.8519 164.797 27.6781 164.218 27.5204C163.639 27.3627 163.308 27.2734 163.224 27.2525C162.424 27.0207 161.777 26.6797 161.283 26.2276C160.788 25.7754 160.541 25.1495 160.541 24.3506C160.541 23.7826 160.672 23.3095 160.935 22.9305C161.199 22.5515 161.529 22.2523 161.929 22.031C162.329 21.8097 162.771 21.652 163.255 21.558C163.738 21.463 164.211 21.4155 164.675 21.4155C166.042 21.4155 167.168 21.7156 168.052 22.315C168.935 22.9144 169.429 23.9403 169.535 25.3917H173.479C173.479 24.2138 173.248 23.1775 172.785 22.2837C172.322 21.3898 171.696 20.6375 170.908 20.0277C170.118 19.4179 169.203 18.96 168.162 18.6551C167.12 18.3502 166.011 18.1973 164.832 18.1973C163.822 18.1973 162.822 18.3284 161.833 18.5915C160.844 18.8555 159.961 19.2592 159.182 19.8064C158.403 20.3535 157.778 21.0422 157.304 21.8733C156.831 22.7045 156.594 23.6876 156.594 24.8237C156.594 25.4126 156.673 25.9911 156.831 26.5591C156.989 27.1271 157.257 27.6629 157.636 28.1682C158.015 28.6735 158.524 29.1304 159.166 29.5408C159.808 29.9511 160.612 30.2826 161.58 30.5344C163.138 30.9552 164.447 31.2971 165.51 31.5602C166.572 31.8234 167.503 32.1017 168.303 32.3961C168.766 32.5643 169.192 32.854 169.581 33.2643C169.97 33.6747 170.165 34.3111 170.165 35.1726C170.165 35.5934 170.08 36.0085 169.912 36.4189C169.744 36.8292 169.47 37.1921 169.091 37.5075C168.712 37.8228 168.218 38.0812 167.608 38.2807C166.997 38.4801 166.261 38.5799 165.399 38.5799C164.599 38.5799 163.857 38.4906 163.174 38.312C162.49 38.1334 161.884 37.8494 161.359 37.46C160.833 37.0705 160.422 36.5718 160.128 35.9611C159.833 35.3512 159.686 34.6151 159.686 33.7526H155.741C155.762 35.1413 156.025 36.3448 156.53 37.365C157.035 38.3852 157.708 39.2211 158.55 39.8736C159.391 40.5262 160.381 41.0097 161.516 41.325C162.652 41.6404 163.862 41.7981 165.145 41.7981C166.26 41.7981 167.354 41.667 168.427 41.4039C169.5 41.1408 170.457 40.7257 171.299 40.1576C172.14 39.5896 172.819 38.8591 173.335 37.9644C173.85 37.0705 174.108 35.9924 174.108 34.73C174.108 34.142 174.019 33.5521 173.84 32.9632C173.662 32.3743 173.388 31.8224 173.02 31.3066H173.023Z" fill="#EDEDED"/>
<path d="M152.242 21.1622C151.695 20.4679 150.917 19.8903 149.907 19.4268C148.897 18.9642 147.593 18.7324 145.994 18.7324H136.053V21.9506H145.836C146.361 21.9506 146.856 22.0038 147.319 22.1083C147.782 22.2137 148.192 22.4085 148.55 22.6925C148.907 22.9765 149.192 23.3603 149.402 23.8437C149.612 24.3282 149.718 24.938 149.718 25.6732C149.718 26.4084 149.596 26.9831 149.355 27.4562C149.113 27.9292 148.797 28.3082 148.409 28.5922C148.019 28.8762 147.593 29.0814 147.131 29.2077C146.668 29.3341 146.216 29.3968 145.774 29.3968H139.998V25.5307H136.054V41.2608H139.998V32.6159H145.994C147.593 32.6159 148.898 32.3899 149.908 31.9368C150.918 31.4846 151.696 30.9118 152.243 30.2175C152.79 29.5231 153.163 28.7717 153.363 27.9615C153.563 27.1522 153.664 26.3999 153.664 25.7055C153.664 25.0112 153.564 24.2541 153.363 23.4343C153.163 22.6136 152.79 21.8566 152.243 21.1622H152.242Z" fill="#EDEDED"/>
<path d="M193.004 32.3006H189.072H187.748H182.191L185.6 22.6146H185.694L187.823 28.7205H191.625L187.778 18.7334H183.58L174.933 41.2618H179.004L181.119 35.2984H190.113L192.227 41.2618H196.457L193.004 32.3006Z" fill="#EDEDED"/>
<path d="M136.052 52.043H137.143V58.2776H136.052V52.043Z" fill="#EDEDED"/>
<path d="M162.796 52.043H163.888V58.2776H162.796V52.043Z" fill="#EDEDED"/>
<path d="M172.224 52.043H176.713V52.9861H173.315V54.6189H176.459V55.5098H173.315V57.3344H176.774V58.2776H172.224V52.043Z" fill="#EDEDED"/>
<path d="M191.514 52.043H196.003V52.9861H192.605V54.6189H195.749V55.5098H192.605V57.3344H196.064V58.2776H191.514V52.043Z" fill="#EDEDED"/>
<path d="M157.188 52.043H158.279V57.3344H161.45V58.2776H157.188V52.043Z" fill="#EDEDED"/>
<path d="M189.066 54.0801C189.019 53.9078 188.955 53.7492 188.874 53.605C188.792 53.4609 188.688 53.3358 188.559 53.2297C188.431 53.1245 188.281 53.042 188.11 52.984C187.938 52.926 187.739 52.8961 187.511 52.8961C187.18 52.8961 186.893 52.9604 186.652 53.0883C186.41 53.2161 186.214 53.3874 186.062 53.6005C185.911 53.8144 185.798 54.0574 185.725 54.3294C185.652 54.6014 185.616 54.8797 185.616 55.1625C185.616 55.4454 185.652 55.7237 185.725 55.9957C185.798 56.2677 185.911 56.5115 186.062 56.7246C186.213 56.9385 186.409 57.109 186.652 57.2368C186.893 57.3646 187.18 57.4281 187.511 57.4281C187.756 57.4281 187.971 57.3882 188.158 57.3075C188.344 57.2268 188.504 57.1162 188.638 56.9739C188.772 56.8325 188.877 56.6666 188.953 56.478C189.029 56.2894 189.078 56.0864 189.101 55.8697H190.166C190.142 56.2251 190.062 56.5505 189.926 56.8443C189.789 57.1389 189.604 57.3927 189.371 57.6067C189.138 57.8207 188.864 57.9857 188.55 58.1026C188.235 58.2196 187.889 58.2776 187.511 58.2776C187.045 58.2776 186.627 58.1951 186.257 58.0319C185.888 57.8678 185.574 57.6439 185.319 57.361C185.062 57.0773 184.865 56.7473 184.73 56.3692C184.593 55.9912 184.524 55.5886 184.524 55.1607C184.524 54.7328 184.593 54.3385 184.73 53.9604C184.866 53.5824 185.063 53.2524 185.319 52.9686C185.575 52.6848 185.888 52.46 186.257 52.2932C186.627 52.1264 187.045 52.043 187.511 52.043C187.86 52.043 188.189 52.0883 188.498 52.1808C188.806 52.2723 189.078 52.4056 189.314 52.5806C189.549 52.7555 189.74 52.9686 189.886 53.2179C190.031 53.4681 190.121 53.7546 190.157 54.0764H189.065L189.066 54.0801Z" fill="#EDEDED"/>
<path d="M138.49 52.043H139.643L142.49 56.6353H142.507V52.043H143.547V58.2776H142.394L139.556 53.6938H139.53V58.2776H138.49V52.043Z" fill="#EDEDED"/>
<path d="M178.121 52.043H179.274L182.121 56.6353H182.138V52.043H183.177V58.2776H182.025L179.187 53.6938H179.16V58.2776H178.121V52.043Z" fill="#EDEDED"/>
<path d="M144.893 52.043H150.012V52.9804H148.001V58.2399H146.894V52.9804H144.893V52.043Z" fill="#EDEDED"/>
<path d="M151.29 52.043H155.779V52.9861H152.382V54.6189H155.526V55.5098H152.382V57.3344H155.84V58.2776H151.29V52.043Z" fill="#EDEDED"/>
<path d="M169.777 54.0801C169.73 53.9078 169.666 53.7492 169.585 53.605C169.503 53.4609 169.399 53.3358 169.27 53.2297C169.142 53.1245 168.992 53.042 168.821 52.984C168.649 52.926 168.45 52.8961 168.222 52.8961C167.891 52.8961 167.604 52.9604 167.363 53.0883C167.121 53.2161 166.925 53.3874 166.773 53.6005C166.622 53.8144 166.509 54.0574 166.436 54.3294C166.363 54.6014 166.327 54.8797 166.327 55.1625C166.327 55.4454 166.363 55.7237 166.436 55.9957C166.509 56.2677 166.622 56.5115 166.773 56.7246C166.924 56.9385 167.12 57.109 167.363 57.2368C167.604 57.3646 167.891 57.4281 168.222 57.4281C168.467 57.4281 168.682 57.3882 168.869 57.3075C169.055 57.2268 169.215 57.1162 169.349 56.9739C169.483 56.8325 169.588 56.6666 169.664 56.478C169.74 56.2894 169.754 56.2796 169.777 56.0629H168.5V55.6772V55.2915H169.812H170.386H170.877V55.8697C170.853 56.2251 170.773 56.5505 170.637 56.8443C170.5 57.1389 170.315 57.3927 170.082 57.6067C169.849 57.8207 169.575 57.9857 169.261 58.1026C168.946 58.2196 168.6 58.2776 168.221 58.2776C167.756 58.2776 167.338 58.1951 166.968 58.0319C166.599 57.8678 166.285 57.6439 166.03 57.361C165.773 57.0773 165.576 56.7473 165.441 56.3692C165.304 55.9912 165.235 55.5886 165.235 55.1607C165.235 54.7328 165.304 54.3385 165.441 53.9604C165.577 53.5824 165.774 53.2524 166.03 52.9686C166.286 52.6848 166.599 52.46 166.968 52.2932C167.338 52.1264 167.756 52.043 168.221 52.043C168.571 52.043 168.9 52.0883 169.209 52.1808C169.517 52.2723 169.789 52.4056 170.025 52.5806C170.26 52.7555 170.451 52.9686 170.597 53.2179C170.742 53.4681 170.832 53.7546 170.867 54.0764H169.776L169.777 54.0801Z" fill="#EDEDED"/>
</g>
<path d="M272.796 53V24.56H284.996C289.396 24.56 292.796 25.76 295.276 28.24C297.756 30.72 298.996 34.16 298.996 38.64C298.996 43.4 297.756 47 295.356 49.4C292.916 51.8 289.316 53 284.596 53H272.796ZM280.196 46.84H284.276C289.076 46.84 291.516 44.16 291.516 38.84C291.516 36.24 290.836 34.24 289.516 32.84C288.196 31.4 286.276 30.72 283.756 30.72H280.196V46.84ZM323.828 44.32H308.468C308.468 45.84 308.908 47.04 309.748 47.88C310.588 48.72 311.748 49.12 313.188 49.12C314.868 49.12 316.188 48.32 317.068 46.72H323.428C322.748 48.96 321.508 50.64 319.708 51.84C317.908 53.04 315.708 53.64 313.108 53.64C309.828 53.64 307.108 52.68 304.988 50.76C302.868 48.84 301.828 46.2 301.828 42.92C301.828 39.68 302.828 37.04 304.908 34.96C306.948 32.88 309.588 31.84 312.868 31.84C316.228 31.84 318.908 32.92 320.868 35.04C322.828 37.16 323.828 40.04 323.828 43.72V44.32ZM317.148 40.44C317.028 39.24 316.588 38.24 315.868 37.52C315.148 36.8 314.148 36.4 312.908 36.4C310.428 36.4 308.948 37.76 308.548 40.44H317.148ZM333.761 32.36V35.08C335.321 32.92 337.441 31.8 340.081 31.8C342.921 31.8 344.881 32.92 345.921 35.12C346.961 33.96 347.921 33.12 348.881 32.6C349.801 32.08 351.001 31.8 352.481 31.8C354.801 31.8 356.601 32.48 357.881 33.84C359.121 35.2 359.761 37.08 359.761 39.4V53H352.921V41C352.921 38.52 351.961 37.24 350.081 37.24C349.041 37.24 348.281 37.6 347.721 38.24C347.161 38.88 346.881 39.76 346.881 40.88V53H340.081V40.76C340.081 39.64 339.881 38.76 339.521 38.12C339.121 37.48 338.401 37.16 337.361 37.16C336.201 37.16 335.361 37.56 334.841 38.32C334.281 39.08 334.041 40.08 334.041 41.28V53H327.241V32.36H333.761ZM374.312 31.76C377.512 31.76 380.072 32.8 382.072 34.8C384.072 36.8 385.072 39.44 385.072 42.68C385.072 45.92 384.072 48.56 382.072 50.6C380.072 52.64 377.432 53.68 374.192 53.68C370.952 53.68 368.312 52.64 366.312 50.64C364.312 48.6 363.312 45.96 363.312 42.72C363.312 39.48 364.312 36.84 366.352 34.8C368.392 32.8 371.032 31.76 374.312 31.76ZM374.112 36.84C372.832 36.84 371.872 37.32 371.152 38.36C370.432 39.4 370.072 40.84 370.072 42.72C370.072 44.64 370.432 46.12 371.152 47.16C371.872 48.2 372.912 48.72 374.192 48.72C375.512 48.72 376.512 48.16 377.232 47.12C377.952 46.08 378.272 44.6 378.272 42.68C378.272 40.8 377.912 39.36 377.192 38.36C376.472 37.32 375.472 36.84 374.112 36.84ZM395.245 32.36V35.08C396.925 32.92 399.165 31.8 401.925 31.8C404.245 31.8 406.045 32.48 407.405 33.76C408.725 35.04 409.405 36.92 409.405 39.4V53H402.525V41.28C402.525 40.04 402.285 39.08 401.885 38.36C401.445 37.68 400.605 37.32 399.405 37.32C398.165 37.32 397.205 37.68 396.525 38.4C395.845 39.12 395.525 40.16 395.525 41.48V53H388.725V32.36H395.245ZM432.121 38.4H425.881C425.721 37.52 425.401 36.92 424.881 36.56C424.321 36.2 423.561 36 422.561 36C420.721 36 419.841 36.56 419.841 37.68C419.841 37.88 419.841 38.04 419.921 38.2C419.961 38.36 420.041 38.52 420.201 38.64C420.321 38.76 420.441 38.84 420.561 38.92C420.641 39 420.801 39.04 421.041 39.12C421.241 39.2 421.401 39.24 421.521 39.28C421.601 39.32 421.801 39.36 422.041 39.4C422.281 39.44 422.441 39.48 422.521 39.48C425.441 40.12 427.521 40.64 428.761 41.04C431.401 42 432.721 43.8 432.721 46.44C432.721 48.68 431.841 50.4 430.081 51.68C428.321 52.96 425.881 53.56 422.801 53.56C419.961 53.56 417.601 53 415.761 51.88C413.881 50.76 412.881 48.84 412.761 46.2H419.201C419.321 48.16 420.561 49.12 422.961 49.12C423.921 49.12 424.681 48.96 425.241 48.56C425.801 48.2 426.081 47.68 426.081 47C426.081 46.44 425.841 46.04 425.361 45.72C424.881 45.44 423.961 45.16 422.601 44.84C420.361 44.4 418.561 43.96 417.201 43.48C414.481 42.56 413.161 40.8 413.161 38.2C413.161 36.12 413.961 34.56 415.641 33.44C417.281 32.32 419.641 31.76 422.761 31.76C424.001 31.76 425.161 31.88 426.201 32.12C427.241 32.36 428.241 32.68 429.121 33.16C430.001 33.64 430.681 34.36 431.241 35.24C431.761 36.12 432.041 37.2 432.121 38.4ZM448.667 32.36L448.627 36.8H444.387V45.32C444.387 46.4 444.547 47.16 444.787 47.56C445.067 47.96 445.747 48.2 446.827 48.2C447.627 48.2 448.227 48.16 448.627 48.12V53.12C447.067 53.24 445.787 53.32 444.787 53.32C442.027 53.32 440.147 52.8 439.147 51.84C438.107 50.84 437.627 49 437.627 46.32V36.76H434.227V32.36H437.627V26.04H444.427V32.36H448.667ZM466.494 32.08V38.16C465.414 37.92 464.534 37.76 463.814 37.76C460.374 37.76 458.694 39.72 458.694 43.6V53H451.934V32.36H458.414L458.374 35.88C459.094 34.52 459.934 33.52 460.934 32.88C461.934 32.24 463.214 31.88 464.734 31.88C465.294 31.88 465.854 31.96 466.494 32.08ZM488.765 53H481.885C481.685 52.44 481.565 51.76 481.565 51.04C479.645 52.8 477.365 53.64 474.725 53.64C472.485 53.64 470.685 53.08 469.405 51.96C468.125 50.84 467.485 49.28 467.485 47.28C467.485 46.32 467.645 45.44 468.005 44.68C468.325 43.96 468.725 43.36 469.205 42.96C469.645 42.56 470.325 42.16 471.205 41.84C472.085 41.52 472.805 41.32 473.445 41.2C474.045 41.08 474.885 40.92 476.005 40.76C478.565 40.36 480.045 40.12 480.365 39.96C481.085 39.68 481.445 39.12 481.445 38.28C481.445 36.84 480.365 36.08 478.285 36.08C477.165 36.08 476.365 36.28 475.885 36.6C475.405 36.96 475.045 37.64 474.805 38.68H468.405C468.805 34.08 472.125 31.76 478.365 31.76C481.685 31.76 484.205 32.4 485.965 33.64C486.725 34.2 487.245 34.88 487.525 35.6C487.805 36.36 487.965 37.44 487.965 38.8V47.08C487.965 49.8 488.205 51.8 488.765 53ZM481.445 43.32C481.125 43.48 480.725 43.64 480.325 43.76C479.885 43.92 479.525 44 479.285 44.04C479.045 44.12 478.605 44.2 478.045 44.32C477.485 44.44 477.125 44.52 476.965 44.52C475.285 44.88 474.445 45.72 474.445 47.04C474.445 47.84 474.685 48.44 475.165 48.84C475.645 49.28 476.285 49.48 477.125 49.48C478.325 49.48 479.325 49.16 480.165 48.44C481.005 47.72 481.445 46.72 481.445 45.44V43.32ZM504.956 32.36L504.916 36.8H500.676V45.32C500.676 46.4 500.836 47.16 501.076 47.56C501.356 47.96 502.036 48.2 503.116 48.2C503.916 48.2 504.516 48.16 504.916 48.12V53.12C503.356 53.24 502.076 53.32 501.076 53.32C498.316 53.32 496.436 52.8 495.436 51.84C494.396 50.84 493.916 49 493.916 46.32V36.76H490.516V32.36H493.916V26.04H500.716V32.36H504.956ZM515.023 24.52V29.64H508.223V24.52H515.023ZM515.023 32.36V53H508.223V32.36H515.023ZM532.299 32.36H539.219L532.259 53H524.419L517.459 32.36H524.579L528.419 45.76L532.299 32.36ZM551.343 31.76C554.543 31.76 557.103 32.8 559.103 34.8C561.103 36.8 562.103 39.44 562.103 42.68C562.103 45.92 561.103 48.56 559.103 50.6C557.103 52.64 554.463 53.68 551.223 53.68C547.983 53.68 545.343 52.64 543.343 50.64C541.343 48.6 540.343 45.96 540.343 42.72C540.343 39.48 541.343 36.84 543.383 34.8C545.423 32.8 548.063 31.76 551.343 31.76ZM551.143 36.84C549.863 36.84 548.903 37.32 548.183 38.36C547.463 39.4 547.103 40.84 547.103 42.72C547.103 44.64 547.463 46.12 548.183 47.16C548.903 48.2 549.943 48.72 551.223 48.72C552.543 48.72 553.543 48.16 554.263 47.12C554.983 46.08 555.303 44.6 555.303 42.68C555.303 40.8 554.943 39.36 554.223 38.36C553.503 37.32 552.503 36.84 551.143 36.84ZM599.014 24.52L598.974 53H592.494V50.56C591.094 52.56 589.134 53.52 586.574 53.52C583.854 53.52 581.614 52.52 579.934 50.52C578.254 48.52 577.414 45.88 577.414 42.56C577.414 39.36 578.254 36.76 579.854 34.8C581.454 32.84 583.614 31.84 586.254 31.84C588.774 31.84 590.774 32.84 592.254 34.76V24.52H599.014ZM588.334 37.08C587.054 37.08 586.054 37.56 585.334 38.52C584.614 39.48 584.254 40.84 584.254 42.6C584.254 44.36 584.614 45.72 585.334 46.68C586.054 47.64 587.054 48.12 588.334 48.12C589.654 48.12 590.654 47.64 591.374 46.68C592.094 45.72 592.454 44.4 592.454 42.64C592.454 40.92 592.094 39.56 591.374 38.56C590.654 37.6 589.614 37.08 588.334 37.08ZM624.609 44.32H609.249C609.249 45.84 609.689 47.04 610.529 47.88C611.369 48.72 612.529 49.12 613.969 49.12C615.649 49.12 616.969 48.32 617.849 46.72H624.209C623.529 48.96 622.289 50.64 620.489 51.84C618.689 53.04 616.489 53.64 613.889 53.64C610.609 53.64 607.889 52.68 605.769 50.76C603.649 48.84 602.609 46.2 602.609 42.92C602.609 39.68 603.609 37.04 605.689 34.96C607.729 32.88 610.369 31.84 613.649 31.84C617.009 31.84 619.689 32.92 621.649 35.04C623.609 37.16 624.609 40.04 624.609 43.72V44.32ZM617.929 40.44C617.809 39.24 617.369 38.24 616.649 37.52C615.929 36.8 614.929 36.4 613.689 36.4C611.209 36.4 609.729 37.76 609.329 40.44H617.929ZM640.839 53V24.52H655.679C658.479 24.52 660.799 25.24 662.599 26.64C664.399 28.04 665.319 30.08 665.319 32.76C665.319 36.08 663.839 38.4 660.919 39.72C662.799 40.36 663.999 41.6 664.519 43.4C664.839 44.6 665.159 46.6 665.399 49.44C665.399 49.52 665.399 49.72 665.439 50C665.439 50.28 665.479 50.48 665.479 50.56C665.479 50.68 665.519 50.84 665.559 51.08C665.559 51.32 665.599 51.48 665.639 51.6C665.679 51.72 665.719 51.88 665.799 52.04C665.839 52.24 665.919 52.4 665.999 52.56C666.079 52.72 666.199 52.84 666.319 53H658.759C658.519 52.52 658.359 51.92 658.279 51.28C658.159 50.64 658.079 49.84 658.039 48.88C657.959 47.96 657.919 47.36 657.919 47.04C657.719 45.36 657.239 44.16 656.519 43.44C655.759 42.76 654.519 42.4 652.839 42.4H648.279V53H640.839ZM648.279 37.12H653.519C654.919 37.12 655.999 36.88 656.799 36.4C657.599 35.92 657.999 35 657.999 33.6C657.999 31.4 656.479 30.28 653.439 30.28H648.279V37.12ZM690.547 44.32H675.187C675.187 45.84 675.627 47.04 676.467 47.88C677.307 48.72 678.467 49.12 679.907 49.12C681.587 49.12 682.907 48.32 683.787 46.72H690.147C689.467 48.96 688.227 50.64 686.427 51.84C684.627 53.04 682.427 53.64 679.827 53.64C676.547 53.64 673.827 52.68 671.707 50.76C669.587 48.84 668.547 46.2 668.547 42.92C668.547 39.68 669.547 37.04 671.627 34.96C673.667 32.88 676.307 31.84 679.587 31.84C682.947 31.84 685.627 32.92 687.587 35.04C689.547 37.16 690.547 40.04 690.547 43.72V44.32ZM683.867 40.44C683.747 39.24 683.307 38.24 682.587 37.52C681.867 36.8 680.867 36.4 679.627 36.4C677.147 36.4 675.667 37.76 675.267 40.44H683.867ZM712.16 38.4H705.92C705.76 37.52 705.44 36.92 704.92 36.56C704.36 36.2 703.6 36 702.6 36C700.76 36 699.88 36.56 699.88 37.68C699.88 37.88 699.88 38.04 699.96 38.2C700 38.36 700.08 38.52 700.24 38.64C700.36 38.76 700.48 38.84 700.6 38.92C700.68 39 700.84 39.04 701.08 39.12C701.28 39.2 701.44 39.24 701.56 39.28C701.64 39.32 701.84 39.36 702.08 39.4C702.32 39.44 702.48 39.48 702.56 39.48C705.48 40.12 707.56 40.64 708.8 41.04C711.44 42 712.76 43.8 712.76 46.44C712.76 48.68 711.88 50.4 710.12 51.68C708.36 52.96 705.92 53.56 702.84 53.56C700 53.56 697.64 53 695.8 51.88C693.92 50.76 692.92 48.84 692.8 46.2H699.24C699.36 48.16 700.6 49.12 703 49.12C703.96 49.12 704.72 48.96 705.28 48.56C705.84 48.2 706.12 47.68 706.12 47C706.12 46.44 705.88 46.04 705.4 45.72C704.92 45.44 704 45.16 702.64 44.84C700.4 44.4 698.6 43.96 697.24 43.48C694.52 42.56 693.2 40.8 693.2 38.2C693.2 36.12 694 34.56 695.68 33.44C697.32 32.32 699.68 31.76 702.8 31.76C704.04 31.76 705.2 31.88 706.24 32.12C707.28 32.36 708.28 32.68 709.16 33.16C710.04 33.64 710.72 34.36 711.28 35.24C711.8 36.12 712.08 37.2 712.16 38.4ZM736.786 32.36L736.746 53H730.226V50.24C728.586 52.48 726.386 53.6 723.626 53.6C721.146 53.6 719.306 52.88 718.066 51.36C716.826 49.84 716.226 47.84 716.226 45.28V32.36H723.106V43.76C723.106 44.48 723.106 45.04 723.186 45.44C723.226 45.84 723.346 46.28 723.546 46.72C723.706 47.16 724.026 47.48 724.466 47.68C724.906 47.88 725.506 47.96 726.226 47.96C727.666 47.96 728.666 47.56 729.226 46.68C729.746 45.84 730.026 44.64 730.026 43.12V32.36H736.786ZM748.422 24.52V53H741.622V24.52H748.422ZM765.738 32.36L765.698 36.8H761.458V45.32C761.458 46.4 761.618 47.16 761.858 47.56C762.138 47.96 762.818 48.2 763.898 48.2C764.698 48.2 765.298 48.16 765.698 48.12V53.12C764.138 53.24 762.858 53.32 761.858 53.32C759.098 53.32 757.218 52.8 756.217 51.84C755.178 50.84 754.698 49 754.698 46.32V36.76H751.298V32.36H754.698V26.04H761.497V32.36H765.738ZM788.804 53H781.924C781.724 52.44 781.604 51.76 781.604 51.04C779.684 52.8 777.404 53.64 774.764 53.64C772.524 53.64 770.724 53.08 769.444 51.96C768.164 50.84 767.524 49.28 767.524 47.28C767.524 46.32 767.684 45.44 768.044 44.68C768.364 43.96 768.764 43.36 769.244 42.96C769.684 42.56 770.364 42.16 771.244 41.84C772.124 41.52 772.844 41.32 773.484 41.2C774.084 41.08 774.924 40.92 776.044 40.76C778.604 40.36 780.084 40.12 780.404 39.96C781.124 39.68 781.484 39.12 781.484 38.28C781.484 36.84 780.404 36.08 778.324 36.08C777.204 36.08 776.404 36.28 775.924 36.6C775.444 36.96 775.084 37.64 774.844 38.68H768.444C768.844 34.08 772.164 31.76 778.404 31.76C781.724 31.76 784.244 32.4 786.004 33.64C786.764 34.2 787.284 34.88 787.564 35.6C787.844 36.36 788.004 37.44 788.004 38.8V47.08C788.004 49.8 788.244 51.8 788.804 53ZM781.484 43.32C781.164 43.48 780.764 43.64 780.364 43.76C779.924 43.92 779.564 44 779.324 44.04C779.084 44.12 778.644 44.2 778.084 44.32C777.524 44.44 777.164 44.52 777.004 44.52C775.324 44.88 774.484 45.72 774.484 47.04C774.484 47.84 774.724 48.44 775.204 48.84C775.684 49.28 776.324 49.48 777.164 49.48C778.364 49.48 779.364 49.16 780.204 48.44C781.044 47.72 781.484 46.72 781.484 45.44V43.32ZM813.115 24.52L813.075 53H806.595V50.56C805.195 52.56 803.235 53.52 800.675 53.52C797.955 53.52 795.715 52.52 794.035 50.52C792.355 48.52 791.515 45.88 791.515 42.56C791.515 39.36 792.355 36.76 793.955 34.8C795.555 32.84 797.715 31.84 800.355 31.84C802.875 31.84 804.875 32.84 806.355 34.76V24.52H813.115ZM802.435 37.08C801.155 37.08 800.155 37.56 799.435 38.52C798.715 39.48 798.355 40.84 798.355 42.6C798.355 44.36 798.715 45.72 799.435 46.68C800.155 47.64 801.155 48.12 802.435 48.12C803.755 48.12 804.755 47.64 805.475 46.68C806.195 45.72 806.555 44.4 806.555 42.64C806.555 40.92 806.195 39.56 805.475 38.56C804.755 37.6 803.715 37.08 802.435 37.08ZM827.711 31.76C830.911 31.76 833.471 32.8 835.471 34.8C837.471 36.8 838.471 39.44 838.471 42.68C838.471 45.92 837.471 48.56 835.471 50.6C833.471 52.64 830.831 53.68 827.591 53.68C824.351 53.68 821.711 52.64 819.711 50.64C817.711 48.6 816.711 45.96 816.711 42.72C816.711 39.48 817.711 36.84 819.751 34.8C821.791 32.8 824.431 31.76 827.711 31.76ZM827.511 36.84C826.231 36.84 825.271 37.32 824.551 38.36C823.831 39.4 823.471 40.84 823.471 42.72C823.471 44.64 823.831 46.12 824.551 47.16C825.271 48.2 826.311 48.72 827.591 48.72C828.911 48.72 829.911 48.16 830.631 47.12C831.351 46.08 831.671 44.6 831.671 42.68C831.671 40.8 831.311 39.36 830.591 38.36C829.871 37.32 828.871 36.84 827.511 36.84Z" fill="#303030"/>
</g>
<rect x="0.5" y="0.5" width="1279" height="999" stroke="#3A3A3A"/>
<defs>
<clipPath id="clip0_256_56">
<rect width="1280" height="1000" fill="white"/>
</clipPath>
<clipPath id="clip1_256_56">
<rect width="130.404" height="52" fill="white" transform="translate(66 12)"/>
</clipPath>
</defs>
</svg>
