<svg width="1280" height="720" viewBox="0 0 1280 720" fill="none" xmlns="http://www.w3.org/2000/svg">
<g clip-path="url(#clip0_259_167)">
<rect width="1280" height="720" fill="#EDEDED"/>
<rect x="1" y="1" width="260" height="720" fill="#3A3A3A"/>
<g clip-path="url(#clip1_259_167)">
<path d="M124.592 61.9351L113.418 42.5859C113.34 44.4639 112.834 46.2838 111.934 47.9214L111.956 47.9338L103.048 63.3599H123.769C124.264 63.3599 124.509 63.0274 124.592 62.885C124.675 62.7425 124.84 62.3635 124.592 61.9351Z" fill="#FC541F"/>
<path d="M96.4012 13.1156C96.1532 12.6872 95.7437 12.6406 95.5784 12.6406C95.4131 12.6406 95.0036 12.6872 94.7556 13.1156L66.5636 61.9349C66.3156 62.3633 66.4809 62.7423 66.5636 62.8848C66.6462 63.0272 66.8914 63.3597 67.3864 63.3597H74.9111L90.8536 35.7523L90.8774 35.7665C91.8749 34.1261 93.2488 32.7421 94.8934 31.7266C96.8829 30.4984 99.1783 29.8772 101.53 29.9247C103.431 29.9646 105.263 30.4434 106.907 31.3106L96.4002 13.1156H96.4012Z" fill="#FC541F"/>
<path d="M101.271 31.8213C95.614 31.8213 91.0117 36.4225 91.0117 42.0781C91.0117 47.7337 95.614 52.335 101.271 52.335C106.928 52.335 111.53 47.7337 111.53 42.0781C111.53 36.4225 106.928 31.8213 101.271 31.8213Z" fill="#FC541F"/>
<path d="M173.023 31.3066C172.655 30.7918 172.198 30.3339 171.65 29.934C171.103 29.5351 170.462 29.2188 169.726 28.987C169.431 28.9034 168.942 28.7714 168.258 28.5928C167.574 28.4142 166.874 28.2299 166.159 28.0409C165.444 27.8519 164.797 27.6781 164.218 27.5204C163.639 27.3627 163.308 27.2734 163.224 27.2525C162.424 27.0207 161.777 26.6797 161.283 26.2276C160.788 25.7754 160.541 25.1495 160.541 24.3506C160.541 23.7826 160.672 23.3095 160.935 22.9305C161.199 22.5515 161.529 22.2523 161.929 22.031C162.329 21.8097 162.771 21.652 163.255 21.558C163.738 21.463 164.211 21.4155 164.675 21.4155C166.042 21.4155 167.168 21.7156 168.052 22.315C168.935 22.9144 169.429 23.9403 169.535 25.3917H173.479C173.479 24.2138 173.248 23.1775 172.785 22.2837C172.322 21.3898 171.696 20.6375 170.908 20.0277C170.118 19.4179 169.203 18.96 168.162 18.6551C167.12 18.3502 166.011 18.1973 164.832 18.1973C163.822 18.1973 162.822 18.3284 161.833 18.5915C160.844 18.8555 159.961 19.2592 159.182 19.8064C158.403 20.3535 157.778 21.0422 157.304 21.8733C156.831 22.7045 156.594 23.6876 156.594 24.8237C156.594 25.4126 156.673 25.9911 156.831 26.5591C156.989 27.1271 157.257 27.6629 157.636 28.1682C158.015 28.6735 158.524 29.1304 159.166 29.5408C159.808 29.9511 160.612 30.2826 161.58 30.5344C163.138 30.9552 164.447 31.2971 165.51 31.5602C166.572 31.8234 167.503 32.1017 168.303 32.3961C168.766 32.5643 169.192 32.854 169.581 33.2643C169.97 33.6747 170.165 34.3111 170.165 35.1726C170.165 35.5934 170.08 36.0085 169.912 36.4189C169.744 36.8292 169.47 37.1921 169.091 37.5075C168.712 37.8228 168.218 38.0812 167.608 38.2807C166.997 38.4801 166.261 38.5799 165.399 38.5799C164.599 38.5799 163.857 38.4906 163.174 38.312C162.49 38.1334 161.884 37.8494 161.359 37.46C160.833 37.0705 160.422 36.5718 160.128 35.9611C159.833 35.3512 159.686 34.6151 159.686 33.7526H155.741C155.762 35.1413 156.025 36.3448 156.53 37.365C157.035 38.3852 157.708 39.2211 158.55 39.8736C159.391 40.5262 160.381 41.0097 161.516 41.325C162.652 41.6404 163.862 41.7981 165.145 41.7981C166.26 41.7981 167.354 41.667 168.427 41.4039C169.5 41.1408 170.457 40.7257 171.299 40.1576C172.14 39.5896 172.819 38.8591 173.335 37.9644C173.85 37.0705 174.108 35.9924 174.108 34.73C174.108 34.142 174.019 33.5521 173.84 32.9632C173.662 32.3743 173.388 31.8224 173.02 31.3066H173.023Z" fill="#EDEDED"/>
<path d="M152.242 21.1622C151.695 20.4679 150.917 19.8903 149.907 19.4268C148.897 18.9642 147.593 18.7324 145.994 18.7324H136.053V21.9506H145.836C146.361 21.9506 146.856 22.0038 147.319 22.1083C147.782 22.2137 148.192 22.4085 148.55 22.6925C148.907 22.9765 149.192 23.3603 149.402 23.8437C149.612 24.3282 149.718 24.938 149.718 25.6732C149.718 26.4084 149.596 26.9831 149.355 27.4562C149.113 27.9292 148.797 28.3082 148.409 28.5922C148.019 28.8762 147.593 29.0814 147.131 29.2077C146.668 29.3341 146.216 29.3968 145.774 29.3968H139.998V25.5307H136.054V41.2608H139.998V32.6159H145.994C147.593 32.6159 148.898 32.3899 149.908 31.9368C150.918 31.4846 151.696 30.9118 152.243 30.2175C152.79 29.5231 153.163 28.7717 153.363 27.9615C153.563 27.1522 153.664 26.3999 153.664 25.7055C153.664 25.0112 153.564 24.2541 153.363 23.4343C153.163 22.6136 152.79 21.8566 152.243 21.1622H152.242Z" fill="#EDEDED"/>
<path d="M193.004 32.3006H189.072H187.748H182.191L185.6 22.6146H185.694L187.823 28.7205H191.625L187.778 18.7334H183.58L174.933 41.2618H179.004L181.119 35.2984H190.113L192.227 41.2618H196.457L193.004 32.3006Z" fill="#EDEDED"/>
<path d="M136.052 52.043H137.143V58.2776H136.052V52.043Z" fill="#EDEDED"/>
<path d="M162.796 52.043H163.888V58.2776H162.796V52.043Z" fill="#EDEDED"/>
<path d="M172.224 52.043H176.713V52.9861H173.315V54.6189H176.459V55.5098H173.315V57.3344H176.774V58.2776H172.224V52.043Z" fill="#EDEDED"/>
<path d="M191.514 52.043H196.003V52.9861H192.605V54.6189H195.749V55.5098H192.605V57.3344H196.064V58.2776H191.514V52.043Z" fill="#EDEDED"/>
<path d="M157.188 52.043H158.279V57.3344H161.45V58.2776H157.188V52.043Z" fill="#EDEDED"/>
<path d="M189.066 54.0801C189.019 53.9078 188.955 53.7492 188.874 53.605C188.792 53.4609 188.688 53.3358 188.559 53.2297C188.431 53.1245 188.281 53.042 188.11 52.984C187.938 52.926 187.739 52.8961 187.511 52.8961C187.18 52.8961 186.893 52.9604 186.652 53.0883C186.41 53.2161 186.214 53.3874 186.062 53.6005C185.911 53.8144 185.798 54.0574 185.725 54.3294C185.652 54.6014 185.616 54.8797 185.616 55.1625C185.616 55.4454 185.652 55.7237 185.725 55.9957C185.798 56.2677 185.911 56.5115 186.062 56.7246C186.213 56.9385 186.409 57.109 186.652 57.2368C186.893 57.3646 187.18 57.4281 187.511 57.4281C187.756 57.4281 187.971 57.3882 188.158 57.3075C188.344 57.2268 188.504 57.1162 188.638 56.9739C188.772 56.8325 188.877 56.6666 188.953 56.478C189.029 56.2894 189.078 56.0864 189.101 55.8697H190.166C190.142 56.2251 190.062 56.5505 189.926 56.8443C189.789 57.1389 189.604 57.3927 189.371 57.6067C189.138 57.8207 188.864 57.9857 188.55 58.1026C188.235 58.2196 187.889 58.2776 187.511 58.2776C187.045 58.2776 186.627 58.1951 186.257 58.0319C185.888 57.8678 185.574 57.6439 185.319 57.361C185.062 57.0773 184.865 56.7473 184.73 56.3692C184.593 55.9912 184.524 55.5886 184.524 55.1607C184.524 54.7328 184.593 54.3385 184.73 53.9604C184.866 53.5824 185.063 53.2524 185.319 52.9686C185.575 52.6848 185.888 52.46 186.257 52.2932C186.627 52.1264 187.045 52.043 187.511 52.043C187.86 52.043 188.189 52.0883 188.498 52.1808C188.806 52.2723 189.078 52.4056 189.314 52.5806C189.549 52.7555 189.74 52.9686 189.886 53.2179C190.031 53.4681 190.121 53.7546 190.157 54.0764H189.065L189.066 54.0801Z" fill="#EDEDED"/>
<path d="M138.49 52.043H139.643L142.49 56.6353H142.507V52.043H143.547V58.2776H142.394L139.556 53.6938H139.53V58.2776H138.49V52.043Z" fill="#EDEDED"/>
<path d="M178.121 52.043H179.274L182.121 56.6353H182.138V52.043H183.177V58.2776H182.025L179.187 53.6938H179.16V58.2776H178.121V52.043Z" fill="#EDEDED"/>
<path d="M144.893 52.043H150.012V52.9804H148.001V58.2399H146.894V52.9804H144.893V52.043Z" fill="#EDEDED"/>
<path d="M151.29 52.043H155.779V52.9861H152.382V54.6189H155.526V55.5098H152.382V57.3344H155.84V58.2776H151.29V52.043Z" fill="#EDEDED"/>
<path d="M169.777 54.0801C169.73 53.9078 169.666 53.7492 169.585 53.605C169.503 53.4609 169.399 53.3358 169.27 53.2297C169.142 53.1245 168.992 53.042 168.821 52.984C168.649 52.926 168.45 52.8961 168.222 52.8961C167.891 52.8961 167.604 52.9604 167.363 53.0883C167.121 53.2161 166.925 53.3874 166.773 53.6005C166.622 53.8144 166.509 54.0574 166.436 54.3294C166.363 54.6014 166.327 54.8797 166.327 55.1625C166.327 55.4454 166.363 55.7237 166.436 55.9957C166.509 56.2677 166.622 56.5115 166.773 56.7246C166.924 56.9385 167.12 57.109 167.363 57.2368C167.604 57.3646 167.891 57.4281 168.222 57.4281C168.467 57.4281 168.682 57.3882 168.869 57.3075C169.055 57.2268 169.215 57.1162 169.349 56.9739C169.483 56.8325 169.588 56.6666 169.664 56.478C169.74 56.2894 169.754 56.2796 169.777 56.0629H168.5V55.6772V55.2915H169.812H170.386H170.877V55.8697C170.853 56.2251 170.773 56.5505 170.637 56.8443C170.5 57.1389 170.315 57.3927 170.082 57.6067C169.849 57.8207 169.575 57.9857 169.261 58.1026C168.946 58.2196 168.6 58.2776 168.221 58.2776C167.756 58.2776 167.338 58.1951 166.968 58.0319C166.599 57.8678 166.285 57.6439 166.03 57.361C165.773 57.0773 165.576 56.7473 165.441 56.3692C165.304 55.9912 165.235 55.5886 165.235 55.1607C165.235 54.7328 165.304 54.3385 165.441 53.9604C165.577 53.5824 165.774 53.2524 166.03 52.9686C166.286 52.6848 166.599 52.46 166.968 52.2932C167.338 52.1264 167.756 52.043 168.221 52.043C168.571 52.043 168.9 52.0883 169.209 52.1808C169.517 52.2723 169.789 52.4056 170.025 52.5806C170.26 52.7555 170.451 52.9686 170.597 53.2179C170.742 53.4681 170.832 53.7546 170.867 54.0764H169.776L169.777 54.0801Z" fill="#EDEDED"/>
</g>
<path d="M295.633 24.52V30.52H280.233V35.44H294.313V41.2H280.233V46.76H295.993V53H272.833V24.52H295.633ZM318.136 38.4H311.896C311.736 37.52 311.416 36.92 310.896 36.56C310.336 36.2 309.576 36 308.576 36C306.736 36 305.856 36.56 305.856 37.68C305.856 37.88 305.856 38.04 305.936 38.2C305.976 38.36 306.056 38.52 306.216 38.64C306.336 38.76 306.456 38.84 306.576 38.92C306.656 39 306.816 39.04 307.056 39.12C307.256 39.2 307.416 39.24 307.536 39.28C307.616 39.32 307.816 39.36 308.056 39.4C308.296 39.44 308.456 39.48 308.536 39.48C311.456 40.12 313.536 40.64 314.776 41.04C317.416 42 318.736 43.8 318.736 46.44C318.736 48.68 317.856 50.4 316.096 51.68C314.336 52.96 311.896 53.56 308.816 53.56C305.976 53.56 303.616 53 301.776 51.88C299.896 50.76 298.896 48.84 298.776 46.2H305.216C305.336 48.16 306.576 49.12 308.976 49.12C309.936 49.12 310.696 48.96 311.256 48.56C311.816 48.2 312.096 47.68 312.096 47C312.096 46.44 311.856 46.04 311.376 45.72C310.896 45.44 309.976 45.16 308.616 44.84C306.376 44.4 304.576 43.96 303.216 43.48C300.496 42.56 299.176 40.8 299.176 38.2C299.176 36.12 299.976 34.56 301.656 33.44C303.296 32.32 305.656 31.76 308.776 31.76C310.016 31.76 311.176 31.88 312.216 32.12C313.256 32.36 314.256 32.68 315.136 33.16C316.016 33.64 316.696 34.36 317.256 35.24C317.776 36.12 318.056 37.2 318.136 38.4ZM334.683 32.36L334.643 36.8H330.403V45.32C330.403 46.4 330.563 47.16 330.803 47.56C331.083 47.96 331.763 48.2 332.843 48.2C333.643 48.2 334.243 48.16 334.643 48.12V53.12C333.083 53.24 331.803 53.32 330.803 53.32C328.043 53.32 326.163 52.8 325.163 51.84C324.123 50.84 323.643 49 323.643 46.32V36.76H320.243V32.36H323.643V26.04H330.443V32.36H334.683ZM347.75 31.76C350.95 31.76 353.51 32.8 355.51 34.8C357.51 36.8 358.51 39.44 358.51 42.68C358.51 45.92 357.51 48.56 355.51 50.6C353.51 52.64 350.87 53.68 347.63 53.68C344.39 53.68 341.75 52.64 339.75 50.64C337.75 48.6 336.75 45.96 336.75 42.72C336.75 39.48 337.75 36.84 339.79 34.8C341.83 32.8 344.47 31.76 347.75 31.76ZM347.55 36.84C346.27 36.84 345.31 37.32 344.59 38.36C343.87 39.4 343.51 40.84 343.51 42.72C343.51 44.64 343.87 46.12 344.59 47.16C345.31 48.2 346.35 48.72 347.63 48.72C348.95 48.72 349.95 48.16 350.67 47.12C351.39 46.08 351.71 44.6 351.71 42.68C351.71 40.8 351.35 39.36 350.63 38.36C349.91 37.32 348.91 36.84 347.55 36.84ZM382.803 32.36V60.04H376.043V50.64C375.083 51.64 374.203 52.36 373.323 52.84C372.443 53.32 371.323 53.56 370.043 53.56C367.363 53.56 365.243 52.56 363.643 50.64C362.043 48.68 361.243 46.08 361.243 42.84C361.203 39.56 362.003 36.88 363.683 34.88C365.363 32.88 367.563 31.84 370.283 31.84C372.843 31.84 374.843 32.8 376.323 34.72V32.36H382.803ZM372.123 37.24C370.803 37.24 369.803 37.72 369.083 38.72C368.363 39.72 368.003 41.12 368.003 42.96C368.003 44.64 368.363 45.96 369.083 46.92C369.803 47.84 370.803 48.32 372.123 48.32C373.443 48.32 374.483 47.8 375.203 46.84C375.923 45.88 376.283 44.48 376.283 42.72C376.283 41 375.883 39.64 375.163 38.68C374.443 37.72 373.403 37.24 372.123 37.24ZM407.958 32.36L407.918 53H401.398V50.24C399.758 52.48 397.558 53.6 394.798 53.6C392.318 53.6 390.478 52.88 389.238 51.36C387.998 49.84 387.398 47.84 387.398 45.28V32.36H394.278V43.76C394.278 44.48 394.278 45.04 394.358 45.44C394.398 45.84 394.518 46.28 394.718 46.72C394.878 47.16 395.198 47.48 395.638 47.68C396.078 47.88 396.678 47.96 397.398 47.96C398.838 47.96 399.838 47.56 400.398 46.68C400.918 45.84 401.198 44.64 401.198 43.12V32.36H407.958ZM433.593 44.32H418.233C418.233 45.84 418.673 47.04 419.513 47.88C420.353 48.72 421.513 49.12 422.953 49.12C424.633 49.12 425.953 48.32 426.833 46.72H433.193C432.513 48.96 431.273 50.64 429.473 51.84C427.673 53.04 425.473 53.64 422.873 53.64C419.593 53.64 416.873 52.68 414.753 50.76C412.633 48.84 411.593 46.2 411.593 42.92C411.593 39.68 412.593 37.04 414.673 34.96C416.713 32.88 419.353 31.84 422.633 31.84C425.993 31.84 428.673 32.92 430.633 35.04C432.593 37.16 433.593 40.04 433.593 43.72V44.32ZM426.913 40.44C426.793 39.24 426.353 38.24 425.633 37.52C424.913 36.8 423.913 36.4 422.673 36.4C420.193 36.4 418.713 37.76 418.313 40.44H426.913Z" fill="#303030"/>
</g>
<rect x="0.5" y="0.5" width="1279" height="719" stroke="#3A3A3A"/>
<defs>
<clipPath id="clip0_259_167">
<rect width="1280" height="720" fill="white"/>
</clipPath>
<clipPath id="clip1_259_167">
<rect width="130.404" height="52" fill="white" transform="translate(66 12)"/>
</clipPath>
</defs>
</svg>
