<svg width="1280" height="720" viewBox="0 0 1280 720" fill="none" xmlns="http://www.w3.org/2000/svg">
<g clip-path="url(#clip0_262_237)">
<rect width="1280" height="720" fill="#EDEDED"/>
<rect x="1" y="1" width="260" height="720" fill="#3A3A3A"/>
<g clip-path="url(#clip1_262_237)">
<path d="M124.591 61.9351L113.417 42.5859C113.339 44.4639 112.833 46.2838 111.933 47.9214L111.955 47.9338L103.047 63.3599H123.768C124.263 63.3599 124.508 63.0274 124.591 62.885C124.674 62.7425 124.839 62.3635 124.591 61.9351Z" fill="#FC541F"/>
<path d="M96.4002 13.1156C96.1522 12.6872 95.7427 12.6406 95.5774 12.6406C95.4121 12.6406 95.0026 12.6872 94.7546 13.1156L66.5626 61.9349C66.3146 62.3633 66.48 62.7423 66.5626 62.8848C66.6453 63.0272 66.8904 63.3597 67.3854 63.3597H74.9101L90.8526 35.7523L90.8764 35.7665C91.874 34.1261 93.2478 32.7421 94.8924 31.7266C96.8819 30.4984 99.1773 29.8772 101.529 29.9247C103.43 29.9646 105.262 30.4434 106.906 31.3106L96.3993 13.1156H96.4002Z" fill="#FC541F"/>
<path d="M101.269 31.8213C95.612 31.8213 91.0098 36.4225 91.0098 42.0781C91.0098 47.7337 95.612 52.335 101.269 52.335C106.926 52.335 111.528 47.7337 111.528 42.0781C111.528 36.4225 106.926 31.8213 101.269 31.8213Z" fill="#FC541F"/>
<path d="M173.024 31.3066C172.656 30.7918 172.199 30.3339 171.651 29.934C171.104 29.5351 170.463 29.2188 169.727 28.987C169.432 28.9034 168.943 28.7714 168.259 28.5928C167.575 28.4142 166.875 28.2299 166.16 28.0409C165.445 27.8519 164.798 27.6781 164.219 27.5204C163.64 27.3627 163.309 27.2734 163.225 27.2525C162.425 27.0207 161.778 26.6797 161.284 26.2276C160.789 25.7754 160.542 25.1495 160.542 24.3506C160.542 23.7826 160.673 23.3095 160.936 22.9305C161.2 22.5515 161.53 22.2523 161.93 22.031C162.33 21.8097 162.772 21.652 163.256 21.558C163.739 21.463 164.212 21.4155 164.676 21.4155C166.043 21.4155 167.169 21.7156 168.053 22.315C168.936 22.9144 169.43 23.9403 169.536 25.3917H173.48C173.48 24.2138 173.249 23.1775 172.786 22.2837C172.323 21.3898 171.697 20.6375 170.908 20.0277C170.119 19.4179 169.204 18.96 168.163 18.6551C167.121 18.3502 166.012 18.1973 164.833 18.1973C163.823 18.1973 162.823 18.3284 161.834 18.5915C160.845 18.8555 159.962 19.2592 159.183 19.8064C158.404 20.3535 157.779 21.0422 157.305 21.8733C156.832 22.7045 156.595 23.6876 156.595 24.8237C156.595 25.4126 156.674 25.9911 156.832 26.5591C156.99 27.1271 157.258 27.6629 157.637 28.1682C158.016 28.6735 158.525 29.1304 159.167 29.5408C159.809 29.9511 160.613 30.2826 161.581 30.5344C163.139 30.9552 164.448 31.2971 165.511 31.5602C166.573 31.8234 167.504 32.1017 168.304 32.3961C168.767 32.5643 169.193 32.854 169.582 33.2643C169.971 33.6747 170.166 34.3111 170.166 35.1726C170.166 35.5934 170.081 36.0085 169.913 36.4189C169.745 36.8292 169.471 37.1921 169.092 37.5075C168.713 37.8228 168.219 38.0812 167.609 38.2807C166.998 38.4801 166.262 38.5799 165.4 38.5799C164.6 38.5799 163.858 38.4906 163.175 38.312C162.491 38.1334 161.885 37.8494 161.36 37.46C160.834 37.0705 160.423 36.5718 160.129 35.9611C159.834 35.3512 159.687 34.6151 159.687 33.7526H155.742C155.763 35.1413 156.026 36.3448 156.531 37.365C157.036 38.3852 157.709 39.2211 158.551 39.8736C159.391 40.5262 160.381 41.0097 161.517 41.325C162.653 41.6404 163.863 41.7981 165.146 41.7981C166.261 41.7981 167.355 41.667 168.428 41.4039C169.501 41.1408 170.458 40.7257 171.3 40.1576C172.141 39.5896 172.82 38.8591 173.336 37.9644C173.851 37.0705 174.109 35.9924 174.109 34.73C174.109 34.142 174.02 33.5521 173.841 32.9632C173.663 32.3743 173.389 31.8224 173.021 31.3066H173.024Z" fill="#EDEDED"/>
<path d="M152.242 21.1622C151.695 20.4679 150.917 19.8903 149.907 19.4268C148.897 18.9642 147.593 18.7324 145.994 18.7324H136.053V21.9506H145.836C146.361 21.9506 146.856 22.0038 147.319 22.1083C147.782 22.2137 148.192 22.4085 148.55 22.6925C148.907 22.9765 149.192 23.3603 149.402 23.8437C149.612 24.3282 149.718 24.938 149.718 25.6732C149.718 26.4084 149.596 26.9831 149.355 27.4562C149.113 27.9292 148.797 28.3082 148.409 28.5922C148.019 28.8762 147.593 29.0814 147.131 29.2077C146.668 29.3341 146.216 29.3968 145.774 29.3968H139.998V25.5307H136.054V41.2608H139.998V32.6159H145.994C147.593 32.6159 148.898 32.3899 149.908 31.9368C150.918 31.4846 151.696 30.9118 152.243 30.2175C152.79 29.5231 153.163 28.7717 153.363 27.9615C153.563 27.1522 153.664 26.3999 153.664 25.7055C153.664 25.0112 153.564 24.2541 153.363 23.4343C153.163 22.6136 152.79 21.8566 152.243 21.1622H152.242Z" fill="#EDEDED"/>
<path d="M193.003 32.3006H189.071H187.747H182.19L185.599 22.6146H185.693L187.822 28.7205H191.624L187.777 18.7334H183.579L174.932 41.2618H179.003L181.118 35.2984H190.112L192.226 41.2618H196.456L193.003 32.3006Z" fill="#EDEDED"/>
<path d="M136.053 52.043H137.144V58.2776H136.053V52.043Z" fill="#EDEDED"/>
<path d="M162.797 52.043H163.889V58.2776H162.797V52.043Z" fill="#EDEDED"/>
<path d="M172.225 52.043H176.714V52.9861H173.316V54.6189H176.46V55.5098H173.316V57.3344H176.775V58.2776H172.225V52.043Z" fill="#EDEDED"/>
<path d="M191.514 52.043H196.003V52.9861H192.605V54.6189H195.749V55.5098H192.605V57.3344H196.064V58.2776H191.514V52.043Z" fill="#EDEDED"/>
<path d="M157.188 52.043H158.279V57.3344H161.45V58.2776H157.188V52.043Z" fill="#EDEDED"/>
<path d="M189.067 54.0801C189.02 53.9078 188.956 53.7492 188.875 53.605C188.793 53.4609 188.689 53.3358 188.56 53.2297C188.432 53.1245 188.282 53.042 188.111 52.984C187.939 52.926 187.74 52.8961 187.512 52.8961C187.181 52.8961 186.894 52.9604 186.653 53.0883C186.411 53.2161 186.215 53.3874 186.063 53.6005C185.912 53.8144 185.799 54.0574 185.726 54.3294C185.653 54.6014 185.617 54.8797 185.617 55.1625C185.617 55.4454 185.653 55.7237 185.726 55.9957C185.799 56.2677 185.912 56.5115 186.063 56.7246C186.214 56.9385 186.41 57.109 186.653 57.2368C186.894 57.3646 187.181 57.4281 187.512 57.4281C187.757 57.4281 187.972 57.3882 188.159 57.3075C188.345 57.2268 188.505 57.1162 188.639 56.9739C188.773 56.8325 188.878 56.6666 188.954 56.478C189.03 56.2894 189.079 56.0864 189.102 55.8697H190.167C190.143 56.2251 190.063 56.5505 189.927 56.8443C189.79 57.1389 189.605 57.3927 189.372 57.6067C189.139 57.8207 188.865 57.9857 188.551 58.1026C188.236 58.2196 187.89 58.2776 187.512 58.2776C187.046 58.2776 186.628 58.1951 186.258 58.0319C185.889 57.8678 185.575 57.6439 185.32 57.361C185.063 57.0773 184.866 56.7473 184.731 56.3692C184.594 55.9912 184.525 55.5886 184.525 55.1607C184.525 54.7328 184.594 54.3385 184.731 53.9604C184.867 53.5824 185.064 53.2524 185.32 52.9686C185.576 52.6848 185.889 52.46 186.258 52.2932C186.628 52.1264 187.046 52.043 187.512 52.043C187.861 52.043 188.19 52.0883 188.499 52.1808C188.807 52.2723 189.079 52.4056 189.315 52.5806C189.55 52.7555 189.741 52.9686 189.887 53.2179C190.032 53.4681 190.122 53.7546 190.158 54.0764H189.066L189.067 54.0801Z" fill="#EDEDED"/>
<path d="M138.492 52.043H139.645L142.492 56.6353H142.509V52.043H143.549V58.2776H142.396L139.558 53.6938H139.532V58.2776H138.492V52.043Z" fill="#EDEDED"/>
<path d="M178.123 52.043H179.276L182.123 56.6353H182.14V52.043H183.179V58.2776H182.027L179.189 53.6938H179.162V58.2776H178.123V52.043Z" fill="#EDEDED"/>
<path d="M144.893 52.043H150.012V52.9804H148.001V58.2399H146.894V52.9804H144.893V52.043Z" fill="#EDEDED"/>
<path d="M151.291 52.043H155.78V52.9861H152.383V54.6189H155.527V55.5098H152.383V57.3344H155.841V58.2776H151.291V52.043Z" fill="#EDEDED"/>
<path d="M169.778 54.0801C169.731 53.9078 169.667 53.7492 169.586 53.605C169.504 53.4609 169.4 53.3358 169.271 53.2297C169.143 53.1245 168.993 53.042 168.822 52.984C168.65 52.926 168.45 52.8961 168.223 52.8961C167.892 52.8961 167.605 52.9604 167.364 53.0883C167.122 53.2161 166.926 53.3874 166.774 53.6005C166.623 53.8144 166.51 54.0574 166.437 54.3294C166.364 54.6014 166.328 54.8797 166.328 55.1625C166.328 55.4454 166.364 55.7237 166.437 55.9957C166.51 56.2677 166.623 56.5115 166.774 56.7246C166.925 56.9385 167.121 57.109 167.364 57.2368C167.605 57.3646 167.892 57.4281 168.223 57.4281C168.468 57.4281 168.683 57.3882 168.869 57.3075C169.056 57.2268 169.216 57.1162 169.35 56.9739C169.484 56.8325 169.589 56.6666 169.665 56.478C169.741 56.2894 169.755 56.2796 169.778 56.0629H168.501V55.6772V55.2915H169.813H170.387H170.878V55.8697C170.854 56.2251 170.774 56.5505 170.638 56.8443C170.501 57.1389 170.316 57.3927 170.083 57.6067C169.85 57.8207 169.576 57.9857 169.262 58.1026C168.947 58.2196 168.601 58.2776 168.222 58.2776C167.757 58.2776 167.339 58.1951 166.969 58.0319C166.6 57.8678 166.286 57.6439 166.031 57.361C165.774 57.0773 165.577 56.7473 165.442 56.3692C165.305 55.9912 165.236 55.5886 165.236 55.1607C165.236 54.7328 165.305 54.3385 165.442 53.9604C165.578 53.5824 165.775 53.2524 166.031 52.9686C166.287 52.6848 166.6 52.46 166.969 52.2932C167.339 52.1264 167.757 52.043 168.222 52.043C168.572 52.043 168.901 52.0883 169.21 52.1808C169.518 52.2723 169.79 52.4056 170.026 52.5806C170.261 52.7555 170.452 52.9686 170.598 53.2179C170.743 53.4681 170.833 53.7546 170.868 54.0764H169.777L169.778 54.0801Z" fill="#EDEDED"/>
</g>
<path d="M299.108 37.48V53.04H294.348L293.908 49.96C292.628 51.36 291.308 52.32 290.028 52.84C288.748 53.4 287.108 53.64 285.108 53.64C281.068 53.64 277.828 52.32 275.388 49.64C272.908 47 271.708 43.48 271.708 39.08C271.708 34.52 273.028 30.88 275.668 28.08C278.308 25.28 281.788 23.88 286.148 23.88C289.628 23.88 292.508 24.8 294.748 26.56C296.988 28.36 298.308 30.92 298.708 34.24H291.508C290.708 31.52 288.908 30.2 286.028 30.2C284.428 30.2 283.068 30.6 282.028 31.48C280.988 32.36 280.268 33.4 279.868 34.68C279.468 35.92 279.268 37.32 279.268 38.88C279.268 41.52 279.828 43.68 280.948 45.28C282.068 46.92 283.908 47.72 286.428 47.72C288.148 47.72 289.468 47.36 290.348 46.56C291.228 45.76 291.908 44.52 292.308 42.84H287.148V37.48H299.108ZM324.601 44.32H309.241C309.241 45.84 309.681 47.04 310.521 47.88C311.361 48.72 312.521 49.12 313.961 49.12C315.641 49.12 316.961 48.32 317.841 46.72H324.201C323.521 48.96 322.281 50.64 320.481 51.84C318.681 53.04 316.481 53.64 313.881 53.64C310.601 53.64 307.881 52.68 305.761 50.76C303.641 48.84 302.601 46.2 302.601 42.92C302.601 39.68 303.601 37.04 305.681 34.96C307.721 32.88 310.361 31.84 313.641 31.84C317.001 31.84 319.681 32.92 321.641 35.04C323.601 37.16 324.601 40.04 324.601 43.72V44.32ZM317.921 40.44C317.801 39.24 317.361 38.24 316.641 37.52C315.921 36.8 314.921 36.4 313.681 36.4C311.201 36.4 309.721 37.76 309.321 40.44H317.921ZM346.214 38.4H339.974C339.814 37.52 339.494 36.92 338.974 36.56C338.414 36.2 337.654 36 336.654 36C334.814 36 333.934 36.56 333.934 37.68C333.934 37.88 333.934 38.04 334.014 38.2C334.054 38.36 334.134 38.52 334.294 38.64C334.414 38.76 334.534 38.84 334.654 38.92C334.734 39 334.894 39.04 335.134 39.12C335.334 39.2 335.494 39.24 335.614 39.28C335.694 39.32 335.894 39.36 336.134 39.4C336.374 39.44 336.534 39.48 336.614 39.48C339.534 40.12 341.614 40.64 342.854 41.04C345.494 42 346.814 43.8 346.814 46.44C346.814 48.68 345.934 50.4 344.174 51.68C342.414 52.96 339.974 53.56 336.894 53.56C334.054 53.56 331.694 53 329.854 51.88C327.974 50.76 326.974 48.84 326.854 46.2H333.294C333.414 48.16 334.654 49.12 337.054 49.12C338.014 49.12 338.774 48.96 339.334 48.56C339.894 48.2 340.174 47.68 340.174 47C340.174 46.44 339.934 46.04 339.454 45.72C338.974 45.44 338.054 45.16 336.694 44.84C334.454 44.4 332.654 43.96 331.294 43.48C328.574 42.56 327.254 40.8 327.254 38.2C327.254 36.12 328.054 34.56 329.734 33.44C331.374 32.32 333.734 31.76 336.854 31.76C338.094 31.76 339.254 31.88 340.294 32.12C341.334 32.36 342.334 32.68 343.214 33.16C344.094 33.64 344.774 34.36 345.334 35.24C345.854 36.12 346.134 37.2 346.214 38.4ZM362.761 32.36L362.721 36.8H358.481V45.32C358.481 46.4 358.641 47.16 358.881 47.56C359.161 47.96 359.841 48.2 360.921 48.2C361.721 48.2 362.321 48.16 362.721 48.12V53.12C361.161 53.24 359.881 53.32 358.881 53.32C356.121 53.32 354.241 52.8 353.241 51.84C352.201 50.84 351.721 49 351.721 46.32V36.76H348.321V32.36H351.721V26.04H358.521V32.36H362.761ZM371.868 38.64H365.468C365.588 36.12 366.668 34.28 368.708 33.08C370.388 32.12 372.588 31.64 375.308 31.64C376.388 31.64 377.348 31.72 378.228 31.8C379.108 31.92 379.988 32.12 380.868 32.4C381.748 32.72 382.468 33.12 383.068 33.6C383.628 34.12 384.108 34.8 384.468 35.64C384.828 36.48 385.028 37.48 385.028 38.6V47.68C385.028 50.16 385.268 51.92 385.828 53H378.988C378.908 52.88 378.788 52.24 378.588 51.04C376.988 52.76 374.708 53.6 371.748 53.6C369.628 53.6 367.908 53.08 366.628 52C365.308 50.96 364.668 49.4 364.668 47.32C364.668 46.28 364.868 45.32 365.268 44.52C365.668 43.72 366.148 43.12 366.708 42.68C367.268 42.28 367.988 41.88 368.948 41.56C369.908 41.24 370.748 41.04 371.468 40.92C372.188 40.84 373.108 40.68 374.228 40.52C375.348 40.36 376.188 40.24 376.748 40.12C377.388 39.96 377.828 39.76 378.108 39.52C378.388 39.28 378.548 38.84 378.548 38.2C378.548 37.48 378.188 36.96 377.508 36.6C376.828 36.24 376.068 36.04 375.268 36.04C373.308 36.04 372.188 36.92 371.868 38.64ZM371.428 47.04C371.428 48.64 372.388 49.4 374.268 49.4C375.868 49.4 376.988 48.96 377.628 48C378.268 47.04 378.508 45.48 378.428 43.28C378.068 43.52 377.348 43.76 376.268 43.96C375.188 44.2 374.508 44.32 374.228 44.4C372.388 44.84 371.428 45.72 371.428 47.04ZM380.148 24.28H383.028C382.828 25.8 382.348 27 381.548 27.96C380.748 28.92 379.668 29.36 378.268 29.36C377.388 29.36 376.308 29.12 375.028 28.64C373.748 28.16 372.868 27.92 372.468 27.92C371.628 27.92 371.028 28.52 370.668 29.72H367.828C368.028 28.28 368.548 27.04 369.388 25.92C370.268 24.84 371.348 24.28 372.668 24.28C373.508 24.28 374.588 24.56 375.868 25.08C377.148 25.64 378.028 25.92 378.468 25.92C379.268 25.92 379.828 25.4 380.148 24.28ZM399.539 31.76C402.739 31.76 405.299 32.8 407.299 34.8C409.299 36.8 410.299 39.44 410.299 42.68C410.299 45.92 409.299 48.56 407.299 50.6C405.299 52.64 402.659 53.68 399.419 53.68C396.179 53.68 393.539 52.64 391.539 50.64C389.539 48.6 388.539 45.96 388.539 42.72C388.539 39.48 389.539 36.84 391.579 34.8C393.619 32.8 396.259 31.76 399.539 31.76ZM399.339 36.84C398.059 36.84 397.099 37.32 396.379 38.36C395.659 39.4 395.299 40.84 395.299 42.72C395.299 44.64 395.659 46.12 396.379 47.16C397.099 48.2 398.139 48.72 399.419 48.72C400.739 48.72 401.739 48.16 402.459 47.12C403.179 46.08 403.499 44.6 403.499 42.68C403.499 40.8 403.139 39.36 402.419 38.36C401.699 37.32 400.699 36.84 399.339 36.84ZM447.209 24.52L447.169 53H440.689V50.56C439.289 52.56 437.329 53.52 434.769 53.52C432.049 53.52 429.809 52.52 428.129 50.52C426.449 48.52 425.609 45.88 425.609 42.56C425.609 39.36 426.449 36.76 428.049 34.8C429.649 32.84 431.809 31.84 434.449 31.84C436.969 31.84 438.969 32.84 440.449 34.76V24.52H447.209ZM436.529 37.08C435.249 37.08 434.249 37.56 433.529 38.52C432.809 39.48 432.449 40.84 432.449 42.6C432.449 44.36 432.809 45.72 433.529 46.68C434.249 47.64 435.249 48.12 436.529 48.12C437.849 48.12 438.849 47.64 439.569 46.68C440.289 45.72 440.649 44.4 440.649 42.64C440.649 40.92 440.289 39.56 439.569 38.56C438.849 37.6 437.809 37.08 436.529 37.08ZM472.804 44.32H457.444C457.444 45.84 457.884 47.04 458.724 47.88C459.564 48.72 460.724 49.12 462.164 49.12C463.844 49.12 465.164 48.32 466.044 46.72H472.404C471.724 48.96 470.484 50.64 468.684 51.84C466.884 53.04 464.684 53.64 462.084 53.64C458.804 53.64 456.084 52.68 453.964 50.76C451.844 48.84 450.804 46.2 450.804 42.92C450.804 39.68 451.804 37.04 453.884 34.96C455.924 32.88 458.564 31.84 461.844 31.84C465.204 31.84 467.884 32.92 469.844 35.04C471.804 37.16 472.804 40.04 472.804 43.72V44.32ZM466.124 40.44C466.004 39.24 465.564 38.24 464.844 37.52C464.124 36.8 463.124 36.4 461.884 36.4C459.404 36.4 457.924 37.76 457.524 40.44H466.124ZM516.195 38.8C516.195 43.12 514.915 46.68 512.395 49.48C509.875 52.28 506.515 53.68 502.315 53.68C497.955 53.68 494.475 52.32 491.915 49.52C489.315 46.76 488.035 43.16 488.035 38.76C488.035 34.48 489.315 30.92 491.955 28.08C494.595 25.28 497.995 23.84 502.235 23.84C506.475 23.84 509.835 25.2 512.395 27.92C514.915 30.64 516.195 34.24 516.195 38.8ZM508.595 38.6C508.595 35.88 507.995 33.76 506.875 32.24C505.715 30.68 504.155 29.92 502.155 29.92C500.155 29.92 498.555 30.68 497.395 32.28C496.195 33.88 495.635 36 495.635 38.72C495.635 41.48 496.195 43.64 497.355 45.2C498.515 46.8 500.115 47.56 502.195 47.56C504.195 47.56 505.795 46.8 506.915 45.2C508.035 43.64 508.595 41.44 508.595 38.6ZM526.688 24.52L526.648 34.76C528.408 32.84 530.448 31.88 532.728 31.88C535.368 31.88 537.528 32.88 539.208 34.96C540.728 36.84 541.488 39.36 541.488 42.52C541.488 45.84 540.648 48.52 538.968 50.52C537.288 52.52 535.048 53.56 532.288 53.6C530.928 53.6 529.808 53.36 528.968 52.88C528.128 52.4 527.288 51.64 526.408 50.56V53H519.928V24.52H526.688ZM530.568 37.08C529.328 37.08 528.328 37.56 527.608 38.56C526.848 39.52 526.488 40.84 526.488 42.52C526.488 44.28 526.848 45.64 527.568 46.64C528.288 47.64 529.328 48.16 530.648 48.16C531.888 48.16 532.888 47.64 533.608 46.64C534.328 45.6 534.688 44.24 534.688 42.52C534.688 40.84 534.288 39.52 533.568 38.56C532.808 37.56 531.808 37.08 530.568 37.08ZM559.963 32.08V38.16C558.883 37.92 558.003 37.76 557.283 37.76C553.843 37.76 552.163 39.72 552.163 43.6V53H545.403V32.36H551.883L551.843 35.88C552.563 34.52 553.403 33.52 554.403 32.88C555.403 32.24 556.683 31.88 558.203 31.88C558.763 31.88 559.323 31.96 559.963 32.08ZM582.234 53H575.354C575.154 52.44 575.034 51.76 575.034 51.04C573.114 52.8 570.834 53.64 568.194 53.64C565.954 53.64 564.154 53.08 562.874 51.96C561.594 50.84 560.954 49.28 560.954 47.28C560.954 46.32 561.114 45.44 561.474 44.68C561.794 43.96 562.194 43.36 562.674 42.96C563.114 42.56 563.794 42.16 564.674 41.84C565.554 41.52 566.274 41.32 566.914 41.2C567.514 41.08 568.354 40.92 569.474 40.76C572.034 40.36 573.514 40.12 573.834 39.96C574.554 39.68 574.914 39.12 574.914 38.28C574.914 36.84 573.834 36.08 571.754 36.08C570.634 36.08 569.834 36.28 569.354 36.6C568.874 36.96 568.514 37.64 568.274 38.68H561.874C562.274 34.08 565.594 31.76 571.834 31.76C575.154 31.76 577.674 32.4 579.434 33.64C580.194 34.2 580.714 34.88 580.994 35.6C581.274 36.36 581.434 37.44 581.434 38.8V47.08C581.434 49.8 581.674 51.8 582.234 53ZM574.914 43.32C574.594 43.48 574.194 43.64 573.794 43.76C573.354 43.92 572.994 44 572.754 44.04C572.514 44.12 572.074 44.2 571.514 44.32C570.954 44.44 570.594 44.52 570.434 44.52C568.754 44.88 567.914 45.72 567.914 47.04C567.914 47.84 568.154 48.44 568.634 48.84C569.114 49.28 569.754 49.48 570.594 49.48C571.794 49.48 572.794 49.16 573.634 48.44C574.474 47.72 574.914 46.72 574.914 45.44V43.32ZM604.105 38.4H597.865C597.705 37.52 597.385 36.92 596.865 36.56C596.305 36.2 595.545 36 594.545 36C592.705 36 591.825 36.56 591.825 37.68C591.825 37.88 591.825 38.04 591.905 38.2C591.945 38.36 592.025 38.52 592.185 38.64C592.305 38.76 592.425 38.84 592.545 38.92C592.625 39 592.785 39.04 593.025 39.12C593.225 39.2 593.385 39.24 593.505 39.28C593.585 39.32 593.785 39.36 594.025 39.4C594.265 39.44 594.425 39.48 594.505 39.48C597.425 40.12 599.505 40.64 600.745 41.04C603.385 42 604.705 43.8 604.705 46.44C604.705 48.68 603.825 50.4 602.065 51.68C600.305 52.96 597.865 53.56 594.785 53.56C591.945 53.56 589.585 53 587.745 51.88C585.865 50.76 584.865 48.84 584.745 46.2H591.185C591.305 48.16 592.545 49.12 594.945 49.12C595.905 49.12 596.665 48.96 597.225 48.56C597.785 48.2 598.065 47.68 598.065 47C598.065 46.44 597.825 46.04 597.345 45.72C596.865 45.44 595.945 45.16 594.585 44.84C592.345 44.4 590.545 43.96 589.185 43.48C586.465 42.56 585.145 40.8 585.145 38.2C585.145 36.12 585.945 34.56 587.625 33.44C589.265 32.32 591.625 31.76 594.745 31.76C595.985 31.76 597.145 31.88 598.185 32.12C599.225 32.36 600.225 32.68 601.105 33.16C601.985 33.64 602.665 34.36 603.225 35.24C603.745 36.12 604.025 37.2 604.105 38.4Z" fill="#303030"/>
</g>
<rect x="0.5" y="0.5" width="1279" height="719" stroke="#3A3A3A"/>
<defs>
<clipPath id="clip0_262_237">
<rect width="1280" height="720" fill="white"/>
</clipPath>
<clipPath id="clip1_262_237">
<rect width="130.404" height="52" fill="white" transform="translate(66 12)"/>
</clipPath>
</defs>
</svg>
