<svg width="1280" height="720" viewBox="0 0 1280 720" fill="none" xmlns="http://www.w3.org/2000/svg">
<g clip-path="url(#clip0_263_333)">
<rect width="1280" height="720" fill="#EDEDED"/>
<rect x="1" y="1" width="260" height="720" fill="#3A3A3A"/>
<g clip-path="url(#clip1_263_333)">
<path d="M124.591 61.9351L113.417 42.5859C113.339 44.4639 112.833 46.2838 111.933 47.9214L111.955 47.9338L103.047 63.3599H123.768C124.263 63.3599 124.508 63.0274 124.591 62.885C124.674 62.7425 124.839 62.3635 124.591 61.9351Z" fill="#FC541F"/>
<path d="M96.4002 13.1156C96.1522 12.6872 95.7427 12.6406 95.5774 12.6406C95.4121 12.6406 95.0026 12.6872 94.7546 13.1156L66.5626 61.9349C66.3146 62.3633 66.48 62.7423 66.5626 62.8848C66.6453 63.0272 66.8904 63.3597 67.3854 63.3597H74.9101L90.8526 35.7523L90.8764 35.7665C91.874 34.1261 93.2478 32.7421 94.8924 31.7266C96.8819 30.4984 99.1773 29.8772 101.529 29.9247C103.43 29.9646 105.262 30.4434 106.906 31.3106L96.3993 13.1156H96.4002Z" fill="#FC541F"/>
<path d="M101.269 31.8213C95.612 31.8213 91.0098 36.4225 91.0098 42.0781C91.0098 47.7337 95.612 52.335 101.269 52.335C106.926 52.335 111.528 47.7337 111.528 42.0781C111.528 36.4225 106.926 31.8213 101.269 31.8213Z" fill="#FC541F"/>
<path d="M173.024 31.3066C172.656 30.7918 172.199 30.3339 171.651 29.934C171.104 29.5351 170.463 29.2188 169.727 28.987C169.432 28.9034 168.943 28.7714 168.259 28.5928C167.575 28.4142 166.875 28.2299 166.16 28.0409C165.445 27.8519 164.798 27.6781 164.219 27.5204C163.64 27.3627 163.309 27.2734 163.225 27.2525C162.425 27.0207 161.778 26.6797 161.284 26.2276C160.789 25.7754 160.542 25.1495 160.542 24.3506C160.542 23.7826 160.673 23.3095 160.936 22.9305C161.2 22.5515 161.53 22.2523 161.93 22.031C162.33 21.8097 162.772 21.652 163.256 21.558C163.739 21.463 164.212 21.4155 164.676 21.4155C166.043 21.4155 167.169 21.7156 168.053 22.315C168.936 22.9144 169.43 23.9403 169.536 25.3917H173.48C173.48 24.2138 173.249 23.1775 172.786 22.2837C172.323 21.3898 171.697 20.6375 170.908 20.0277C170.119 19.4179 169.204 18.96 168.163 18.6551C167.121 18.3502 166.012 18.1973 164.833 18.1973C163.823 18.1973 162.823 18.3284 161.834 18.5915C160.845 18.8555 159.962 19.2592 159.183 19.8064C158.404 20.3535 157.779 21.0422 157.305 21.8733C156.832 22.7045 156.595 23.6876 156.595 24.8237C156.595 25.4126 156.674 25.9911 156.832 26.5591C156.99 27.1271 157.258 27.6629 157.637 28.1682C158.016 28.6735 158.525 29.1304 159.167 29.5408C159.809 29.9511 160.613 30.2826 161.581 30.5344C163.139 30.9552 164.448 31.2971 165.511 31.5602C166.573 31.8234 167.504 32.1017 168.304 32.3961C168.767 32.5643 169.193 32.854 169.582 33.2643C169.971 33.6747 170.166 34.3111 170.166 35.1726C170.166 35.5934 170.081 36.0085 169.913 36.4189C169.745 36.8292 169.471 37.1921 169.092 37.5075C168.713 37.8228 168.219 38.0812 167.609 38.2807C166.998 38.4801 166.262 38.5799 165.4 38.5799C164.6 38.5799 163.858 38.4906 163.175 38.312C162.491 38.1334 161.885 37.8494 161.36 37.46C160.834 37.0705 160.423 36.5718 160.129 35.9611C159.834 35.3512 159.687 34.6151 159.687 33.7526H155.742C155.763 35.1413 156.026 36.3448 156.531 37.365C157.036 38.3852 157.709 39.2211 158.551 39.8736C159.391 40.5262 160.381 41.0097 161.517 41.325C162.653 41.6404 163.863 41.7981 165.146 41.7981C166.261 41.7981 167.355 41.667 168.428 41.4039C169.501 41.1408 170.458 40.7257 171.3 40.1576C172.141 39.5896 172.82 38.8591 173.336 37.9644C173.851 37.0705 174.109 35.9924 174.109 34.73C174.109 34.142 174.02 33.5521 173.841 32.9632C173.663 32.3743 173.389 31.8224 173.021 31.3066H173.024Z" fill="#EDEDED"/>
<path d="M152.242 21.1622C151.695 20.4679 150.917 19.8903 149.907 19.4268C148.897 18.9642 147.593 18.7324 145.994 18.7324H136.053V21.9506H145.836C146.361 21.9506 146.856 22.0038 147.319 22.1083C147.782 22.2137 148.192 22.4085 148.55 22.6925C148.907 22.9765 149.192 23.3603 149.402 23.8437C149.612 24.3282 149.718 24.938 149.718 25.6732C149.718 26.4084 149.596 26.9831 149.355 27.4562C149.113 27.9292 148.797 28.3082 148.409 28.5922C148.019 28.8762 147.593 29.0814 147.131 29.2077C146.668 29.3341 146.216 29.3968 145.774 29.3968H139.998V25.5307H136.054V41.2608H139.998V32.6159H145.994C147.593 32.6159 148.898 32.3899 149.908 31.9368C150.918 31.4846 151.696 30.9118 152.243 30.2175C152.79 29.5231 153.163 28.7717 153.363 27.9615C153.563 27.1522 153.664 26.3999 153.664 25.7055C153.664 25.0112 153.564 24.2541 153.363 23.4343C153.163 22.6136 152.79 21.8566 152.243 21.1622H152.242Z" fill="#EDEDED"/>
<path d="M193.003 32.3006H189.071H187.747H182.19L185.599 22.6146H185.693L187.822 28.7205H191.624L187.777 18.7334H183.579L174.932 41.2618H179.003L181.118 35.2984H190.112L192.226 41.2618H196.456L193.003 32.3006Z" fill="#EDEDED"/>
<path d="M136.053 52.043H137.144V58.2776H136.053V52.043Z" fill="#EDEDED"/>
<path d="M162.797 52.043H163.889V58.2776H162.797V52.043Z" fill="#EDEDED"/>
<path d="M172.225 52.043H176.714V52.9861H173.316V54.6189H176.46V55.5098H173.316V57.3344H176.775V58.2776H172.225V52.043Z" fill="#EDEDED"/>
<path d="M191.514 52.043H196.003V52.9861H192.605V54.6189H195.749V55.5098H192.605V57.3344H196.064V58.2776H191.514V52.043Z" fill="#EDEDED"/>
<path d="M157.188 52.043H158.279V57.3344H161.45V58.2776H157.188V52.043Z" fill="#EDEDED"/>
<path d="M189.067 54.0801C189.02 53.9078 188.956 53.7492 188.875 53.605C188.793 53.4609 188.689 53.3358 188.56 53.2297C188.432 53.1245 188.282 53.042 188.111 52.984C187.939 52.926 187.74 52.8961 187.512 52.8961C187.181 52.8961 186.894 52.9604 186.653 53.0883C186.411 53.2161 186.215 53.3874 186.063 53.6005C185.912 53.8144 185.799 54.0574 185.726 54.3294C185.653 54.6014 185.617 54.8797 185.617 55.1625C185.617 55.4454 185.653 55.7237 185.726 55.9957C185.799 56.2677 185.912 56.5115 186.063 56.7246C186.214 56.9385 186.41 57.109 186.653 57.2368C186.894 57.3646 187.181 57.4281 187.512 57.4281C187.757 57.4281 187.972 57.3882 188.159 57.3075C188.345 57.2268 188.505 57.1162 188.639 56.9739C188.773 56.8325 188.878 56.6666 188.954 56.478C189.03 56.2894 189.079 56.0864 189.102 55.8697H190.167C190.143 56.2251 190.063 56.5505 189.927 56.8443C189.79 57.1389 189.605 57.3927 189.372 57.6067C189.139 57.8207 188.865 57.9857 188.551 58.1026C188.236 58.2196 187.89 58.2776 187.512 58.2776C187.046 58.2776 186.628 58.1951 186.258 58.0319C185.889 57.8678 185.575 57.6439 185.32 57.361C185.063 57.0773 184.866 56.7473 184.731 56.3692C184.594 55.9912 184.525 55.5886 184.525 55.1607C184.525 54.7328 184.594 54.3385 184.731 53.9604C184.867 53.5824 185.064 53.2524 185.32 52.9686C185.576 52.6848 185.889 52.46 186.258 52.2932C186.628 52.1264 187.046 52.043 187.512 52.043C187.861 52.043 188.19 52.0883 188.499 52.1808C188.807 52.2723 189.079 52.4056 189.315 52.5806C189.55 52.7555 189.741 52.9686 189.887 53.2179C190.032 53.4681 190.122 53.7546 190.158 54.0764H189.066L189.067 54.0801Z" fill="#EDEDED"/>
<path d="M138.492 52.043H139.645L142.492 56.6353H142.509V52.043H143.549V58.2776H142.396L139.558 53.6938H139.532V58.2776H138.492V52.043Z" fill="#EDEDED"/>
<path d="M178.123 52.043H179.276L182.123 56.6353H182.14V52.043H183.179V58.2776H182.027L179.189 53.6938H179.162V58.2776H178.123V52.043Z" fill="#EDEDED"/>
<path d="M144.893 52.043H150.012V52.9804H148.001V58.2399H146.894V52.9804H144.893V52.043Z" fill="#EDEDED"/>
<path d="M151.291 52.043H155.78V52.9861H152.383V54.6189H155.527V55.5098H152.383V57.3344H155.841V58.2776H151.291V52.043Z" fill="#EDEDED"/>
<path d="M169.778 54.0801C169.731 53.9078 169.667 53.7492 169.586 53.605C169.504 53.4609 169.4 53.3358 169.271 53.2297C169.143 53.1245 168.993 53.042 168.822 52.984C168.65 52.926 168.45 52.8961 168.223 52.8961C167.892 52.8961 167.605 52.9604 167.364 53.0883C167.122 53.2161 166.926 53.3874 166.774 53.6005C166.623 53.8144 166.51 54.0574 166.437 54.3294C166.364 54.6014 166.328 54.8797 166.328 55.1625C166.328 55.4454 166.364 55.7237 166.437 55.9957C166.51 56.2677 166.623 56.5115 166.774 56.7246C166.925 56.9385 167.121 57.109 167.364 57.2368C167.605 57.3646 167.892 57.4281 168.223 57.4281C168.468 57.4281 168.683 57.3882 168.869 57.3075C169.056 57.2268 169.216 57.1162 169.35 56.9739C169.484 56.8325 169.589 56.6666 169.665 56.478C169.741 56.2894 169.755 56.2796 169.778 56.0629H168.501V55.6772V55.2915H169.813H170.387H170.878V55.8697C170.854 56.2251 170.774 56.5505 170.638 56.8443C170.501 57.1389 170.316 57.3927 170.083 57.6067C169.85 57.8207 169.576 57.9857 169.262 58.1026C168.947 58.2196 168.601 58.2776 168.222 58.2776C167.757 58.2776 167.339 58.1951 166.969 58.0319C166.6 57.8678 166.286 57.6439 166.031 57.361C165.774 57.0773 165.577 56.7473 165.442 56.3692C165.305 55.9912 165.236 55.5886 165.236 55.1607C165.236 54.7328 165.305 54.3385 165.442 53.9604C165.578 53.5824 165.775 53.2524 166.031 52.9686C166.287 52.6848 166.6 52.46 166.969 52.2932C167.339 52.1264 167.757 52.043 168.222 52.043C168.572 52.043 168.901 52.0883 169.21 52.1808C169.518 52.2723 169.79 52.4056 170.026 52.5806C170.261 52.7555 170.452 52.9686 170.598 53.2179C170.743 53.4681 170.833 53.7546 170.868 54.0764H169.777L169.778 54.0801Z" fill="#EDEDED"/>
</g>
<path d="M270.778 55V26.52H278.218L288.498 44.52L288.178 26.52H295.378V55H288.138L277.738 36.72L277.938 55H270.778ZM321.466 26.52V32.72H307.906V38.2H319.666V44.04H307.906V55H300.426V26.52H321.466ZM347.719 26.52V32.52H332.319V37.44H346.399V43.2H332.319V48.76H348.079V55H324.919V26.52H347.719Z" fill="#303030"/>
</g>
<rect x="0.5" y="0.5" width="1279" height="719" stroke="#3A3A3A"/>
<defs>
<clipPath id="clip0_263_333">
<rect width="1280" height="720" fill="white"/>
</clipPath>
<clipPath id="clip1_263_333">
<rect width="130.404" height="52" fill="white" transform="translate(66 12)"/>
</clipPath>
</defs>
</svg>
