<svg width="1280" height="1000" viewBox="0 0 1280 1000" fill="none" xmlns="http://www.w3.org/2000/svg">
<g clip-path="url(#clip0_264_448)">
<rect width="1280" height="1000" fill="#EDEDED"/>
<rect x="1" y="1" width="260" height="1000" fill="#3A3A3A"/>
<g clip-path="url(#clip1_264_448)">
<path d="M124.591 61.9351L113.417 42.5859C113.339 44.4639 112.833 46.2838 111.933 47.9214L111.955 47.9338L103.047 63.3599H123.768C124.263 63.3599 124.508 63.0274 124.591 62.885C124.674 62.7425 124.839 62.3635 124.591 61.9351Z" fill="#FC541F"/>
<path d="M96.4002 13.1156C96.1522 12.6872 95.7427 12.6406 95.5774 12.6406C95.4121 12.6406 95.0026 12.6872 94.7546 13.1156L66.5626 61.9349C66.3146 62.3633 66.48 62.7423 66.5626 62.8848C66.6453 63.0272 66.8904 63.3597 67.3854 63.3597H74.9101L90.8526 35.7523L90.8764 35.7665C91.874 34.1261 93.2478 32.7421 94.8924 31.7266C96.8819 30.4984 99.1773 29.8772 101.529 29.9247C103.43 29.9646 105.262 30.4434 106.906 31.3106L96.3993 13.1156H96.4002Z" fill="#FC541F"/>
<path d="M101.269 31.8213C95.612 31.8213 91.0098 36.4225 91.0098 42.0781C91.0098 47.7337 95.612 52.335 101.269 52.335C106.926 52.335 111.528 47.7337 111.528 42.0781C111.528 36.4225 106.926 31.8213 101.269 31.8213Z" fill="#FC541F"/>
<path d="M173.024 31.3066C172.656 30.7918 172.199 30.3339 171.651 29.934C171.104 29.5351 170.463 29.2188 169.727 28.987C169.432 28.9034 168.943 28.7714 168.259 28.5928C167.575 28.4142 166.875 28.2299 166.16 28.0409C165.445 27.8519 164.798 27.6781 164.219 27.5204C163.64 27.3627 163.309 27.2734 163.225 27.2525C162.425 27.0207 161.778 26.6797 161.284 26.2276C160.789 25.7754 160.542 25.1495 160.542 24.3506C160.542 23.7826 160.673 23.3095 160.936 22.9305C161.2 22.5515 161.53 22.2523 161.93 22.031C162.33 21.8097 162.772 21.652 163.256 21.558C163.739 21.463 164.212 21.4155 164.676 21.4155C166.043 21.4155 167.169 21.7156 168.053 22.315C168.936 22.9144 169.43 23.9403 169.536 25.3917H173.48C173.48 24.2138 173.249 23.1775 172.786 22.2837C172.323 21.3898 171.697 20.6375 170.908 20.0277C170.119 19.4179 169.204 18.96 168.163 18.6551C167.121 18.3502 166.012 18.1973 164.833 18.1973C163.823 18.1973 162.823 18.3284 161.834 18.5915C160.845 18.8555 159.962 19.2592 159.183 19.8064C158.404 20.3535 157.779 21.0422 157.305 21.8733C156.832 22.7045 156.595 23.6876 156.595 24.8237C156.595 25.4126 156.674 25.9911 156.832 26.5591C156.99 27.1271 157.258 27.6629 157.637 28.1682C158.016 28.6735 158.525 29.1304 159.167 29.5408C159.809 29.9511 160.613 30.2826 161.581 30.5344C163.139 30.9552 164.448 31.2971 165.511 31.5602C166.573 31.8234 167.504 32.1017 168.304 32.3961C168.767 32.5643 169.193 32.854 169.582 33.2643C169.971 33.6747 170.166 34.3111 170.166 35.1726C170.166 35.5934 170.081 36.0085 169.913 36.4189C169.745 36.8292 169.471 37.1921 169.092 37.5075C168.713 37.8228 168.219 38.0812 167.609 38.2807C166.998 38.4801 166.262 38.5799 165.4 38.5799C164.6 38.5799 163.858 38.4906 163.175 38.312C162.491 38.1334 161.885 37.8494 161.36 37.46C160.834 37.0705 160.423 36.5718 160.129 35.9611C159.834 35.3512 159.687 34.6151 159.687 33.7526H155.742C155.763 35.1413 156.026 36.3448 156.531 37.365C157.036 38.3852 157.709 39.2211 158.551 39.8736C159.391 40.5262 160.381 41.0097 161.517 41.325C162.653 41.6404 163.863 41.7981 165.146 41.7981C166.261 41.7981 167.355 41.667 168.428 41.4039C169.501 41.1408 170.458 40.7257 171.3 40.1576C172.141 39.5896 172.82 38.8591 173.336 37.9644C173.851 37.0705 174.109 35.9924 174.109 34.73C174.109 34.142 174.02 33.5521 173.841 32.9632C173.663 32.3743 173.389 31.8224 173.021 31.3066H173.024Z" fill="#EDEDED"/>
<path d="M152.242 21.1622C151.695 20.4679 150.917 19.8903 149.907 19.4268C148.897 18.9642 147.593 18.7324 145.994 18.7324H136.053V21.9506H145.836C146.361 21.9506 146.856 22.0038 147.319 22.1083C147.782 22.2137 148.192 22.4085 148.55 22.6925C148.907 22.9765 149.192 23.3603 149.402 23.8437C149.612 24.3282 149.718 24.938 149.718 25.6732C149.718 26.4084 149.596 26.9831 149.355 27.4562C149.113 27.9292 148.797 28.3082 148.409 28.5922C148.019 28.8762 147.593 29.0814 147.131 29.2077C146.668 29.3341 146.216 29.3968 145.774 29.3968H139.998V25.5307H136.054V41.2608H139.998V32.6159H145.994C147.593 32.6159 148.898 32.3899 149.908 31.9368C150.918 31.4846 151.696 30.9118 152.243 30.2175C152.79 29.5231 153.163 28.7717 153.363 27.9615C153.563 27.1522 153.664 26.3999 153.664 25.7055C153.664 25.0112 153.564 24.2541 153.363 23.4343C153.163 22.6136 152.79 21.8566 152.243 21.1622H152.242Z" fill="#EDEDED"/>
<path d="M193.003 32.3006H189.071H187.747H182.19L185.599 22.6146H185.693L187.822 28.7205H191.624L187.777 18.7334H183.579L174.932 41.2618H179.003L181.118 35.2984H190.112L192.226 41.2618H196.456L193.003 32.3006Z" fill="#EDEDED"/>
<path d="M136.053 52.043H137.144V58.2776H136.053V52.043Z" fill="#EDEDED"/>
<path d="M162.797 52.043H163.889V58.2776H162.797V52.043Z" fill="#EDEDED"/>
<path d="M172.225 52.043H176.714V52.9861H173.316V54.6189H176.46V55.5098H173.316V57.3344H176.775V58.2776H172.225V52.043Z" fill="#EDEDED"/>
<path d="M191.514 52.043H196.003V52.9861H192.605V54.6189H195.749V55.5098H192.605V57.3344H196.064V58.2776H191.514V52.043Z" fill="#EDEDED"/>
<path d="M157.188 52.043H158.279V57.3344H161.45V58.2776H157.188V52.043Z" fill="#EDEDED"/>
<path d="M189.067 54.0801C189.02 53.9078 188.956 53.7492 188.875 53.605C188.793 53.4609 188.689 53.3358 188.56 53.2297C188.432 53.1245 188.282 53.042 188.111 52.984C187.939 52.926 187.74 52.8961 187.512 52.8961C187.181 52.8961 186.894 52.9604 186.653 53.0883C186.411 53.2161 186.215 53.3874 186.063 53.6005C185.912 53.8144 185.799 54.0574 185.726 54.3294C185.653 54.6014 185.617 54.8797 185.617 55.1625C185.617 55.4454 185.653 55.7237 185.726 55.9957C185.799 56.2677 185.912 56.5115 186.063 56.7246C186.214 56.9385 186.41 57.109 186.653 57.2368C186.894 57.3646 187.181 57.4281 187.512 57.4281C187.757 57.4281 187.972 57.3882 188.159 57.3075C188.345 57.2268 188.505 57.1162 188.639 56.9739C188.773 56.8325 188.878 56.6666 188.954 56.478C189.03 56.2894 189.079 56.0864 189.102 55.8697H190.167C190.143 56.2251 190.063 56.5505 189.927 56.8443C189.79 57.1389 189.605 57.3927 189.372 57.6067C189.139 57.8207 188.865 57.9857 188.551 58.1026C188.236 58.2196 187.89 58.2776 187.512 58.2776C187.046 58.2776 186.628 58.1951 186.258 58.0319C185.889 57.8678 185.575 57.6439 185.32 57.361C185.063 57.0773 184.866 56.7473 184.731 56.3692C184.594 55.9912 184.525 55.5886 184.525 55.1607C184.525 54.7328 184.594 54.3385 184.731 53.9604C184.867 53.5824 185.064 53.2524 185.32 52.9686C185.576 52.6848 185.889 52.46 186.258 52.2932C186.628 52.1264 187.046 52.043 187.512 52.043C187.861 52.043 188.19 52.0883 188.499 52.1808C188.807 52.2723 189.079 52.4056 189.315 52.5806C189.55 52.7555 189.741 52.9686 189.887 53.2179C190.032 53.4681 190.122 53.7546 190.158 54.0764H189.066L189.067 54.0801Z" fill="#EDEDED"/>
<path d="M138.492 52.043H139.645L142.492 56.6353H142.509V52.043H143.549V58.2776H142.396L139.558 53.6938H139.532V58.2776H138.492V52.043Z" fill="#EDEDED"/>
<path d="M178.123 52.043H179.276L182.123 56.6353H182.14V52.043H183.179V58.2776H182.027L179.189 53.6938H179.162V58.2776H178.123V52.043Z" fill="#EDEDED"/>
<path d="M144.893 52.043H150.012V52.9804H148.001V58.2399H146.894V52.9804H144.893V52.043Z" fill="#EDEDED"/>
<path d="M151.291 52.043H155.78V52.9861H152.383V54.6189H155.527V55.5098H152.383V57.3344H155.841V58.2776H151.291V52.043Z" fill="#EDEDED"/>
<path d="M169.778 54.0801C169.731 53.9078 169.667 53.7492 169.586 53.605C169.504 53.4609 169.4 53.3358 169.271 53.2297C169.143 53.1245 168.993 53.042 168.822 52.984C168.65 52.926 168.45 52.8961 168.223 52.8961C167.892 52.8961 167.605 52.9604 167.364 53.0883C167.122 53.2161 166.926 53.3874 166.774 53.6005C166.623 53.8144 166.51 54.0574 166.437 54.3294C166.364 54.6014 166.328 54.8797 166.328 55.1625C166.328 55.4454 166.364 55.7237 166.437 55.9957C166.51 56.2677 166.623 56.5115 166.774 56.7246C166.925 56.9385 167.121 57.109 167.364 57.2368C167.605 57.3646 167.892 57.4281 168.223 57.4281C168.468 57.4281 168.683 57.3882 168.869 57.3075C169.056 57.2268 169.216 57.1162 169.35 56.9739C169.484 56.8325 169.589 56.6666 169.665 56.478C169.741 56.2894 169.755 56.2796 169.778 56.0629H168.501V55.6772V55.2915H169.813H170.387H170.878V55.8697C170.854 56.2251 170.774 56.5505 170.638 56.8443C170.501 57.1389 170.316 57.3927 170.083 57.6067C169.85 57.8207 169.576 57.9857 169.262 58.1026C168.947 58.2196 168.601 58.2776 168.222 58.2776C167.757 58.2776 167.339 58.1951 166.969 58.0319C166.6 57.8678 166.286 57.6439 166.031 57.361C165.774 57.0773 165.577 56.7473 165.442 56.3692C165.305 55.9912 165.236 55.5886 165.236 55.1607C165.236 54.7328 165.305 54.3385 165.442 53.9604C165.578 53.5824 165.775 53.2524 166.031 52.9686C166.287 52.6848 166.6 52.46 166.969 52.2932C167.339 52.1264 167.757 52.043 168.222 52.043C168.572 52.043 168.901 52.0883 169.21 52.1808C169.518 52.2723 169.79 52.4056 170.026 52.5806C170.261 52.7555 170.452 52.9686 170.598 53.2179C170.743 53.4681 170.833 53.7546 170.868 54.0764H169.777L169.778 54.0801Z" fill="#EDEDED"/>
</g>
<path d="M299.679 38.8C299.679 43.12 298.399 46.68 295.879 49.48C293.359 52.28 289.999 53.68 285.799 53.68C281.439 53.68 277.959 52.32 275.399 49.52C272.799 46.76 271.519 43.16 271.519 38.76C271.519 34.48 272.799 30.92 275.439 28.08C278.079 25.28 281.479 23.84 285.719 23.84C289.959 23.84 293.319 25.2 295.879 27.92C298.399 30.64 299.679 34.24 299.679 38.8ZM292.079 38.6C292.079 35.88 291.479 33.76 290.359 32.24C289.199 30.68 287.639 29.92 285.639 29.92C283.639 29.92 282.039 30.68 280.879 32.28C279.679 33.88 279.119 36 279.119 38.72C279.119 41.48 279.679 43.64 280.839 45.2C281.999 46.8 283.599 47.56 285.679 47.56C287.679 47.56 289.279 46.8 290.399 45.2C291.519 43.64 292.079 41.44 292.079 38.6ZM318.252 32.08V38.16C317.172 37.92 316.292 37.76 315.572 37.76C312.132 37.76 310.452 39.72 310.452 43.6V53H303.692V32.36H310.172L310.132 35.88C310.852 34.52 311.692 33.52 312.692 32.88C313.692 32.24 314.972 31.88 316.492 31.88C317.052 31.88 317.612 31.96 318.252 32.08ZM339.9 39.84H333.3C333.3 39 332.94 38.28 332.3 37.72C331.62 37.16 330.86 36.88 329.98 36.88C327.02 36.88 325.58 38.92 325.58 43C325.58 44.48 325.9 45.76 326.58 46.84C327.26 47.88 328.26 48.44 329.62 48.44C331.86 48.44 333.14 47.24 333.5 44.88H340.1C339.86 46.92 339.14 48.64 337.98 50.04C336.82 51.48 335.34 52.44 333.54 53C332.42 53.4 331.3 53.6 330.18 53.6L328.98 55.4L329.06 55.48C329.46 55.36 330.02 55.28 330.66 55.28C331.54 55.28 332.3 55.56 333.02 56.08C333.7 56.6 334.06 57.4 334.06 58.48C334.06 61.08 332.34 62.36 328.94 62.36C327.18 62.36 325.58 61.96 324.22 61.12L324.98 59.32C326.06 59.84 327.14 60.08 328.22 60.08C329.58 60.08 330.26 59.64 330.26 58.68C330.26 57.68 329.7 57.16 328.54 57.16C328.1 57.16 327.58 57.28 326.98 57.44L326.1 56.68L328.06 53.52C327.14 53.44 326.22 53.2 325.3 52.84C323.3 52.08 321.7 50.84 320.54 49.08C319.34 47.36 318.78 45.32 318.78 42.96C318.78 39.64 319.74 36.92 321.74 34.8C323.7 32.72 326.34 31.64 329.66 31.64C332.38 31.64 334.74 32.36 336.66 33.8C338.58 35.24 339.66 37.24 339.9 39.84ZM363.531 53H356.651C356.451 52.44 356.331 51.76 356.331 51.04C354.411 52.8 352.131 53.64 349.491 53.64C347.251 53.64 345.451 53.08 344.171 51.96C342.891 50.84 342.251 49.28 342.251 47.28C342.251 46.32 342.411 45.44 342.771 44.68C343.091 43.96 343.491 43.36 343.971 42.96C344.411 42.56 345.091 42.16 345.971 41.84C346.851 41.52 347.571 41.32 348.211 41.2C348.811 41.08 349.651 40.92 350.771 40.76C353.331 40.36 354.811 40.12 355.131 39.96C355.851 39.68 356.211 39.12 356.211 38.28C356.211 36.84 355.131 36.08 353.051 36.08C351.931 36.08 351.131 36.28 350.651 36.6C350.171 36.96 349.811 37.64 349.571 38.68H343.171C343.571 34.08 346.891 31.76 353.131 31.76C356.451 31.76 358.971 32.4 360.731 33.64C361.491 34.2 362.011 34.88 362.291 35.6C362.571 36.36 362.731 37.44 362.731 38.8V47.08C362.731 49.8 362.971 51.8 363.531 53ZM356.211 43.32C355.891 43.48 355.491 43.64 355.091 43.76C354.651 43.92 354.291 44 354.051 44.04C353.811 44.12 353.371 44.2 352.811 44.32C352.251 44.44 351.891 44.52 351.731 44.52C350.051 44.88 349.211 45.72 349.211 47.04C349.211 47.84 349.451 48.44 349.931 48.84C350.411 49.28 351.051 49.48 351.891 49.48C353.091 49.48 354.091 49.16 354.931 48.44C355.771 47.72 356.211 46.72 356.211 45.44V43.32ZM373.722 32.36V35.08C375.282 32.92 377.402 31.8 380.042 31.8C382.882 31.8 384.842 32.92 385.882 35.12C386.922 33.96 387.882 33.12 388.842 32.6C389.762 32.08 390.962 31.8 392.442 31.8C394.762 31.8 396.562 32.48 397.842 33.84C399.082 35.2 399.722 37.08 399.722 39.4V53H392.882V41C392.882 38.52 391.922 37.24 390.042 37.24C389.002 37.24 388.242 37.6 387.682 38.24C387.122 38.88 386.842 39.76 386.842 40.88V53H380.042V40.76C380.042 39.64 379.842 38.76 379.482 38.12C379.082 37.48 378.362 37.16 377.322 37.16C376.162 37.16 375.322 37.56 374.802 38.32C374.242 39.08 374.002 40.08 374.002 41.28V53H367.202V32.36H373.722ZM425.273 44.32H409.913C409.913 45.84 410.353 47.04 411.193 47.88C412.033 48.72 413.193 49.12 414.633 49.12C416.313 49.12 417.633 48.32 418.513 46.72H424.873C424.193 48.96 422.953 50.64 421.153 51.84C419.353 53.04 417.153 53.64 414.553 53.64C411.273 53.64 408.553 52.68 406.433 50.76C404.313 48.84 403.273 46.2 403.273 42.92C403.273 39.68 404.273 37.04 406.353 34.96C408.393 32.88 411.033 31.84 414.313 31.84C417.673 31.84 420.353 32.92 422.313 35.04C424.273 37.16 425.273 40.04 425.273 43.72V44.32ZM418.593 40.44C418.473 39.24 418.033 38.24 417.313 37.52C416.593 36.8 415.593 36.4 414.353 36.4C411.873 36.4 410.393 37.76 409.993 40.44H418.593ZM435.206 32.36V35.08C436.886 32.92 439.126 31.8 441.886 31.8C444.206 31.8 446.006 32.48 447.366 33.76C448.686 35.04 449.366 36.92 449.366 39.4V53H442.486V41.28C442.486 40.04 442.246 39.08 441.846 38.36C441.406 37.68 440.566 37.32 439.366 37.32C438.126 37.32 437.166 37.68 436.486 38.4C435.806 39.12 435.486 40.16 435.486 41.48V53H428.686V32.36H435.206ZM466.402 32.36L466.362 36.8H462.122V45.32C462.122 46.4 462.282 47.16 462.522 47.56C462.802 47.96 463.482 48.2 464.562 48.2C465.362 48.2 465.962 48.16 466.362 48.12V53.12C464.802 53.24 463.522 53.32 462.522 53.32C459.762 53.32 457.882 52.8 456.882 51.84C455.842 50.84 455.362 49 455.362 46.32V36.76H451.962V32.36H455.362V26.04H462.162V32.36H466.402ZM479.468 31.76C482.668 31.76 485.228 32.8 487.228 34.8C489.228 36.8 490.228 39.44 490.228 42.68C490.228 45.92 489.228 48.56 487.228 50.6C485.228 52.64 482.588 53.68 479.348 53.68C476.108 53.68 473.468 52.64 471.468 50.64C469.468 48.6 468.468 45.96 468.468 42.72C468.468 39.48 469.468 36.84 471.508 34.8C473.548 32.8 476.188 31.76 479.468 31.76ZM479.268 36.84C477.988 36.84 477.028 37.32 476.308 38.36C475.588 39.4 475.228 40.84 475.228 42.72C475.228 44.64 475.588 46.12 476.308 47.16C477.028 48.2 478.068 48.72 479.348 48.72C480.668 48.72 481.668 48.16 482.388 47.12C483.108 46.08 483.428 44.6 483.428 42.68C483.428 40.8 483.068 39.36 482.348 38.36C481.628 37.32 480.628 36.84 479.268 36.84ZM529.579 24.52V30.52H514.179V35.44H528.259V41.2H514.179V46.76H529.939V53H506.779V24.52H529.579ZM540.402 32.36V35.08C541.962 32.92 544.082 31.8 546.722 31.8C549.562 31.8 551.522 32.92 552.562 35.12C553.602 33.96 554.562 33.12 555.522 32.6C556.442 32.08 557.642 31.8 559.122 31.8C561.442 31.8 563.242 32.48 564.522 33.84C565.762 35.2 566.402 37.08 566.402 39.4V53H559.562V41C559.562 38.52 558.602 37.24 556.722 37.24C555.682 37.24 554.922 37.6 554.362 38.24C553.802 38.88 553.522 39.76 553.522 40.88V53H546.722V40.76C546.722 39.64 546.522 38.76 546.162 38.12C545.762 37.48 545.042 37.16 544.002 37.16C542.842 37.16 542.002 37.56 541.482 38.32C540.922 39.08 540.682 40.08 540.682 41.28V53H533.882V32.36H540.402ZM577.393 32.36V34.76C578.833 32.84 580.833 31.84 583.433 31.84C586.153 31.84 588.313 32.84 589.993 34.84C591.633 36.84 592.473 39.52 592.473 42.8C592.473 46.08 591.673 48.68 590.073 50.6C588.473 52.56 586.313 53.52 583.673 53.52C581.193 53.52 579.193 52.56 577.673 50.64V60H570.913V32.36H577.393ZM581.473 37.24C580.193 37.24 579.193 37.76 578.473 38.72C577.753 39.72 577.393 41.08 577.393 42.76C577.393 44.52 577.753 45.88 578.473 46.84C579.193 47.8 580.233 48.28 581.553 48.28C582.873 48.28 583.873 47.84 584.593 46.88C585.313 45.96 585.673 44.64 585.673 42.88C585.673 41.04 585.313 39.64 584.593 38.68C583.873 37.72 582.833 37.24 581.473 37.24ZM610.908 32.08V38.16C609.828 37.92 608.948 37.76 608.228 37.76C604.788 37.76 603.108 39.72 603.108 43.6V53H596.348V32.36H602.828L602.788 35.88C603.508 34.52 604.348 33.52 605.348 32.88C606.348 32.24 607.628 31.88 609.148 31.88C609.708 31.88 610.268 31.96 610.908 32.08ZM633.476 44.32H618.116C618.116 45.84 618.556 47.04 619.396 47.88C620.236 48.72 621.396 49.12 622.836 49.12C624.516 49.12 625.836 48.32 626.716 46.72H633.076C632.396 48.96 631.156 50.64 629.356 51.84C627.556 53.04 625.356 53.64 622.756 53.64C619.476 53.64 616.756 52.68 614.636 50.76C612.516 48.84 611.476 46.2 611.476 42.92C611.476 39.68 612.476 37.04 614.556 34.96C616.596 32.88 619.236 31.84 622.516 31.84C625.876 31.84 628.556 32.92 630.516 35.04C632.476 37.16 633.476 40.04 633.476 43.72V44.32ZM626.796 40.44C626.676 39.24 626.236 38.24 625.516 37.52C624.796 36.8 623.796 36.4 622.556 36.4C620.076 36.4 618.596 37.76 618.196 40.44H626.796ZM655.089 38.4H648.849C648.689 37.52 648.369 36.92 647.849 36.56C647.289 36.2 646.529 36 645.529 36C643.689 36 642.809 36.56 642.809 37.68C642.809 37.88 642.809 38.04 642.889 38.2C642.929 38.36 643.009 38.52 643.169 38.64C643.289 38.76 643.409 38.84 643.529 38.92C643.609 39 643.769 39.04 644.009 39.12C644.209 39.2 644.369 39.24 644.489 39.28C644.569 39.32 644.769 39.36 645.009 39.4C645.249 39.44 645.409 39.48 645.489 39.48C648.409 40.12 650.489 40.64 651.729 41.04C654.369 42 655.689 43.8 655.689 46.44C655.689 48.68 654.809 50.4 653.049 51.68C651.289 52.96 648.849 53.56 645.769 53.56C642.929 53.56 640.569 53 638.729 51.88C636.849 50.76 635.849 48.84 635.729 46.2H642.169C642.289 48.16 643.529 49.12 645.929 49.12C646.889 49.12 647.649 48.96 648.209 48.56C648.769 48.2 649.049 47.68 649.049 47C649.049 46.44 648.809 46.04 648.329 45.72C647.849 45.44 646.929 45.16 645.569 44.84C643.329 44.4 641.529 43.96 640.169 43.48C637.449 42.56 636.129 40.8 636.129 38.2C636.129 36.12 636.929 34.56 638.609 33.44C640.249 32.32 642.609 31.76 645.729 31.76C646.969 31.76 648.129 31.88 649.169 32.12C650.209 32.36 651.209 32.68 652.089 33.16C652.969 33.64 653.649 34.36 654.209 35.24C654.729 36.12 655.009 37.2 655.089 38.4ZM679.156 53H672.276C672.076 52.44 671.956 51.76 671.956 51.04C670.036 52.8 667.756 53.64 665.116 53.64C662.876 53.64 661.076 53.08 659.796 51.96C658.516 50.84 657.876 49.28 657.876 47.28C657.876 46.32 658.036 45.44 658.396 44.68C658.716 43.96 659.116 43.36 659.596 42.96C660.036 42.56 660.716 42.16 661.596 41.84C662.476 41.52 663.196 41.32 663.836 41.2C664.436 41.08 665.276 40.92 666.396 40.76C668.956 40.36 670.436 40.12 670.756 39.96C671.476 39.68 671.836 39.12 671.836 38.28C671.836 36.84 670.756 36.08 668.676 36.08C667.556 36.08 666.756 36.28 666.276 36.6C665.796 36.96 665.436 37.64 665.196 38.68H658.796C659.196 34.08 662.516 31.76 668.756 31.76C672.076 31.76 674.596 32.4 676.356 33.64C677.116 34.2 677.636 34.88 677.916 35.6C678.196 36.36 678.356 37.44 678.356 38.8V47.08C678.356 49.8 678.596 51.8 679.156 53ZM671.836 43.32C671.516 43.48 671.116 43.64 670.716 43.76C670.276 43.92 669.916 44 669.676 44.04C669.436 44.12 668.996 44.2 668.436 44.32C667.876 44.44 667.516 44.52 667.356 44.52C665.676 44.88 664.836 45.72 664.836 47.04C664.836 47.84 665.076 48.44 665.556 48.84C666.036 49.28 666.676 49.48 667.516 49.48C668.716 49.48 669.716 49.16 670.556 48.44C671.396 47.72 671.836 46.72 671.836 45.44V43.32ZM697.627 32.08V38.16C696.547 37.92 695.667 37.76 694.947 37.76C691.507 37.76 689.827 39.72 689.827 43.6V53H683.067V32.36H689.547L689.507 35.88C690.227 34.52 691.067 33.52 692.067 32.88C693.067 32.24 694.347 31.88 695.867 31.88C696.427 31.88 696.987 31.96 697.627 32.08ZM706.898 24.52V29.64H700.098V24.52H706.898ZM706.898 32.36V53H700.098V32.36H706.898ZM731.734 53H724.854C724.654 52.44 724.534 51.76 724.534 51.04C722.614 52.8 720.334 53.64 717.694 53.64C715.454 53.64 713.654 53.08 712.374 51.96C711.094 50.84 710.454 49.28 710.454 47.28C710.454 46.32 710.614 45.44 710.974 44.68C711.294 43.96 711.694 43.36 712.174 42.96C712.614 42.56 713.294 42.16 714.174 41.84C715.054 41.52 715.774 41.32 716.414 41.2C717.014 41.08 717.854 40.92 718.974 40.76C721.534 40.36 723.014 40.12 723.334 39.96C724.054 39.68 724.414 39.12 724.414 38.28C724.414 36.84 723.334 36.08 721.254 36.08C720.134 36.08 719.334 36.28 718.854 36.6C718.374 36.96 718.014 37.64 717.774 38.68H711.374C711.774 34.08 715.094 31.76 721.334 31.76C724.654 31.76 727.174 32.4 728.934 33.64C729.694 34.2 730.214 34.88 730.494 35.6C730.774 36.36 730.934 37.44 730.934 38.8V47.08C730.934 49.8 731.174 51.8 731.734 53ZM724.414 43.32C724.094 43.48 723.694 43.64 723.294 43.76C722.854 43.92 722.494 44 722.254 44.04C722.014 44.12 721.574 44.2 721.014 44.32C720.454 44.44 720.094 44.52 719.934 44.52C718.254 44.88 717.414 45.72 717.414 47.04C717.414 47.84 717.654 48.44 718.134 48.84C718.614 49.28 719.254 49.48 720.094 49.48C721.294 49.48 722.294 49.16 723.134 48.44C723.974 47.72 724.414 46.72 724.414 45.44V43.32ZM742.445 24.52V53H735.645V24.52H742.445Z" fill="#303030"/>
</g>
<rect x="0.5" y="0.5" width="1279" height="999" stroke="#3A3A3A"/>
<defs>
<clipPath id="clip0_264_448">
<rect width="1280" height="1000" fill="white"/>
</clipPath>
<clipPath id="clip1_264_448">
<rect width="130.404" height="52" fill="white" transform="translate(66 12)"/>
</clipPath>
</defs>
</svg>
