<svg width="1280" height="720" viewBox="0 0 1280 720" fill="none" xmlns="http://www.w3.org/2000/svg">
<g clip-path="url(#clip0_264_422)">
<rect width="1280" height="720" fill="#EDEDED"/>
<rect x="1" y="1" width="260" height="720" fill="#3A3A3A"/>
<g clip-path="url(#clip1_264_422)">
<path d="M124.591 61.9351L113.417 42.5859C113.339 44.4639 112.833 46.2838 111.933 47.9214L111.955 47.9338L103.047 63.3599H123.768C124.263 63.3599 124.508 63.0274 124.591 62.885C124.674 62.7425 124.839 62.3635 124.591 61.9351Z" fill="#FC541F"/>
<path d="M96.4002 13.1156C96.1522 12.6872 95.7427 12.6406 95.5774 12.6406C95.4121 12.6406 95.0026 12.6872 94.7546 13.1156L66.5626 61.9349C66.3146 62.3633 66.48 62.7423 66.5626 62.8848C66.6453 63.0272 66.8904 63.3597 67.3854 63.3597H74.9101L90.8526 35.7523L90.8764 35.7665C91.874 34.1261 93.2478 32.7421 94.8924 31.7266C96.8819 30.4984 99.1773 29.8772 101.529 29.9247C103.43 29.9646 105.262 30.4434 106.906 31.3106L96.3993 13.1156H96.4002Z" fill="#FC541F"/>
<path d="M101.269 31.8213C95.612 31.8213 91.0098 36.4225 91.0098 42.0781C91.0098 47.7337 95.612 52.335 101.269 52.335C106.926 52.335 111.528 47.7337 111.528 42.0781C111.528 36.4225 106.926 31.8213 101.269 31.8213Z" fill="#FC541F"/>
<path d="M173.024 31.3066C172.656 30.7918 172.199 30.3339 171.651 29.934C171.104 29.5351 170.463 29.2188 169.727 28.987C169.432 28.9034 168.943 28.7714 168.259 28.5928C167.575 28.4142 166.875 28.2299 166.16 28.0409C165.445 27.8519 164.798 27.6781 164.219 27.5204C163.64 27.3627 163.309 27.2734 163.225 27.2525C162.425 27.0207 161.778 26.6797 161.284 26.2276C160.789 25.7754 160.542 25.1495 160.542 24.3506C160.542 23.7826 160.673 23.3095 160.936 22.9305C161.2 22.5515 161.53 22.2523 161.93 22.031C162.33 21.8097 162.772 21.652 163.256 21.558C163.739 21.463 164.212 21.4155 164.676 21.4155C166.043 21.4155 167.169 21.7156 168.053 22.315C168.936 22.9144 169.43 23.9403 169.536 25.3917H173.48C173.48 24.2138 173.249 23.1775 172.786 22.2837C172.323 21.3898 171.697 20.6375 170.908 20.0277C170.119 19.4179 169.204 18.96 168.163 18.6551C167.121 18.3502 166.012 18.1973 164.833 18.1973C163.823 18.1973 162.823 18.3284 161.834 18.5915C160.845 18.8555 159.962 19.2592 159.183 19.8064C158.404 20.3535 157.779 21.0422 157.305 21.8733C156.832 22.7045 156.595 23.6876 156.595 24.8237C156.595 25.4126 156.674 25.9911 156.832 26.5591C156.99 27.1271 157.258 27.6629 157.637 28.1682C158.016 28.6735 158.525 29.1304 159.167 29.5408C159.809 29.9511 160.613 30.2826 161.581 30.5344C163.139 30.9552 164.448 31.2971 165.511 31.5602C166.573 31.8234 167.504 32.1017 168.304 32.3961C168.767 32.5643 169.193 32.854 169.582 33.2643C169.971 33.6747 170.166 34.3111 170.166 35.1726C170.166 35.5934 170.081 36.0085 169.913 36.4189C169.745 36.8292 169.471 37.1921 169.092 37.5075C168.713 37.8228 168.219 38.0812 167.609 38.2807C166.998 38.4801 166.262 38.5799 165.4 38.5799C164.6 38.5799 163.858 38.4906 163.175 38.312C162.491 38.1334 161.885 37.8494 161.36 37.46C160.834 37.0705 160.423 36.5718 160.129 35.9611C159.834 35.3512 159.687 34.6151 159.687 33.7526H155.742C155.763 35.1413 156.026 36.3448 156.531 37.365C157.036 38.3852 157.709 39.2211 158.551 39.8736C159.391 40.5262 160.381 41.0097 161.517 41.325C162.653 41.6404 163.863 41.7981 165.146 41.7981C166.261 41.7981 167.355 41.667 168.428 41.4039C169.501 41.1408 170.458 40.7257 171.3 40.1576C172.141 39.5896 172.82 38.8591 173.336 37.9644C173.851 37.0705 174.109 35.9924 174.109 34.73C174.109 34.142 174.02 33.5521 173.841 32.9632C173.663 32.3743 173.389 31.8224 173.021 31.3066H173.024Z" fill="#EDEDED"/>
<path d="M152.242 21.1622C151.695 20.4679 150.917 19.8903 149.907 19.4268C148.897 18.9642 147.593 18.7324 145.994 18.7324H136.053V21.9506H145.836C146.361 21.9506 146.856 22.0038 147.319 22.1083C147.782 22.2137 148.192 22.4085 148.55 22.6925C148.907 22.9765 149.192 23.3603 149.402 23.8437C149.612 24.3282 149.718 24.938 149.718 25.6732C149.718 26.4084 149.596 26.9831 149.355 27.4562C149.113 27.9292 148.797 28.3082 148.409 28.5922C148.019 28.8762 147.593 29.0814 147.131 29.2077C146.668 29.3341 146.216 29.3968 145.774 29.3968H139.998V25.5307H136.054V41.2608H139.998V32.6159H145.994C147.593 32.6159 148.898 32.3899 149.908 31.9368C150.918 31.4846 151.696 30.9118 152.243 30.2175C152.79 29.5231 153.163 28.7717 153.363 27.9615C153.563 27.1522 153.664 26.3999 153.664 25.7055C153.664 25.0112 153.564 24.2541 153.363 23.4343C153.163 22.6136 152.79 21.8566 152.243 21.1622H152.242Z" fill="#EDEDED"/>
<path d="M193.003 32.3006H189.071H187.747H182.19L185.599 22.6146H185.693L187.822 28.7205H191.624L187.777 18.7334H183.579L174.932 41.2618H179.003L181.118 35.2984H190.112L192.226 41.2618H196.456L193.003 32.3006Z" fill="#EDEDED"/>
<path d="M136.053 52.043H137.144V58.2776H136.053V52.043Z" fill="#EDEDED"/>
<path d="M162.797 52.043H163.889V58.2776H162.797V52.043Z" fill="#EDEDED"/>
<path d="M172.225 52.043H176.714V52.9861H173.316V54.6189H176.46V55.5098H173.316V57.3344H176.775V58.2776H172.225V52.043Z" fill="#EDEDED"/>
<path d="M191.514 52.043H196.003V52.9861H192.605V54.6189H195.749V55.5098H192.605V57.3344H196.064V58.2776H191.514V52.043Z" fill="#EDEDED"/>
<path d="M157.188 52.043H158.279V57.3344H161.45V58.2776H157.188V52.043Z" fill="#EDEDED"/>
<path d="M189.067 54.0801C189.02 53.9078 188.956 53.7492 188.875 53.605C188.793 53.4609 188.689 53.3358 188.56 53.2297C188.432 53.1245 188.282 53.042 188.111 52.984C187.939 52.926 187.74 52.8961 187.512 52.8961C187.181 52.8961 186.894 52.9604 186.653 53.0883C186.411 53.2161 186.215 53.3874 186.063 53.6005C185.912 53.8144 185.799 54.0574 185.726 54.3294C185.653 54.6014 185.617 54.8797 185.617 55.1625C185.617 55.4454 185.653 55.7237 185.726 55.9957C185.799 56.2677 185.912 56.5115 186.063 56.7246C186.214 56.9385 186.41 57.109 186.653 57.2368C186.894 57.3646 187.181 57.4281 187.512 57.4281C187.757 57.4281 187.972 57.3882 188.159 57.3075C188.345 57.2268 188.505 57.1162 188.639 56.9739C188.773 56.8325 188.878 56.6666 188.954 56.478C189.03 56.2894 189.079 56.0864 189.102 55.8697H190.167C190.143 56.2251 190.063 56.5505 189.927 56.8443C189.79 57.1389 189.605 57.3927 189.372 57.6067C189.139 57.8207 188.865 57.9857 188.551 58.1026C188.236 58.2196 187.89 58.2776 187.512 58.2776C187.046 58.2776 186.628 58.1951 186.258 58.0319C185.889 57.8678 185.575 57.6439 185.32 57.361C185.063 57.0773 184.866 56.7473 184.731 56.3692C184.594 55.9912 184.525 55.5886 184.525 55.1607C184.525 54.7328 184.594 54.3385 184.731 53.9604C184.867 53.5824 185.064 53.2524 185.32 52.9686C185.576 52.6848 185.889 52.46 186.258 52.2932C186.628 52.1264 187.046 52.043 187.512 52.043C187.861 52.043 188.19 52.0883 188.499 52.1808C188.807 52.2723 189.079 52.4056 189.315 52.5806C189.55 52.7555 189.741 52.9686 189.887 53.2179C190.032 53.4681 190.122 53.7546 190.158 54.0764H189.066L189.067 54.0801Z" fill="#EDEDED"/>
<path d="M138.492 52.043H139.645L142.492 56.6353H142.509V52.043H143.549V58.2776H142.396L139.558 53.6938H139.532V58.2776H138.492V52.043Z" fill="#EDEDED"/>
<path d="M178.123 52.043H179.276L182.123 56.6353H182.14V52.043H183.179V58.2776H182.027L179.189 53.6938H179.162V58.2776H178.123V52.043Z" fill="#EDEDED"/>
<path d="M144.893 52.043H150.012V52.9804H148.001V58.2399H146.894V52.9804H144.893V52.043Z" fill="#EDEDED"/>
<path d="M151.291 52.043H155.78V52.9861H152.383V54.6189H155.527V55.5098H152.383V57.3344H155.841V58.2776H151.291V52.043Z" fill="#EDEDED"/>
<path d="M169.778 54.0801C169.731 53.9078 169.667 53.7492 169.586 53.605C169.504 53.4609 169.4 53.3358 169.271 53.2297C169.143 53.1245 168.993 53.042 168.822 52.984C168.65 52.926 168.45 52.8961 168.223 52.8961C167.892 52.8961 167.605 52.9604 167.364 53.0883C167.122 53.2161 166.926 53.3874 166.774 53.6005C166.623 53.8144 166.51 54.0574 166.437 54.3294C166.364 54.6014 166.328 54.8797 166.328 55.1625C166.328 55.4454 166.364 55.7237 166.437 55.9957C166.51 56.2677 166.623 56.5115 166.774 56.7246C166.925 56.9385 167.121 57.109 167.364 57.2368C167.605 57.3646 167.892 57.4281 168.223 57.4281C168.468 57.4281 168.683 57.3882 168.869 57.3075C169.056 57.2268 169.216 57.1162 169.35 56.9739C169.484 56.8325 169.589 56.6666 169.665 56.478C169.741 56.2894 169.755 56.2796 169.778 56.0629H168.501V55.6772V55.2915H169.813H170.387H170.878V55.8697C170.854 56.2251 170.774 56.5505 170.638 56.8443C170.501 57.1389 170.316 57.3927 170.083 57.6067C169.85 57.8207 169.576 57.9857 169.262 58.1026C168.947 58.2196 168.601 58.2776 168.222 58.2776C167.757 58.2776 167.339 58.1951 166.969 58.0319C166.6 57.8678 166.286 57.6439 166.031 57.361C165.774 57.0773 165.577 56.7473 165.442 56.3692C165.305 55.9912 165.236 55.5886 165.236 55.1607C165.236 54.7328 165.305 54.3385 165.442 53.9604C165.578 53.5824 165.775 53.2524 166.031 52.9686C166.287 52.6848 166.6 52.46 166.969 52.2932C167.339 52.1264 167.757 52.043 168.222 52.043C168.572 52.043 168.901 52.0883 169.21 52.1808C169.518 52.2723 169.79 52.4056 170.026 52.5806C170.261 52.7555 170.452 52.9686 170.598 53.2179C170.743 53.4681 170.833 53.7546 170.868 54.0764H169.777L169.778 54.0801Z" fill="#EDEDED"/>
</g>
<path d="M299.679 39.8C299.679 44.12 298.399 47.68 295.879 50.48C293.359 53.28 289.999 54.68 285.799 54.68C281.439 54.68 277.959 53.32 275.399 50.52C272.799 47.76 271.519 44.16 271.519 39.76C271.519 35.48 272.799 31.92 275.439 29.08C278.079 26.28 281.479 24.84 285.719 24.84C289.959 24.84 293.319 26.2 295.879 28.92C298.399 31.64 299.679 35.24 299.679 39.8ZM292.079 39.6C292.079 36.88 291.479 34.76 290.359 33.24C289.199 31.68 287.639 30.92 285.639 30.92C283.639 30.92 282.039 31.68 280.879 33.28C279.679 34.88 279.119 37 279.119 39.72C279.119 42.48 279.679 44.64 280.839 46.2C281.999 47.8 283.599 48.56 285.679 48.56C287.679 48.56 289.279 47.8 290.399 46.2C291.519 44.64 292.079 42.44 292.079 39.6ZM318.252 33.08V39.16C317.172 38.92 316.292 38.76 315.572 38.76C312.132 38.76 310.452 40.72 310.452 44.6V54H303.692V33.36H310.172L310.132 36.88C310.852 35.52 311.692 34.52 312.692 33.88C313.692 33.24 314.972 32.88 316.492 32.88C317.052 32.88 317.612 32.96 318.252 33.08ZM339.9 40.84H333.3C333.3 40 332.94 39.28 332.3 38.72C331.62 38.16 330.86 37.88 329.98 37.88C327.02 37.88 325.58 39.92 325.58 44C325.58 45.48 325.9 46.76 326.58 47.84C327.26 48.88 328.26 49.44 329.62 49.44C331.86 49.44 333.14 48.24 333.5 45.88H340.1C339.86 47.92 339.14 49.64 337.98 51.04C336.82 52.48 335.34 53.44 333.54 54C332.42 54.4 331.3 54.6 330.18 54.6L328.98 56.4L329.06 56.48C329.46 56.36 330.02 56.28 330.66 56.28C331.54 56.28 332.3 56.56 333.02 57.08C333.7 57.6 334.06 58.4 334.06 59.48C334.06 62.08 332.34 63.36 328.94 63.36C327.18 63.36 325.58 62.96 324.22 62.12L324.98 60.32C326.06 60.84 327.14 61.08 328.22 61.08C329.58 61.08 330.26 60.64 330.26 59.68C330.26 58.68 329.7 58.16 328.54 58.16C328.1 58.16 327.58 58.28 326.98 58.44L326.1 57.68L328.06 54.52C327.14 54.44 326.22 54.2 325.3 53.84C323.3 53.08 321.7 51.84 320.54 50.08C319.34 48.36 318.78 46.32 318.78 43.96C318.78 40.64 319.74 37.92 321.74 35.8C323.7 33.72 326.34 32.64 329.66 32.64C332.38 32.64 334.74 33.36 336.66 34.8C338.58 36.24 339.66 38.24 339.9 40.84ZM363.531 54H356.651C356.451 53.44 356.331 52.76 356.331 52.04C354.411 53.8 352.131 54.64 349.491 54.64C347.251 54.64 345.451 54.08 344.171 52.96C342.891 51.84 342.251 50.28 342.251 48.28C342.251 47.32 342.411 46.44 342.771 45.68C343.091 44.96 343.491 44.36 343.971 43.96C344.411 43.56 345.091 43.16 345.971 42.84C346.851 42.52 347.571 42.32 348.211 42.2C348.811 42.08 349.651 41.92 350.771 41.76C353.331 41.36 354.811 41.12 355.131 40.96C355.851 40.68 356.211 40.12 356.211 39.28C356.211 37.84 355.131 37.08 353.051 37.08C351.931 37.08 351.131 37.28 350.651 37.6C350.171 37.96 349.811 38.64 349.571 39.68H343.171C343.571 35.08 346.891 32.76 353.131 32.76C356.451 32.76 358.971 33.4 360.731 34.64C361.491 35.2 362.011 35.88 362.291 36.6C362.571 37.36 362.731 38.44 362.731 39.8V48.08C362.731 50.8 362.971 52.8 363.531 54ZM356.211 44.32C355.891 44.48 355.491 44.64 355.091 44.76C354.651 44.92 354.291 45 354.051 45.04C353.811 45.12 353.371 45.2 352.811 45.32C352.251 45.44 351.891 45.52 351.731 45.52C350.051 45.88 349.211 46.72 349.211 48.04C349.211 48.84 349.451 49.44 349.931 49.84C350.411 50.28 351.051 50.48 351.891 50.48C353.091 50.48 354.091 50.16 354.931 49.44C355.771 48.72 356.211 47.72 356.211 46.44V44.32ZM373.722 33.36V36.08C375.282 33.92 377.402 32.8 380.042 32.8C382.882 32.8 384.842 33.92 385.882 36.12C386.922 34.96 387.882 34.12 388.842 33.6C389.762 33.08 390.962 32.8 392.442 32.8C394.762 32.8 396.562 33.48 397.842 34.84C399.082 36.2 399.722 38.08 399.722 40.4V54H392.882V42C392.882 39.52 391.922 38.24 390.042 38.24C389.002 38.24 388.242 38.6 387.682 39.24C387.122 39.88 386.842 40.76 386.842 41.88V54H380.042V41.76C380.042 40.64 379.842 39.76 379.482 39.12C379.082 38.48 378.362 38.16 377.322 38.16C376.162 38.16 375.322 38.56 374.802 39.32C374.242 40.08 374.002 41.08 374.002 42.28V54H367.202V33.36H373.722ZM425.273 45.32H409.913C409.913 46.84 410.353 48.04 411.193 48.88C412.033 49.72 413.193 50.12 414.633 50.12C416.313 50.12 417.633 49.32 418.513 47.72H424.873C424.193 49.96 422.953 51.64 421.153 52.84C419.353 54.04 417.153 54.64 414.553 54.64C411.273 54.64 408.553 53.68 406.433 51.76C404.313 49.84 403.273 47.2 403.273 43.92C403.273 40.68 404.273 38.04 406.353 35.96C408.393 33.88 411.033 32.84 414.313 32.84C417.673 32.84 420.353 33.92 422.313 36.04C424.273 38.16 425.273 41.04 425.273 44.72V45.32ZM418.593 41.44C418.473 40.24 418.033 39.24 417.313 38.52C416.593 37.8 415.593 37.4 414.353 37.4C411.873 37.4 410.393 38.76 409.993 41.44H418.593ZM435.206 33.36V36.08C436.886 33.92 439.126 32.8 441.886 32.8C444.206 32.8 446.006 33.48 447.366 34.76C448.686 36.04 449.366 37.92 449.366 40.4V54H442.486V42.28C442.486 41.04 442.246 40.08 441.846 39.36C441.406 38.68 440.566 38.32 439.366 38.32C438.126 38.32 437.166 38.68 436.486 39.4C435.806 40.12 435.486 41.16 435.486 42.48V54H428.686V33.36H435.206ZM466.402 33.36L466.362 37.8H462.122V46.32C462.122 47.4 462.282 48.16 462.522 48.56C462.802 48.96 463.482 49.2 464.562 49.2C465.362 49.2 465.962 49.16 466.362 49.12V54.12C464.802 54.24 463.522 54.32 462.522 54.32C459.762 54.32 457.882 53.8 456.882 52.84C455.842 51.84 455.362 50 455.362 47.32V37.76H451.962V33.36H455.362V27.04H462.162V33.36H466.402ZM479.468 32.76C482.668 32.76 485.228 33.8 487.228 35.8C489.228 37.8 490.228 40.44 490.228 43.68C490.228 46.92 489.228 49.56 487.228 51.6C485.228 53.64 482.588 54.68 479.348 54.68C476.108 54.68 473.468 53.64 471.468 51.64C469.468 49.6 468.468 46.96 468.468 43.72C468.468 40.48 469.468 37.84 471.508 35.8C473.548 33.8 476.188 32.76 479.468 32.76ZM479.268 37.84C477.988 37.84 477.028 38.32 476.308 39.36C475.588 40.4 475.228 41.84 475.228 43.72C475.228 45.64 475.588 47.12 476.308 48.16C477.028 49.2 478.068 49.72 479.348 49.72C480.668 49.72 481.668 49.16 482.388 48.12C483.108 47.08 483.428 45.6 483.428 43.68C483.428 41.8 483.068 40.36 482.348 39.36C481.628 38.32 480.628 37.84 479.268 37.84ZM529.579 25.52V31.52H514.179V36.44H528.259V42.2H514.179V47.76H529.939V54H506.779V25.52H529.579ZM540.402 33.36V36.08C541.962 33.92 544.082 32.8 546.722 32.8C549.562 32.8 551.522 33.92 552.562 36.12C553.602 34.96 554.562 34.12 555.522 33.6C556.442 33.08 557.642 32.8 559.122 32.8C561.442 32.8 563.242 33.48 564.522 34.84C565.762 36.2 566.402 38.08 566.402 40.4V54H559.562V42C559.562 39.52 558.602 38.24 556.722 38.24C555.682 38.24 554.922 38.6 554.362 39.24C553.802 39.88 553.522 40.76 553.522 41.88V54H546.722V41.76C546.722 40.64 546.522 39.76 546.162 39.12C545.762 38.48 545.042 38.16 544.002 38.16C542.842 38.16 542.002 38.56 541.482 39.32C540.922 40.08 540.682 41.08 540.682 42.28V54H533.882V33.36H540.402ZM577.393 33.36V35.76C578.833 33.84 580.833 32.84 583.433 32.84C586.153 32.84 588.313 33.84 589.993 35.84C591.633 37.84 592.473 40.52 592.473 43.8C592.473 47.08 591.673 49.68 590.073 51.6C588.473 53.56 586.313 54.52 583.673 54.52C581.193 54.52 579.193 53.56 577.673 51.64V61H570.913V33.36H577.393ZM581.473 38.24C580.193 38.24 579.193 38.76 578.473 39.72C577.753 40.72 577.393 42.08 577.393 43.76C577.393 45.52 577.753 46.88 578.473 47.84C579.193 48.8 580.233 49.28 581.553 49.28C582.873 49.28 583.873 48.84 584.593 47.88C585.313 46.96 585.673 45.64 585.673 43.88C585.673 42.04 585.313 40.64 584.593 39.68C583.873 38.72 582.833 38.24 581.473 38.24ZM610.908 33.08V39.16C609.828 38.92 608.948 38.76 608.228 38.76C604.788 38.76 603.108 40.72 603.108 44.6V54H596.348V33.36H602.828L602.788 36.88C603.508 35.52 604.348 34.52 605.348 33.88C606.348 33.24 607.628 32.88 609.148 32.88C609.708 32.88 610.268 32.96 610.908 33.08ZM633.476 45.32H618.116C618.116 46.84 618.556 48.04 619.396 48.88C620.236 49.72 621.396 50.12 622.836 50.12C624.516 50.12 625.836 49.32 626.716 47.72H633.076C632.396 49.96 631.156 51.64 629.356 52.84C627.556 54.04 625.356 54.64 622.756 54.64C619.476 54.64 616.756 53.68 614.636 51.76C612.516 49.84 611.476 47.2 611.476 43.92C611.476 40.68 612.476 38.04 614.556 35.96C616.596 33.88 619.236 32.84 622.516 32.84C625.876 32.84 628.556 33.92 630.516 36.04C632.476 38.16 633.476 41.04 633.476 44.72V45.32ZM626.796 41.44C626.676 40.24 626.236 39.24 625.516 38.52C624.796 37.8 623.796 37.4 622.556 37.4C620.076 37.4 618.596 38.76 618.196 41.44H626.796ZM655.089 39.4H648.849C648.689 38.52 648.369 37.92 647.849 37.56C647.289 37.2 646.529 37 645.529 37C643.689 37 642.809 37.56 642.809 38.68C642.809 38.88 642.809 39.04 642.889 39.2C642.929 39.36 643.009 39.52 643.169 39.64C643.289 39.76 643.409 39.84 643.529 39.92C643.609 40 643.769 40.04 644.009 40.12C644.209 40.2 644.369 40.24 644.489 40.28C644.569 40.32 644.769 40.36 645.009 40.4C645.249 40.44 645.409 40.48 645.489 40.48C648.409 41.12 650.489 41.64 651.729 42.04C654.369 43 655.689 44.8 655.689 47.44C655.689 49.68 654.809 51.4 653.049 52.68C651.289 53.96 648.849 54.56 645.769 54.56C642.929 54.56 640.569 54 638.729 52.88C636.849 51.76 635.849 49.84 635.729 47.2H642.169C642.289 49.16 643.529 50.12 645.929 50.12C646.889 50.12 647.649 49.96 648.209 49.56C648.769 49.2 649.049 48.68 649.049 48C649.049 47.44 648.809 47.04 648.329 46.72C647.849 46.44 646.929 46.16 645.569 45.84C643.329 45.4 641.529 44.96 640.169 44.48C637.449 43.56 636.129 41.8 636.129 39.2C636.129 37.12 636.929 35.56 638.609 34.44C640.249 33.32 642.609 32.76 645.729 32.76C646.969 32.76 648.129 32.88 649.169 33.12C650.209 33.36 651.209 33.68 652.089 34.16C652.969 34.64 653.649 35.36 654.209 36.24C654.729 37.12 655.009 38.2 655.089 39.4ZM679.156 54H672.276C672.076 53.44 671.956 52.76 671.956 52.04C670.036 53.8 667.756 54.64 665.116 54.64C662.876 54.64 661.076 54.08 659.796 52.96C658.516 51.84 657.876 50.28 657.876 48.28C657.876 47.32 658.036 46.44 658.396 45.68C658.716 44.96 659.116 44.36 659.596 43.96C660.036 43.56 660.716 43.16 661.596 42.84C662.476 42.52 663.196 42.32 663.836 42.2C664.436 42.08 665.276 41.92 666.396 41.76C668.956 41.36 670.436 41.12 670.756 40.96C671.476 40.68 671.836 40.12 671.836 39.28C671.836 37.84 670.756 37.08 668.676 37.08C667.556 37.08 666.756 37.28 666.276 37.6C665.796 37.96 665.436 38.64 665.196 39.68H658.796C659.196 35.08 662.516 32.76 668.756 32.76C672.076 32.76 674.596 33.4 676.356 34.64C677.116 35.2 677.636 35.88 677.916 36.6C678.196 37.36 678.356 38.44 678.356 39.8V48.08C678.356 50.8 678.596 52.8 679.156 54ZM671.836 44.32C671.516 44.48 671.116 44.64 670.716 44.76C670.276 44.92 669.916 45 669.676 45.04C669.436 45.12 668.996 45.2 668.436 45.32C667.876 45.44 667.516 45.52 667.356 45.52C665.676 45.88 664.836 46.72 664.836 48.04C664.836 48.84 665.076 49.44 665.556 49.84C666.036 50.28 666.676 50.48 667.516 50.48C668.716 50.48 669.716 50.16 670.556 49.44C671.396 48.72 671.836 47.72 671.836 46.44V44.32ZM697.627 33.08V39.16C696.547 38.92 695.667 38.76 694.947 38.76C691.507 38.76 689.827 40.72 689.827 44.6V54H683.067V33.36H689.547L689.507 36.88C690.227 35.52 691.067 34.52 692.067 33.88C693.067 33.24 694.347 32.88 695.867 32.88C696.427 32.88 696.987 32.96 697.627 33.08ZM706.898 25.52V30.64H700.098V25.52H706.898ZM706.898 33.36V54H700.098V33.36H706.898ZM731.734 54H724.854C724.654 53.44 724.534 52.76 724.534 52.04C722.614 53.8 720.334 54.64 717.694 54.64C715.454 54.64 713.654 54.08 712.374 52.96C711.094 51.84 710.454 50.28 710.454 48.28C710.454 47.32 710.614 46.44 710.974 45.68C711.294 44.96 711.694 44.36 712.174 43.96C712.614 43.56 713.294 43.16 714.174 42.84C715.054 42.52 715.774 42.32 716.414 42.2C717.014 42.08 717.854 41.92 718.974 41.76C721.534 41.36 723.014 41.12 723.334 40.96C724.054 40.68 724.414 40.12 724.414 39.28C724.414 37.84 723.334 37.08 721.254 37.08C720.134 37.08 719.334 37.28 718.854 37.6C718.374 37.96 718.014 38.64 717.774 39.68H711.374C711.774 35.08 715.094 32.76 721.334 32.76C724.654 32.76 727.174 33.4 728.934 34.64C729.694 35.2 730.214 35.88 730.494 36.6C730.774 37.36 730.934 38.44 730.934 39.8V48.08C730.934 50.8 731.174 52.8 731.734 54ZM724.414 44.32C724.094 44.48 723.694 44.64 723.294 44.76C722.854 44.92 722.494 45 722.254 45.04C722.014 45.12 721.574 45.2 721.014 45.32C720.454 45.44 720.094 45.52 719.934 45.52C718.254 45.88 717.414 46.72 717.414 48.04C717.414 48.84 717.654 49.44 718.134 49.84C718.614 50.28 719.254 50.48 720.094 50.48C721.294 50.48 722.294 50.16 723.134 49.44C723.974 48.72 724.414 47.72 724.414 46.44V44.32ZM742.445 25.52V54H735.645V25.52H742.445Z" fill="#303030"/>
</g>
<rect x="0.5" y="0.5" width="1279" height="719" stroke="#3A3A3A"/>
<defs>
<clipPath id="clip0_264_422">
<rect width="1280" height="720" fill="white"/>
</clipPath>
<clipPath id="clip1_264_422">
<rect width="130.404" height="52" fill="white" transform="translate(66 12)"/>
</clipPath>
</defs>
</svg>
