<svg width="1280" height="720" viewBox="0 0 1280 720" fill="none" xmlns="http://www.w3.org/2000/svg">
<rect x="0.5" y="0.5" width="1279" height="719" fill="#EDEDED"/>
<rect x="0.5" y="0.5" width="1279" height="719" stroke="#FC541F"/>
<g filter="url(#filter0_d_211_372)">
<path d="M583.305 28.7344L572.078 63H561.18L550 28.7344H560.406L565.07 46.1016C565.242 46.7578 565.438 47.6016 565.656 48.6328C565.891 49.6484 566.102 50.6641 566.289 51.6797C566.492 52.6953 566.617 53.5234 566.664 54.1641C566.727 53.5234 566.844 52.7031 567.016 51.7031C567.188 50.7031 567.375 49.7031 567.578 48.7031C567.797 47.6875 568 46.8516 568.188 46.1953L572.945 28.7344H583.305ZM607.375 63H587.031V28.7344H607.375V36.1641H596.289V41.5547H606.555V48.9844H596.289V55.4531H607.375V63ZM646 63H633.859L621.344 38.8594H621.133C621.211 39.5938 621.281 40.4766 621.344 41.5078C621.406 42.5391 621.461 43.5938 621.508 44.6719C621.555 45.7344 621.578 46.6953 621.578 47.5547V63H613.375V28.7344H625.469L637.938 52.5469H638.078C638.031 51.7969 637.984 50.9297 637.938 49.9453C637.891 48.9453 637.844 47.9375 637.797 46.9219C637.766 45.9062 637.75 45.0078 637.75 44.2266V28.7344H646V63ZM682.492 45.1406C682.492 49.125 681.75 52.4375 680.266 55.0781C678.781 57.7188 676.688 59.7031 673.984 61.0312C671.297 62.3438 668.133 63 664.492 63H653.406V28.7344H665.266C668.953 28.7344 672.078 29.3672 674.641 30.6328C677.203 31.8984 679.148 33.75 680.477 36.1875C681.82 38.625 682.492 41.6094 682.492 45.1406ZM672.883 45.4688C672.883 43.3906 672.602 41.6719 672.039 40.3125C671.492 38.9375 670.664 37.9141 669.555 37.2422C668.445 36.5547 667.047 36.2109 665.359 36.2109H662.664V55.4062H664.727C667.539 55.4062 669.602 54.5938 670.914 52.9688C672.227 51.3281 672.883 48.8281 672.883 45.4688ZM709.68 63L707.992 56.5781H696.859L695.125 63H684.953L696.133 28.5938H708.484L719.805 63H709.68ZM706.07 48.9844L704.594 43.3594C704.438 42.75 704.211 41.8828 703.914 40.7578C703.617 39.6172 703.32 38.4453 703.023 37.2422C702.742 36.0234 702.523 35.0234 702.367 34.2422C702.227 35.0234 702.023 35.9922 701.758 37.1484C701.508 38.2891 701.242 39.4219 700.961 40.5469C700.695 41.6719 700.461 42.6094 700.258 43.3594L698.781 48.9844H706.07ZM745.938 52.5938C745.938 54.4531 745.469 56.2188 744.531 57.8906C743.594 59.5469 742.133 60.8906 740.148 61.9219C738.18 62.9531 735.633 63.4688 732.508 63.4688C730.945 63.4688 729.57 63.3984 728.383 63.2578C727.211 63.1172 726.117 62.8906 725.102 62.5781C724.086 62.25 723.031 61.8281 721.938 61.3125V53.0625C723.797 54 725.672 54.7188 727.562 55.2188C729.453 55.7031 731.164 55.9453 732.695 55.9453C733.617 55.9453 734.367 55.8359 734.945 55.6172C735.539 55.3984 735.977 55.1016 736.258 54.7266C736.539 54.3359 736.68 53.8906 736.68 53.3906C736.68 52.7969 736.469 52.2969 736.047 51.8906C735.641 51.4688 734.984 51.0312 734.078 50.5781C733.172 50.125 731.977 49.5625 730.492 48.8906C729.227 48.2969 728.078 47.6875 727.047 47.0625C726.031 46.4375 725.156 45.7266 724.422 44.9297C723.703 44.1172 723.148 43.1719 722.758 42.0938C722.367 41.0156 722.172 39.7422 722.172 38.2734C722.172 36.0703 722.711 34.2266 723.789 32.7422C724.883 31.2422 726.398 30.1172 728.336 29.3672C730.289 28.6172 732.539 28.2422 735.086 28.2422C737.32 28.2422 739.328 28.4922 741.109 28.9922C742.906 29.4922 744.516 30.0625 745.938 30.7031L743.102 37.8516C741.633 37.1797 740.188 36.6484 738.766 36.2578C737.344 35.8516 736.023 35.6484 734.805 35.6484C734.008 35.6484 733.352 35.75 732.836 35.9531C732.336 36.1406 731.961 36.3984 731.711 36.7266C731.477 37.0547 731.359 37.4297 731.359 37.8516C731.359 38.3828 731.562 38.8594 731.969 39.2812C732.391 39.7031 733.086 40.1641 734.055 40.6641C735.039 41.1484 736.375 41.7812 738.062 42.5625C739.734 43.3125 741.156 44.125 742.328 45C743.5 45.8594 744.391 46.8984 745 48.1172C745.625 49.3203 745.938 50.8125 745.938 52.5938Z" fill="black"/>
</g>
<path d="M74.4818 65.5675L63.246 46.1113C63.1676 47.9996 62.6584 49.8297 61.7537 51.4763L61.7757 51.4888L52.8184 67.0002H73.6545C74.1522 67.0002 74.3987 66.6659 74.4818 66.5227C74.5649 66.3794 74.7312 65.9983 74.4818 65.5675Z" fill="#FC541F"/>
<path d="M46.1344 16.4776C45.885 16.0468 45.4733 16 45.307 16C45.1408 16 44.7291 16.0468 44.4797 16.4776L16.1317 65.567C15.8823 65.9977 16.0486 66.3788 16.1317 66.5221C16.2148 66.6654 16.4613 66.9997 16.959 66.9997H24.5254L40.5561 39.2395L40.58 39.2538C41.5831 37.6043 42.9645 36.2127 44.6182 35.1916C46.6187 33.9566 48.9268 33.332 51.2913 33.3797C53.203 33.4198 55.0449 33.9012 56.6986 34.7733L46.1334 16.4776H46.1344Z" fill="#FC541F"/>
<path d="M51.0307 35.2881C45.3425 35.2881 40.7148 39.9148 40.7148 45.6017C40.7148 51.2886 45.3425 55.9153 51.0307 55.9153C56.7188 55.9153 61.3465 51.2886 61.3465 45.6017C61.3465 39.9148 56.7188 35.2881 51.0307 35.2881Z" fill="#FC541F"/>
<path d="M125.175 29.1819C124.804 28.6642 124.344 28.2038 123.794 27.8017C123.244 27.4005 122.599 27.0825 121.859 26.8494C121.562 26.7654 121.07 26.6326 120.383 26.453C119.695 26.2735 118.992 26.0882 118.272 25.8981C117.553 25.708 116.902 25.5332 116.32 25.3747C115.739 25.2161 115.405 25.1264 115.321 25.1053C114.517 24.8723 113.866 24.5294 113.369 24.0748C112.872 23.6201 112.623 22.9907 112.623 22.1874C112.623 21.6162 112.755 21.1406 113.02 20.7595C113.284 20.3784 113.617 20.0775 114.019 19.8549C114.421 19.6324 114.865 19.4738 115.352 19.3793C115.838 19.2838 116.314 19.236 116.78 19.236C118.155 19.236 119.287 19.5378 120.175 20.1405C121.064 20.7432 121.561 21.7748 121.667 23.2342H125.633C125.633 22.0499 125.4 21.0078 124.935 20.109C124.47 19.2102 123.84 18.4538 123.047 17.8406C122.253 17.2274 121.333 16.767 120.286 16.4604C119.239 16.1538 118.123 16 116.938 16C115.922 16 114.917 16.1318 113.923 16.3964C112.928 16.6619 112.04 17.0678 111.257 17.618C110.474 18.1682 109.845 18.8606 109.368 19.6964C108.893 20.5321 108.655 21.5207 108.655 22.6631C108.655 23.2552 108.734 23.8369 108.893 24.4081C109.051 24.9793 109.321 25.518 109.702 26.0261C110.083 26.5342 110.595 26.9937 111.241 27.4063C111.886 27.8189 112.695 28.1522 113.668 28.4054C115.234 28.8285 116.551 29.1723 117.62 29.4369C118.688 29.7015 119.624 29.9813 120.428 30.2774C120.894 30.4465 121.322 30.7378 121.713 31.1504C122.104 31.563 122.3 32.203 122.3 33.0693C122.3 33.4924 122.215 33.9098 122.046 34.3224C121.877 34.7351 121.602 35.0999 121.22 35.417C120.839 35.7341 120.342 35.9939 119.729 36.1945C119.115 36.3951 118.374 36.4954 117.508 36.4954C116.704 36.4954 115.957 36.4056 115.271 36.226C114.583 36.0465 113.974 35.7609 113.446 35.3693C112.917 34.9777 112.504 34.4762 112.208 33.8621C111.912 33.2489 111.763 32.5086 111.763 31.6414H107.797C107.818 33.0378 108.083 34.2479 108.59 35.2738C109.098 36.2996 109.774 37.1401 110.621 37.7963C111.466 38.4525 112.462 38.9386 113.603 39.2557C114.746 39.5728 115.962 39.7314 117.253 39.7314C118.374 39.7314 119.474 39.5996 120.553 39.335C121.632 39.0704 122.594 38.653 123.441 38.0819C124.286 37.5107 124.969 36.7762 125.488 35.8765C126.006 34.9777 126.266 33.8936 126.266 32.6242C126.266 32.033 126.176 31.4398 125.996 30.8476C125.817 30.2555 125.542 29.7005 125.171 29.1819H125.175Z" fill="black"/>
<path d="M104.279 18.9813C103.729 18.2831 102.946 17.7024 101.931 17.2363C100.915 16.7711 99.6036 16.5381 97.9958 16.5381H88V19.7741H97.8372C98.3655 19.7741 98.8633 19.8276 99.3285 19.9327C99.7938 20.0387 100.206 20.2345 100.567 20.5201C100.926 20.8057 101.211 21.1915 101.424 21.6777C101.635 22.1648 101.741 22.778 101.741 23.5173C101.741 24.2566 101.618 24.8344 101.376 25.3101C101.132 25.7857 100.815 26.1668 100.424 26.4524C100.033 26.738 99.6046 26.9443 99.1393 27.0714C98.6741 27.1984 98.2193 27.2614 97.7751 27.2614H91.9676V23.374H88.001V39.1911H91.9676V30.4984H97.9967C99.6046 30.4984 100.916 30.2711 101.932 29.8155C102.947 29.3608 103.73 28.7849 104.28 28.0867C104.83 27.3885 105.205 26.633 105.406 25.8182C105.607 25.0044 105.708 24.248 105.708 23.5498C105.708 22.8516 105.608 22.0903 105.406 21.266C105.205 20.4408 104.829 19.6795 104.28 18.9813H104.279Z" fill="black"/>
<path d="M145.265 30.1803H141.311H139.98H134.393L137.82 20.4408H137.915L140.056 26.5804H143.878L140.01 16.5381H135.789L127.094 39.1911H131.187L133.314 33.1948H142.358L144.484 39.1911H148.737L145.265 30.1803Z" fill="black"/>
<path d="M88 50.0439H89.0977V52.5378H91.9523V50.0439H93.05V56.3135H91.9523V53.4863H89.0977V56.3135H88V50.0439Z" fill="black"/>
<path d="M94.2969 50.0439H95.3946V53.6964C95.3946 53.9065 95.4051 54.1205 95.4251 54.3373C95.4452 54.5541 95.5044 54.749 95.6009 54.9209C95.6974 55.0938 95.8436 55.2361 96.0404 55.3469C96.2362 55.4586 96.5133 55.514 96.8706 55.514C97.2279 55.514 97.504 55.4586 97.7008 55.3469C97.8966 55.2361 98.0437 55.0938 98.1402 54.9209C98.2367 54.748 98.295 54.5532 98.316 54.3373C98.3361 54.1205 98.3466 53.9065 98.3466 53.6964V50.0439H99.4443V54.0565C99.4443 54.4605 99.3831 54.812 99.2599 55.11C99.1367 55.409 98.9628 55.6592 98.7373 55.8607C98.5119 56.0623 98.2415 56.2132 97.9253 56.3125C97.6091 56.4119 97.2575 56.4615 96.8715 56.4615C96.4856 56.4615 96.134 56.4119 95.8178 56.3125C95.5016 56.2132 95.2312 56.0623 95.0057 55.8607C94.7803 55.6583 94.6064 55.408 94.4832 55.11C94.3599 54.811 94.2988 54.4605 94.2988 54.0565V50.0439H94.2969Z" fill="black"/>
<path d="M100.707 50.0439H103.755C104.316 50.0439 104.767 50.1729 105.107 50.4308C105.447 50.6887 105.617 51.0774 105.617 51.5989C105.617 51.9151 105.539 52.1863 105.383 52.4108C105.229 52.6362 105.007 52.81 104.72 52.9332V52.9514C105.106 53.0335 105.4 53.216 105.598 53.5006C105.797 53.7843 105.897 54.1405 105.897 54.5675C105.897 54.813 105.853 55.0431 105.766 55.2571C105.678 55.471 105.54 55.6554 105.353 55.8101C105.166 55.9649 104.926 56.0881 104.633 56.1788C104.339 56.2695 103.992 56.3154 103.587 56.3154H100.707V50.0459V50.0439ZM101.805 52.6696H103.596C103.86 52.6696 104.079 52.5951 104.254 52.4461C104.43 52.2971 104.518 52.0813 104.518 51.8004C104.518 51.4843 104.439 51.2617 104.281 51.1328C104.122 51.0039 103.894 50.9399 103.596 50.9399H101.805V52.6696ZM101.805 55.4176H103.746C104.079 55.4176 104.339 55.3316 104.524 55.1587C104.708 54.9858 104.801 54.7413 104.801 54.4252C104.801 54.109 104.708 53.876 104.524 53.7098C104.339 53.5436 104.08 53.4595 103.746 53.4595H101.805V55.4176Z" fill="black"/>
<path d="M109.33 50.0439H111.93C112.409 50.0439 112.826 50.1261 113.176 50.2903C113.527 50.4546 113.814 50.6781 114.037 50.9618C114.26 51.2455 114.425 51.5779 114.533 51.958C114.641 52.3382 114.695 52.7451 114.695 53.1787C114.695 53.6123 114.641 54.0183 114.533 54.3994C114.425 54.7795 114.259 55.1119 114.037 55.3956C113.814 55.6792 113.528 55.9037 113.176 56.067C112.825 56.2313 112.409 56.3125 111.93 56.3125H109.33V50.043V50.0439ZM110.428 55.4175H111.508C111.935 55.4175 112.286 55.3602 112.558 55.2466C112.83 55.132 113.044 54.9744 113.199 54.7728C113.354 54.5703 113.46 54.3335 113.515 54.0612C113.571 53.789 113.599 53.4948 113.599 53.1787C113.599 52.8625 113.571 52.5684 113.515 52.2961C113.46 52.0239 113.354 51.7871 113.199 51.5846C113.044 51.3821 112.83 51.2245 112.558 51.1099C112.286 50.9952 111.936 50.9389 111.508 50.9389H110.428V55.4166V55.4175Z" fill="black"/>
<path d="M115.672 50.0439H120.186V50.9924H116.77V52.6343H119.931V53.5302H116.77V55.365H120.247V56.3135H115.672V50.0439Z" fill="black"/>
<path d="M124.366 54.2242C124.366 54.4639 124.407 54.6693 124.489 54.8383C124.572 55.0083 124.685 55.1468 124.832 55.2557C124.979 55.3646 125.147 55.4429 125.338 55.4926C125.528 55.5422 125.734 55.5671 125.957 55.5671C126.197 55.5671 126.402 55.5394 126.571 55.484C126.741 55.4286 126.879 55.357 126.984 55.2691C127.089 55.1812 127.165 55.08 127.212 54.9663C127.259 54.8517 127.282 54.7371 127.282 54.6196C127.282 54.3798 127.227 54.2022 127.12 54.0885C127.012 53.9739 126.892 53.8937 126.764 53.8469C126.542 53.7647 126.283 53.6874 125.986 53.6138C125.69 53.5403 125.326 53.4457 124.894 53.3282C124.624 53.2585 124.401 53.1659 124.222 53.0512C124.043 52.9366 123.901 52.8096 123.796 52.6692C123.691 52.5288 123.616 52.3798 123.572 52.2212C123.528 52.0627 123.506 51.9022 123.506 51.7379C123.506 51.4218 123.572 51.1486 123.704 50.9165C123.836 50.6854 124.01 50.4934 124.227 50.3415C124.444 50.1896 124.689 50.0769 124.964 50.0034C125.239 49.9308 125.517 49.8936 125.798 49.8936C126.126 49.8936 126.435 49.9365 126.725 50.0206C127.015 50.1046 127.27 50.2326 127.489 50.4026C127.709 50.5727 127.883 50.7818 128.012 51.0302C128.141 51.2795 128.205 51.567 128.205 51.8955H127.107C127.078 51.4915 126.94 51.2059 126.694 51.0397C126.449 50.8726 126.136 50.7895 125.754 50.7895C125.625 50.7895 125.494 50.8028 125.359 50.8296C125.224 50.8554 125.101 50.8993 124.99 50.9614C124.878 51.0225 124.787 51.1066 124.713 51.2116C124.639 51.3167 124.603 51.4485 124.603 51.6071C124.603 51.8296 124.672 52.0035 124.81 52.1295C124.947 52.2556 125.127 52.3502 125.349 52.4151C125.372 52.4209 125.465 52.4457 125.626 52.4896C125.787 52.5336 125.967 52.5823 126.166 52.6348C126.365 52.6873 126.56 52.7389 126.75 52.7886C126.94 52.8382 127.077 52.8755 127.158 52.8984C127.362 52.9634 127.541 53.0503 127.694 53.162C127.846 53.2738 127.974 53.4008 128.076 53.5441C128.178 53.6874 128.254 53.8411 128.304 54.0054C128.354 54.1697 128.379 54.333 128.379 54.4973C128.379 54.8488 128.307 55.1487 128.164 55.3971C128.02 55.6464 127.831 55.8489 127.597 56.0074C127.363 56.165 127.097 56.2815 126.798 56.3541C126.499 56.4277 126.195 56.464 125.884 56.464C125.527 56.464 125.191 56.42 124.874 56.3321C124.558 56.2443 124.283 56.1096 124.049 55.9281C123.815 55.7466 123.628 55.5136 123.487 55.2299C123.347 54.9462 123.273 54.611 123.268 54.2242H124.365H124.366Z" fill="black"/>
<path d="M132.007 49.8955C132.475 49.8955 132.895 49.9834 133.267 50.1591C133.638 50.3349 133.953 50.5717 134.211 50.8707C134.468 51.1697 134.665 51.5173 134.803 51.9156C134.94 52.3139 135.009 52.7351 135.009 53.1802C135.009 53.6253 134.94 54.0551 134.803 54.4534C134.665 54.8517 134.468 55.1994 134.211 55.4984C133.953 55.7973 133.638 56.0323 133.267 56.2052C132.895 56.378 132.475 56.464 132.007 56.464C131.538 56.464 131.118 56.3771 130.746 56.2052C130.375 56.0323 130.06 55.7964 129.803 55.4984C129.545 55.1994 129.347 54.8517 129.21 54.4534C129.073 54.0551 129.004 53.6311 129.004 53.1802C129.004 52.7294 129.073 52.3139 129.21 51.9156C129.348 51.5173 129.546 51.1697 129.803 50.8707C130.061 50.5717 130.375 50.3349 130.746 50.1591C131.118 49.9834 131.538 49.8955 132.007 49.8955ZM132.007 50.7914C131.673 50.7914 131.385 50.8592 131.142 50.9939C130.899 51.1286 130.702 51.3091 130.549 51.5336C130.397 51.759 130.284 52.015 130.211 52.3015C130.137 52.588 130.101 52.8813 130.101 53.1793C130.101 53.4773 130.137 53.7705 130.211 54.0571C130.284 54.3436 130.397 54.6005 130.549 54.825C130.701 55.0504 130.898 55.23 131.142 55.3646C131.385 55.4993 131.673 55.5662 132.007 55.5662C132.34 55.5662 132.628 55.4993 132.871 55.3646C133.114 55.23 133.312 55.0504 133.464 54.825C133.616 54.5996 133.729 54.3436 133.803 54.0571C133.875 53.7705 133.912 53.4773 133.912 53.1793C133.912 52.8813 133.876 52.588 133.803 52.3015C133.729 52.015 133.616 51.759 133.464 51.5336C133.313 51.3082 133.115 51.1286 132.871 50.9939C132.628 50.8592 132.34 50.7914 132.007 50.7914Z" fill="black"/>
<path d="M136.012 50.0439H137.109V55.365H140.297V56.3135H136.012V50.0439Z" fill="black"/>
<path d="M140.982 50.0439H142.08V53.6964C142.08 53.9065 142.091 54.1205 142.111 54.3373C142.131 54.5541 142.19 54.749 142.286 54.9209C142.383 55.0938 142.529 55.2361 142.726 55.3469C142.922 55.4586 143.199 55.514 143.556 55.514C143.913 55.514 144.19 55.4586 144.386 55.3469C144.582 55.2361 144.729 55.0938 144.826 54.9209C144.922 54.748 144.981 54.5532 145.002 54.3373C145.022 54.1205 145.032 53.9065 145.032 53.6964V50.0439H146.13V54.0565C146.13 54.4605 146.069 54.812 145.945 55.11C145.822 55.409 145.648 55.6592 145.423 55.8607C145.197 56.0623 144.927 56.2132 144.611 56.3125C144.295 56.4119 143.943 56.4615 143.557 56.4615C143.171 56.4615 142.82 56.4119 142.503 56.3125C142.187 56.2132 141.917 56.0623 141.691 55.8607C141.466 55.6583 141.292 55.408 141.169 55.11C141.045 54.811 140.984 54.4605 140.984 54.0565V50.0439H140.982Z" fill="black"/>
<path d="M152.732 53.9262C152.709 54.2949 152.63 54.6349 152.496 54.9444C152.361 55.2548 152.179 55.5213 151.951 55.7438C151.723 55.9664 151.453 56.1393 151.143 56.2615C150.832 56.3847 150.493 56.4487 150.124 56.4544L149.843 56.8231V56.8403C149.879 56.8289 149.92 56.8212 149.967 56.8184C150.014 56.8155 150.069 56.8145 150.134 56.8145C150.222 56.8145 150.31 56.8279 150.398 56.8537C150.485 56.8795 150.565 56.9196 150.635 56.9721C150.705 57.0247 150.763 57.0925 150.81 57.1746C150.857 57.2568 150.881 57.3532 150.881 57.464C150.881 57.6159 150.848 57.742 150.784 57.8413C150.72 57.9406 150.638 58.0218 150.539 58.083C150.44 58.1441 150.327 58.188 150.201 58.2148C150.075 58.2415 149.948 58.2549 149.819 58.2549C149.69 58.2549 149.529 58.2396 149.353 58.211C149.178 58.1813 149.031 58.1345 148.914 58.0705L149.072 57.7191C149.165 57.7487 149.259 57.7792 149.352 57.8117C149.446 57.8442 149.543 57.8604 149.642 57.8604C149.7 57.8604 149.761 57.8556 149.826 57.847C149.89 57.8384 149.95 57.8213 150.002 57.7945C150.055 57.7687 150.098 57.7315 150.129 57.6847C150.162 57.6379 150.177 57.5758 150.177 57.5003C150.177 57.3886 150.134 57.3055 150.05 57.2501C149.965 57.1947 149.873 57.167 149.773 57.167C149.644 57.167 149.53 57.1956 149.431 57.2549L149.238 57.0877L149.721 56.4468C149.306 56.4057 148.932 56.2921 148.602 56.1039C148.271 55.9167 147.991 55.6751 147.763 55.3799C147.534 55.0848 147.361 54.7495 147.24 54.3742C147.12 53.9997 147.061 53.6014 147.061 53.1802C147.061 52.7351 147.129 52.3139 147.267 51.9156C147.404 51.5173 147.602 51.1697 147.859 50.8707C148.117 50.5717 148.431 50.3349 148.803 50.1591C149.175 49.9834 149.595 49.8955 150.063 49.8955C150.415 49.8955 150.745 49.9433 151.056 50.0407C151.366 50.1372 151.64 50.2776 151.876 50.4619C152.113 50.6462 152.305 50.8707 152.452 51.1334C152.598 51.397 152.688 51.6988 152.724 52.0379H151.626C151.579 51.8564 151.514 51.6893 151.433 51.5374C151.351 51.3855 151.246 51.2537 151.117 51.142C150.988 51.0312 150.837 50.9442 150.665 50.8831C150.492 50.822 150.292 50.7905 150.063 50.7905C149.73 50.7905 149.441 50.8583 149.199 50.993C148.956 51.1276 148.758 51.3082 148.605 51.5326C148.453 51.758 148.341 52.014 148.267 52.3005C148.194 52.5871 148.157 52.8803 148.157 53.1783C148.157 53.4763 148.194 53.7696 148.267 54.0561C148.341 54.3426 148.453 54.5996 148.605 54.824C148.757 55.0494 148.955 55.229 149.199 55.3637C149.441 55.4984 149.73 55.5652 150.063 55.5652C150.309 55.5652 150.526 55.5232 150.713 55.4382C150.9 55.3532 151.062 55.2366 151.196 55.0867C151.331 54.9377 151.436 54.7629 151.512 54.5642C151.589 54.3656 151.639 54.1516 151.662 53.9233H152.732V53.9262Z" fill="black"/>
<path d="M156.401 49.8956C156.869 49.8956 157.29 49.9835 157.661 50.1592C158.033 50.335 158.347 50.5718 158.605 50.8708C158.863 51.1697 159.06 51.5174 159.197 51.9157C159.335 52.314 159.404 52.7352 159.404 53.1803C159.404 53.6254 159.335 54.0552 159.197 54.4535C159.06 54.8518 158.862 55.1995 158.605 55.4984C158.347 55.7974 158.033 56.0324 157.661 56.2052C157.29 56.3781 156.869 56.4641 156.401 56.4641C155.933 56.4641 155.513 56.3772 155.141 56.2052C154.769 56.0324 154.454 55.7964 154.197 55.4984C153.939 55.1995 153.741 54.8518 153.605 54.4535C153.467 54.0552 153.398 53.6311 153.398 53.1803C153.398 52.7295 153.467 52.314 153.605 51.9157C153.742 51.5174 153.94 51.1697 154.197 50.8708C154.455 50.5718 154.769 50.335 155.141 50.1592C155.513 49.9835 155.933 49.8956 156.401 49.8956ZM156.401 50.7915C156.068 50.7915 155.779 50.8593 155.537 50.994C155.294 51.1287 155.096 51.3092 154.943 51.5336C154.791 51.7591 154.679 52.015 154.605 52.3016C154.531 52.5881 154.495 52.8814 154.495 53.1794C154.495 53.4774 154.531 53.7706 154.605 54.0571C154.679 54.3437 154.791 54.6006 154.943 54.8251C155.095 55.0505 155.293 55.23 155.537 55.3647C155.779 55.4994 156.068 55.5663 156.401 55.5663C156.735 55.5663 157.023 55.4994 157.266 55.3647C157.508 55.23 157.706 55.0505 157.859 54.8251C158.011 54.5996 158.124 54.3437 158.197 54.0571C158.27 53.7706 158.307 53.4774 158.307 53.1794C158.307 52.8814 158.271 52.5881 158.197 52.3016C158.124 52.015 158.011 51.7591 157.859 51.5336C157.707 51.3082 157.509 51.1287 157.266 50.994C157.023 50.8593 156.735 50.7915 156.401 50.7915ZM157.991 48.289C157.967 48.4294 157.933 48.5613 157.89 48.6845C157.846 48.8077 157.783 48.9127 157.7 49.0006C157.624 49.0942 157.53 49.1678 157.419 49.2203C157.308 49.2728 157.174 49.2996 157.015 49.2996C156.916 49.2996 156.81 49.2833 156.699 49.2509C156.587 49.2193 156.477 49.1792 156.366 49.1324C156.231 49.0742 156.123 49.0331 156.041 49.0092C155.959 48.9863 155.868 48.9739 155.769 48.9739C155.664 48.9739 155.579 49.0044 155.518 49.0665C155.457 49.1286 155.414 49.2174 155.391 49.334H154.891C154.908 49.2232 154.94 49.1085 154.987 48.9911C155.034 48.8745 155.095 48.7676 155.172 48.6701C155.248 48.5737 155.339 48.4944 155.444 48.4333C155.549 48.3721 155.669 48.3406 155.804 48.3406C155.915 48.3406 156.016 48.3511 156.107 48.3712C156.198 48.3922 156.333 48.44 156.515 48.5164C156.638 48.5689 156.738 48.609 156.818 48.6348C156.897 48.6606 156.977 48.674 157.059 48.674C157.188 48.674 157.286 48.6386 157.354 48.5689C157.42 48.4992 157.469 48.4056 157.499 48.2881H157.991V48.289Z" fill="black"/>
<path d="M160.406 50.0439H164.92V50.9924H161.504V52.6343H164.665V53.5302H161.504V55.365H164.981V56.3135H160.406V50.0439Z" fill="black"/>
<path d="M166.659 54.2242C166.659 54.4639 166.7 54.6693 166.782 54.8383C166.865 55.0083 166.978 55.1468 167.125 55.2557C167.272 55.3646 167.44 55.4429 167.631 55.4926C167.821 55.5422 168.027 55.5671 168.25 55.5671C168.49 55.5671 168.695 55.5394 168.864 55.484C169.034 55.4286 169.172 55.357 169.277 55.2691C169.382 55.1812 169.458 55.08 169.505 54.9663C169.552 54.8517 169.575 54.7371 169.575 54.6196C169.575 54.3798 169.52 54.2022 169.413 54.0885C169.305 53.9739 169.185 53.8937 169.057 53.8469C168.835 53.7647 168.576 53.6874 168.279 53.6138C167.983 53.5403 167.619 53.4457 167.187 53.3282C166.917 53.2585 166.694 53.1659 166.515 53.0512C166.336 52.9366 166.194 52.8096 166.089 52.6692C165.984 52.5288 165.909 52.3798 165.865 52.2212C165.821 52.0627 165.799 51.9022 165.799 51.7379C165.799 51.4218 165.865 51.1486 165.997 50.9165C166.129 50.6854 166.303 50.4934 166.52 50.3415C166.737 50.1896 166.982 50.0769 167.257 50.0034C167.532 49.9308 167.81 49.8936 168.091 49.8936C168.419 49.8936 168.728 49.9365 169.018 50.0206C169.308 50.1046 169.562 50.2326 169.782 50.4026C170.002 50.5727 170.176 50.7818 170.305 51.0302C170.434 51.2795 170.498 51.567 170.498 51.8955H169.4C169.37 51.4915 169.233 51.2059 168.987 51.0397C168.742 50.8726 168.428 50.7895 168.047 50.7895C167.918 50.7895 167.786 50.8028 167.652 50.8296C167.517 50.8554 167.394 50.8993 167.283 50.9614C167.171 51.0225 167.08 51.1066 167.006 51.2116C166.932 51.3167 166.896 51.4485 166.896 51.6071C166.896 51.8296 166.965 52.0035 167.102 52.1295C167.24 52.2556 167.42 52.3502 167.642 52.4151C167.665 52.4209 167.758 52.4457 167.919 52.4896C168.08 52.5336 168.26 52.5823 168.459 52.6348C168.658 52.6873 168.853 52.7389 169.043 52.7886C169.233 52.8382 169.37 52.8755 169.451 52.8984C169.655 52.9634 169.834 53.0503 169.987 53.162C170.139 53.2738 170.267 53.4008 170.369 53.5441C170.471 53.6874 170.547 53.8411 170.597 54.0054C170.647 54.1697 170.672 54.333 170.672 54.4973C170.672 54.8488 170.6 55.1487 170.457 55.3971C170.313 55.6464 170.124 55.8489 169.89 56.0074C169.656 56.165 169.39 56.2815 169.091 56.3541C168.792 56.4277 168.488 56.464 168.177 56.464C167.82 56.464 167.484 56.42 167.167 56.3321C166.851 56.2443 166.576 56.1096 166.342 55.9281C166.108 55.7466 165.921 55.5136 165.78 55.2299C165.64 54.9462 165.566 54.611 165.561 54.2242H166.658H166.659Z" fill="black"/>
<path d="M88.0273 60.5801H90.794C91.2392 60.5801 91.6023 60.645 91.8831 60.773C92.164 60.9019 92.3809 61.0624 92.5328 61.2563C92.6847 61.4492 92.7888 61.6603 92.8442 61.8886C92.8996 62.1169 92.9273 62.328 92.9273 62.5209C92.9273 62.7138 92.8996 62.923 92.8442 63.1484C92.7888 63.3738 92.6847 63.583 92.5328 63.776C92.3809 63.9689 92.164 64.1284 91.8831 64.2545C91.6023 64.3806 91.2392 64.4426 90.794 64.4426H89.125V66.8486H88.0273V60.5791V60.5801ZM89.125 63.5477H90.7319C90.8552 63.5477 90.9803 63.5305 91.1093 63.4951C91.2383 63.4598 91.3567 63.4025 91.4647 63.3242C91.5726 63.2449 91.6605 63.1398 91.7284 63.008C91.7952 62.8762 91.8296 62.711 91.8296 62.5123C91.8296 62.3136 91.8 62.1379 91.7417 62.0032C91.6835 61.8685 91.6042 61.7616 91.5048 61.6823C91.4055 61.603 91.2908 61.5495 91.1628 61.5199C91.0338 61.4903 90.8963 61.476 90.7501 61.476H89.125V63.5477Z" fill="black"/>
<path d="M94.9124 60.5801H96.0808L98.4959 66.8496H97.3189L96.7304 65.1905H94.2274L93.6389 66.8496H92.5059L94.9124 60.5801ZM94.5255 64.3557H96.44L95.4999 61.6603H95.4732L94.5245 64.3557H94.5255Z" fill="black"/>
<path d="M99.0918 60.5801H102.087C102.778 60.5801 103.295 60.7291 103.641 61.028C103.987 61.327 104.159 61.7425 104.159 62.2745C104.159 62.5734 104.115 62.8208 104.027 63.0166C103.939 63.2124 103.837 63.371 103.719 63.4904C103.602 63.6107 103.486 63.6967 103.373 63.7492C103.259 63.8017 103.175 63.8371 103.122 63.8543V63.8715C103.216 63.8839 103.317 63.9125 103.425 63.9593C103.533 64.0061 103.634 64.0806 103.728 64.1828C103.822 64.285 103.899 64.4188 103.961 64.5821C104.022 64.7464 104.054 64.9508 104.054 65.1962C104.054 65.5649 104.082 65.9002 104.137 66.202C104.192 66.5038 104.278 66.7187 104.396 66.8477H103.219C103.137 66.713 103.089 66.564 103.074 66.3997C103.059 66.2364 103.052 66.0778 103.052 65.926C103.052 65.6394 103.035 65.3921 102.999 65.1838C102.964 64.9756 102.9 64.8037 102.806 64.6661C102.713 64.5286 102.586 64.4274 102.424 64.3634C102.263 64.2994 102.056 64.2669 101.805 64.2669H100.189V66.8486H99.0918V60.5791V60.5801ZM100.189 63.434H101.989C102.341 63.434 102.607 63.3509 102.789 63.1838C102.971 63.0166 103.061 62.7664 103.061 62.433C103.061 62.2344 103.032 62.072 102.973 61.9459C102.915 61.8198 102.834 61.7214 102.732 61.6517C102.629 61.582 102.512 61.5352 102.38 61.5113C102.248 61.4874 102.113 61.476 101.972 61.476H100.189V63.434Z" fill="black"/>
<path d="M106.951 60.5801H108.12L110.535 66.8496H109.358L108.769 65.1905H106.266L105.678 66.8496H104.545L106.951 60.5801ZM106.565 64.3557H108.48L107.54 61.6603H107.513L106.565 64.3557H106.565Z" fill="black"/>
<path d="M117.807 62.573C117.76 62.3915 117.695 62.2243 117.614 62.0725C117.532 61.9206 117.427 61.7888 117.298 61.677C117.169 61.5662 117.018 61.4793 116.846 61.4182C116.673 61.3571 116.472 61.3255 116.244 61.3255C115.91 61.3255 115.622 61.3934 115.379 61.528C115.137 61.6627 114.939 61.8432 114.786 62.0677C114.634 62.2931 114.521 62.5491 114.448 62.8356C114.374 63.1222 114.338 63.4154 114.338 63.7134C114.338 64.0114 114.374 64.3046 114.448 64.5912C114.521 64.8777 114.634 65.1346 114.786 65.3591C114.938 65.5845 115.136 65.7641 115.379 65.8988C115.622 66.0334 115.91 66.1003 116.244 66.1003C116.489 66.1003 116.706 66.0583 116.893 65.9733C117.081 65.8882 117.242 65.7717 117.377 65.6218C117.512 65.4728 117.617 65.298 117.693 65.0993C117.77 64.9006 117.819 64.6867 117.842 64.4584H118.913C118.889 64.8328 118.809 65.1757 118.671 65.4852C118.534 65.7956 118.348 66.063 118.113 66.2884C117.879 66.5139 117.604 66.6877 117.288 66.8109C116.972 66.9341 116.623 66.9953 116.243 66.9953C115.775 66.9953 115.354 66.9083 114.983 66.7364C114.611 66.5635 114.296 66.3276 114.039 66.0296C113.781 65.7307 113.583 65.383 113.447 64.9847C113.309 64.5864 113.24 64.1623 113.24 63.7115C113.24 63.2607 113.309 62.8452 113.447 62.4469C113.584 62.0486 113.782 61.7009 114.039 61.402C114.297 61.103 114.611 60.8661 114.983 60.6904C115.354 60.5146 115.775 60.4268 116.243 60.4268C116.594 60.4268 116.925 60.4745 117.235 60.5719C117.546 60.6684 117.819 60.8088 118.056 60.9932C118.293 61.1775 118.485 61.402 118.631 61.6646C118.777 61.9282 118.868 62.2301 118.904 62.5691H117.806L117.807 62.573Z" fill="black"/>
<path d="M122.583 60.4307C123.051 60.4307 123.471 60.5185 123.843 60.6943C124.214 60.87 124.529 61.1069 124.787 61.4059C125.045 61.7048 125.241 62.0525 125.379 62.4508C125.517 62.8491 125.585 63.2703 125.585 63.7154C125.585 64.1605 125.517 64.5903 125.379 64.9886C125.241 65.3869 125.044 65.7346 124.787 66.0335C124.529 66.3325 124.214 66.5674 123.843 66.7403C123.471 66.9132 123.051 66.9992 122.583 66.9992C122.115 66.9992 121.694 66.9122 121.323 66.7403C120.951 66.5674 120.636 66.3315 120.379 66.0335C120.121 65.7346 119.923 65.3869 119.786 64.9886C119.649 64.5903 119.58 64.1662 119.58 63.7154C119.58 63.2646 119.649 62.8491 119.786 62.4508C119.924 62.0525 120.122 61.7048 120.379 61.4059C120.637 61.1069 120.951 60.87 121.323 60.6943C121.694 60.5185 122.115 60.4307 122.583 60.4307ZM122.583 61.3266C122.249 61.3266 121.961 61.3944 121.718 61.5291C121.475 61.6637 121.278 61.8443 121.125 62.0687C120.973 62.2941 120.86 62.5501 120.787 62.8367C120.713 63.1232 120.677 63.4164 120.677 63.7144C120.677 64.0124 120.713 64.3057 120.787 64.5922C120.86 64.8787 120.973 65.1357 121.125 65.3601C121.277 65.5856 121.475 65.7651 121.718 65.8998C121.961 66.0345 122.249 66.1013 122.583 66.1013C122.916 66.1013 123.205 66.0345 123.447 65.8998C123.69 65.7651 123.888 65.5856 124.041 65.3601C124.192 65.1347 124.305 64.8787 124.379 64.5922C124.451 64.3057 124.489 64.0124 124.489 63.7144C124.489 63.4164 124.452 63.1232 124.379 62.8367C124.305 62.5501 124.192 62.2941 124.041 62.0687C123.889 61.8433 123.691 61.6637 123.447 61.5291C123.205 61.3944 122.916 61.3266 122.583 61.3266Z" fill="black"/>
<path d="M126.545 60.5801H127.704L130.567 65.1982H130.584V60.5801H131.629V66.8496H130.47L127.617 62.2401H127.59V66.8496H126.545V60.5801Z" fill="black"/>
<path d="M133.649 64.7603C133.649 65 133.691 65.2054 133.773 65.3744C133.855 65.5445 133.969 65.683 134.116 65.7918C134.262 65.9007 134.43 65.979 134.621 66.0287C134.811 66.0784 135.017 66.1032 135.24 66.1032C135.48 66.1032 135.685 66.0755 135.854 66.0201C136.024 65.9647 136.162 65.8931 136.267 65.8052C136.372 65.7173 136.449 65.6161 136.495 65.5024C136.542 65.3878 136.565 65.2732 136.565 65.1557C136.565 64.916 136.511 64.7383 136.403 64.6247C136.295 64.51 136.175 64.4298 136.047 64.383C135.825 64.3009 135.566 64.2235 135.27 64.15C134.974 64.0764 134.61 63.9819 134.177 63.8644C133.907 63.7946 133.684 63.702 133.505 63.5874C133.327 63.4728 133.184 63.3457 133.079 63.2053C132.974 63.0649 132.899 62.9159 132.856 62.7574C132.812 62.5988 132.79 62.4383 132.79 62.2741C132.79 61.9579 132.856 61.6847 132.987 61.4526C133.119 61.2215 133.293 61.0295 133.51 60.8776C133.727 60.7258 133.972 60.6131 134.247 60.5395C134.523 60.4669 134.801 60.4297 135.081 60.4297C135.409 60.4297 135.718 60.4727 136.008 60.5567C136.298 60.6417 136.553 60.7688 136.772 60.9388C136.992 61.1088 137.166 61.318 137.295 61.5663C137.424 61.8156 137.488 62.1031 137.488 62.4317H136.39C136.361 62.0276 136.223 61.742 135.978 61.5759C135.732 61.4087 135.419 61.3256 135.038 61.3256C134.909 61.3256 134.777 61.339 134.642 61.3657C134.507 61.3915 134.384 61.4354 134.273 61.4975C134.161 61.5587 134.07 61.6427 133.996 61.7478C133.923 61.8528 133.886 61.9847 133.886 62.1432C133.886 62.3658 133.955 62.5396 134.093 62.6657C134.23 62.7917 134.41 62.8863 134.632 62.9513C134.655 62.957 134.748 62.9818 134.91 63.0258C135.07 63.0697 135.251 63.1184 135.449 63.1709C135.648 63.2235 135.843 63.275 136.033 63.3247C136.223 63.3744 136.36 63.4116 136.441 63.4346C136.645 63.4995 136.824 63.5864 136.977 63.6982C137.129 63.8099 137.257 63.937 137.359 64.0802C137.461 64.2235 137.538 64.3773 137.587 64.5416C137.637 64.7058 137.662 64.8692 137.662 65.0335C137.662 65.385 137.59 65.6849 137.447 65.9332C137.304 66.1825 137.114 66.385 136.88 66.5435C136.646 66.7011 136.38 66.8177 136.081 66.8903C135.782 66.9638 135.478 67.0001 135.167 67.0001C134.81 67.0001 134.474 66.9562 134.158 66.8683C133.841 66.7804 133.566 66.6457 133.332 66.4643C133.098 66.2828 132.911 66.0497 132.771 65.7661C132.63 65.4824 132.557 65.1471 132.551 64.7603H133.648H133.649Z" fill="black"/>
<path d="M138.022 60.5801H143.098V61.5285H141.104V66.8496H140.007V61.5285H138.021V60.5801H138.022Z" fill="black"/>
<path d="M143.826 60.5801H146.821C147.512 60.5801 148.03 60.7291 148.376 61.028C148.721 61.327 148.893 61.7425 148.893 62.2745C148.893 62.5734 148.849 62.8208 148.761 63.0166C148.674 63.2124 148.571 63.371 148.454 63.4904C148.336 63.6107 148.221 63.6967 148.107 63.7492C147.993 63.8017 147.909 63.8371 147.857 63.8543V63.8715C147.95 63.8839 148.052 63.9125 148.16 63.9593C148.268 64.0061 148.369 64.0806 148.462 64.1828C148.556 64.285 148.633 64.4188 148.696 64.5821C148.757 64.7464 148.788 64.9508 148.788 65.1962C148.788 65.5649 148.816 65.9002 148.871 66.202C148.927 66.5038 149.013 66.7187 149.13 66.8477H147.953C147.871 66.713 147.823 66.564 147.808 66.3997C147.794 66.2364 147.786 66.0778 147.786 65.926C147.786 65.6394 147.769 65.3921 147.734 65.1838C147.698 64.9756 147.634 64.8037 147.541 64.6661C147.447 64.5286 147.32 64.4274 147.158 64.3634C146.997 64.2994 146.791 64.2669 146.539 64.2669H144.924V66.8486H143.826V60.5791V60.5801ZM144.924 63.434H146.724C147.075 63.434 147.342 63.3509 147.523 63.1838C147.705 63.0166 147.796 62.7664 147.796 62.433C147.796 62.2344 147.766 62.072 147.708 61.9459C147.649 61.8198 147.568 61.7214 147.466 61.6517C147.364 61.582 147.246 61.5352 147.114 61.5113C146.983 61.4874 146.847 61.476 146.707 61.476H144.924V63.434Z" fill="black"/>
<path d="M149.939 60.5801H151.037V64.2325C151.037 64.4427 151.048 64.6566 151.068 64.8734C151.088 65.0902 151.147 65.2851 151.243 65.457C151.34 65.6299 151.486 65.7722 151.683 65.883C151.879 65.9948 152.156 66.0502 152.513 66.0502C152.87 66.0502 153.147 65.9948 153.343 65.883C153.539 65.7722 153.686 65.6299 153.783 65.457C153.879 65.2841 153.938 65.0893 153.959 64.8734C153.979 64.6566 153.989 64.4427 153.989 64.2325V60.5801H155.087V64.5926C155.087 64.9966 155.026 65.3481 154.902 65.6461C154.779 65.9451 154.605 66.1953 154.38 66.3969C154.154 66.5984 153.884 66.7493 153.568 66.8487C153.252 66.948 152.9 66.9977 152.514 66.9977C152.128 66.9977 151.777 66.948 151.46 66.8487C151.144 66.7493 150.874 66.5984 150.648 66.3969C150.423 66.1944 150.249 65.9441 150.126 65.6461C150.003 65.3472 149.941 64.9966 149.941 64.5926V60.5801H149.939Z" fill="black"/>
<path d="M155.753 60.5801H160.829V61.5285H158.835V66.8496H157.737V61.5285H155.752V60.5801H155.753Z" fill="black"/>
<path d="M161.557 60.5801H166.071V61.5285H162.654V63.1704H165.816V64.0663H162.654V65.9012H166.132V66.8496H161.557V60.5801Z" fill="black"/>
<path d="M171.322 62.573C171.276 62.3915 171.211 62.2243 171.129 62.0725C171.047 61.9206 170.942 61.7888 170.813 61.677C170.684 61.5662 170.533 61.4793 170.361 61.4182C170.188 61.3571 169.988 61.3255 169.759 61.3255C169.426 61.3255 169.138 61.3934 168.895 61.528C168.652 61.6627 168.454 61.8432 168.302 62.0677C168.15 62.2931 168.037 62.5491 167.963 62.8356C167.89 63.1222 167.854 63.4154 167.854 63.7134C167.854 64.0114 167.89 64.3046 167.963 64.5912C168.037 64.8777 168.15 65.1346 168.302 65.3591C168.454 65.5845 168.651 65.7641 168.895 65.8988C169.138 66.0334 169.426 66.1003 169.759 66.1003C170.005 66.1003 170.222 66.0583 170.409 65.9733C170.596 65.8882 170.758 65.7717 170.893 65.6218C171.027 65.4728 171.132 65.298 171.209 65.0993C171.285 64.9006 171.335 64.6867 171.358 64.4584H172.429C172.405 64.8328 172.325 65.1757 172.187 65.4852C172.049 65.7956 171.863 66.063 171.629 66.2884C171.395 66.5139 171.12 66.6877 170.804 66.8109C170.487 66.9341 170.139 66.9953 169.759 66.9953C169.29 66.9953 168.87 66.9083 168.498 66.7364C168.127 66.5635 167.812 66.3276 167.555 66.0296C167.297 65.7307 167.099 65.383 166.962 64.9847C166.825 64.5864 166.756 64.1623 166.756 63.7115C166.756 63.2607 166.825 62.8452 166.962 62.4469C167.1 62.0486 167.298 61.7009 167.555 61.402C167.812 61.103 168.127 60.8661 168.498 60.6904C168.87 60.5146 169.29 60.4268 169.759 60.4268C170.11 60.4268 170.441 60.4745 170.751 60.5719C171.062 60.6684 171.335 60.8088 171.572 60.9932C171.809 61.1775 172.001 61.402 172.147 61.6646C172.293 61.9282 172.384 62.2301 172.419 62.5691H171.321L171.322 62.573Z" fill="black"/>
<path d="M173.404 60.5801H174.502V63.0739H177.357V60.5801H178.454V66.8496H177.357V64.0224H174.502V66.8496H173.404V60.5801Z" fill="black"/>
<path d="M180.491 64.7603C180.491 65 180.532 65.2054 180.614 65.3744C180.697 65.5445 180.81 65.683 180.957 65.7918C181.104 65.9007 181.272 65.979 181.463 66.0287C181.653 66.0784 181.859 66.1032 182.082 66.1032C182.322 66.1032 182.527 66.0755 182.696 66.0201C182.866 65.9647 183.004 65.8931 183.109 65.8052C183.214 65.7173 183.29 65.6161 183.337 65.5024C183.384 65.3878 183.407 65.2732 183.407 65.1557C183.407 64.916 183.352 64.7383 183.245 64.6247C183.137 64.51 183.017 64.4298 182.889 64.383C182.667 64.3009 182.408 64.2235 182.112 64.15C181.815 64.0764 181.451 63.9819 181.019 63.8644C180.749 63.7946 180.526 63.702 180.347 63.5874C180.168 63.4728 180.026 63.3457 179.921 63.2053C179.816 63.0649 179.741 62.9159 179.697 62.7574C179.653 62.5988 179.631 62.4383 179.631 62.2741C179.631 61.9579 179.697 61.6847 179.829 61.4526C179.961 61.2215 180.135 61.0295 180.352 60.8776C180.569 60.7258 180.814 60.6131 181.089 60.5395C181.364 60.4669 181.642 60.4297 181.923 60.4297C182.251 60.4297 182.56 60.4727 182.85 60.5567C183.139 60.6417 183.395 60.7688 183.614 60.9388C183.834 61.1088 184.008 61.318 184.137 61.5663C184.266 61.8156 184.33 62.1031 184.33 62.4317H183.232C183.203 62.0276 183.065 61.742 182.819 61.5759C182.574 61.4087 182.261 61.3256 181.879 61.3256C181.75 61.3256 181.619 61.339 181.484 61.3657C181.349 61.3915 181.226 61.4354 181.115 61.4975C181.003 61.5587 180.912 61.6427 180.838 61.7478C180.764 61.8528 180.728 61.9847 180.728 62.1432C180.728 62.3658 180.797 62.5396 180.935 62.6657C181.072 62.7917 181.252 62.8863 181.474 62.9513C181.497 62.957 181.59 62.9818 181.751 63.0258C181.912 63.0697 182.092 63.1184 182.291 63.1709C182.49 63.2235 182.685 63.275 182.875 63.3247C183.065 63.3744 183.202 63.4116 183.283 63.4346C183.487 63.4995 183.666 63.5864 183.819 63.6982C183.971 63.8099 184.099 63.937 184.201 64.0802C184.303 64.2235 184.379 64.3773 184.429 64.5416C184.479 64.7058 184.504 64.8692 184.504 65.0335C184.504 65.385 184.432 65.6849 184.289 65.9332C184.145 66.1825 183.956 66.385 183.722 66.5435C183.488 66.7011 183.222 66.8177 182.923 66.8903C182.624 66.9638 182.32 67.0001 182.009 67.0001C181.652 67.0001 181.316 66.9562 180.999 66.8683C180.683 66.7804 180.408 66.6457 180.174 66.4643C179.94 66.2828 179.753 66.0497 179.612 65.7661C179.472 65.4824 179.398 65.1471 179.393 64.7603H180.49H180.491Z" fill="black"/>
<defs>
<filter id="filter0_d_211_372" x="546" y="28.2422" width="203.938" height="43.2266" filterUnits="userSpaceOnUse" color-interpolation-filters="sRGB">
<feFlood flood-opacity="0" result="BackgroundImageFix"/>
<feColorMatrix in="SourceAlpha" type="matrix" values="0 0 0 0 0 0 0 0 0 0 0 0 0 0 0 0 0 0 127 0" result="hardAlpha"/>
<feOffset dy="4"/>
<feGaussianBlur stdDeviation="2"/>
<feComposite in2="hardAlpha" operator="out"/>
<feColorMatrix type="matrix" values="0 0 0 0 0 0 0 0 0 0 0 0 0 0 0 0 0 0 0.25 0"/>
<feBlend mode="normal" in2="BackgroundImageFix" result="effect1_dropShadow_211_372"/>
<feBlend mode="normal" in="SourceGraphic" in2="effect1_dropShadow_211_372" result="shape"/>
</filter>
</defs>
</svg>
